<ttFont>
        <CharString name=".notdef">
          endchar
        </CharString>
        <CharString name=".null">
          -533 endchar
        </CharString>
        <CharString name="A">
          41 310 665 rmoveto
          -9 -1 -17 -7 -27 -13 rrcurveto
          -13 -8 -5 -6 -2 hhcurveto
          -9 -26 -10 -24 -12 -22 -46 -135 rcurveline
          1 -7 rlineto
          -8 -7 -4 -7 -7 vvcurveto
          3 -3 rlineto
          -4 -4 -4 -7 -5 vhcurveto
          3 -10 rlineto
          -2 vlineto
          -12 -14 -6 -10 -6 vvcurveto
          -19 -47 -52 -144 -4 -19 -5 -16 -7 -13 rlinecurve
          2 1 -2 -4 hvcurveto
          -4 vlineto
          -5 -4 -8 -8 -11 vhcurveto
          -1 hlineto
          -1 1 4 12 -4 4 rlineto
          -7 -3 -3 -6 hvcurveto
          -15 vlineto
          -1 -3 rlineto
          -12 -6 -6 -5 -4 vvcurveto
          5 -9 3 -6 -3 vvcurveto
          -1 vlineto
          -4 -13 rlineto
          -3 8 -2 17 -1 vhcurveto
          101 51 4 7 hvcurveto
          17 13 9 9 5 vvcurveto
          1 vlineto
          19 -17 -20 9 -23 hhcurveto
          -20 hlineto
          -5 -3 1 3 -3 hvcurveto
          15 50 9 27 3 3 rrcurveto
          22 hlineto
          93 9 81 7 69 5 rrcurveto
          1 hlineto
          27 -37 14 -34 -30 vvcurveto
          -4 vlineto
          -1 -2 rlineto
          -25 -12 -4 -8 hvcurveto
          10 -21 rlineto
          -4 vlineto
          -8 -8 rlineto
          -17 21 18 -8 13 hhcurveto
          62 6 rlineto
          10 hlineto
          13 -4 rlineto
          8 1 4 2 2 vvcurveto
          3 vlineto
          -12 1 -6 2 1 vvcurveto
          4 1 3 2 7 hhcurveto
          2 hlineto
          3 5 -3 -5 5 hvcurveto
          4 hlineto
          7 7 3 7 7 vvcurveto
          -1 17 6 12 -1 2 -5 2 -7 1 rlinecurve
          -1 hlineto
          -20 hlineto
          -10 1 -8 3 -7 5 2 11 rcurveline
          -5 25 -19 41 -1 4 -2 4 -1 5 rlinecurve
          1 10 hlineto
          -1 -1 0 -1 -2 hvcurveto
          -23 78 -19 73 -15 69 -32 114 rcurveline
          -48 143 rlineto
          9 -20 8 -39 5 vhcurveto
          -144 -445 rmoveto
          13 57 12 39 11 21 18 29 34 63 49 98 rrcurveto
          1 11 0 7 3 vvcurveto
          4 -3 4 -5 4 -9 5 -12 8 -22 9 -32 63 -190 rcurveline
          9 6 -12 -24 3 hvcurveto
          -1 vlineto
          -3 -4 rlineto
          -41 hlineto
          -50 -69 -7 -14 -87 hvcurveto
          -3 2 rlineto
          380 -187 rmoveto
          5 5 5 3 6 hhcurveto
          5 -4 rlineto
          -4 -7 -2 -13 vhcurveto
          -1 hlineto
          -246 541 rmoveto
          5 2 4 5 3 vhcurveto
          3 -4 hlineto
          -5 -3 -3 -6 vhcurveto
          29 83 rmoveto
          5 2 -2 -3 1 hvcurveto
          -1 vlineto
          -2 -2 rlineto
          -8 hlineto
          -3 3 rlineto
          5 vlineto
          17 -432 rmoveto
          15 -2 hlineto
          -3 -1 -3 -1 -6 hhcurveto
          -5 hlineto
          -2 2 rlineto
          159 -80 rmoveto
          -2 vlineto
          -29 -2 rlineto
          4 vlineto
          -357 5 rmoveto
          3 -1 rlineto
          -7 vlineto
          -3 -3 rlineto
          -2 hlineto
          -1 5 1 6 rlineto
          351 -142 rmoveto
          3 1 3 2 5 hhcurveto
          2 -3 rlineto
          -3 -1 -2 -1 -4 hhcurveto
          -4 hlineto
          -388 137 rmoveto
          2 -2 rlineto
          -5 -1 -3 -2 -5 hhcurveto
          3 vlineto
          337 125 rmoveto
          2 -7 3 3 rlineto
          8 vlineto
          -1 1 rlineto
          -222 116 rmoveto
          -2 vlineto
          -4 -1 4 -2 13 vhcurveto
          -1 3 hlineto
          1 6 rlineto
          334 -315 rmoveto
          3 -3 rlineto
          -7 -1 vlineto
          -3 3 rlineto
          7 vlineto
          -449 -10 rmoveto
          2 -4 -2 -3 rlineto
          -1 hlineto
          -3 3 rlineto
          3 vlineto
          241 550 rmoveto
          3 -2 rlineto
          -3 -2 vlineto
          -2 3 rlineto
          2 vlineto
          -36 -418 rmoveto
          -3 -3 3 vlineto
          -88 163 rmoveto
          -3 -1 3 vlineto
          endchar
        </CharString>
        <CharString name="AE">
          408 427 673 rmoveto
          -1 hlineto
          -13 -8 -10 -21 -1 hvcurveto
          1 -1 rlineto
          -30 5 -15 11 vhcurveto
          13 2 25 -8 rlineto
          21 11 -9 -18 hvcurveto
          -3 vlineto
          -10 -1 -7 -2 -3 vhcurveto
          -128 -3 -2 -64 -2 hhcurveto
          7 -12 3 -8 -5 vvcurveto
          3 -116 -19 63 -15 59 -11 57 rlinecurve
          -32 114 -48 143 rlineto
          9 -20 8 -39 5 vhcurveto
          -9 -1 -17 -7 -27 -13 rrcurveto
          -13 -8 -5 -6 -2 hhcurveto
          -9 -26 -10 -24 -12 -22 -46 -135 rcurveline
          1 -7 rlineto
          -8 -7 -4 -7 -7 vvcurveto
          3 -3 rlineto
          -4 -4 -4 -7 -5 vhcurveto
          3 -10 rlineto
          -2 vlineto
          -12 -14 -6 -10 -6 vvcurveto
          -19 -47 -52 -144 -4 -19 -5 -16 -7 -13 rlinecurve
          2 1 -2 -4 hvcurveto
          -4 vlineto
          -5 -4 -8 -8 -11 vhcurveto
          -1 hlineto
          -1 1 4 12 -4 4 rlineto
          -7 -3 -3 -6 hvcurveto
          -15 vlineto
          -1 -3 rlineto
          -12 -6 -6 -5 -4 vvcurveto
          5 -9 3 -6 -3 vvcurveto
          -1 vlineto
          -4 -13 rlineto
          -3 8 -2 17 -1 vhcurveto
          101 51 4 7 hvcurveto
          17 13 9 9 5 vvcurveto
          1 vlineto
          19 -17 -20 9 -23 hhcurveto
          -20 hlineto
          -5 -3 1 3 -3 hvcurveto
          15 50 9 27 3 3 rrcurveto
          22 hlineto
          93 9 81 7 69 5 rrcurveto
          1 hlineto
          21 -29 13 -27 5 -25 rrcurveto
          -1 vlineto
          1 -10 -4 -15 rlineto
          -22 -1 -11 -4 -7 vvcurveto
          10 -21 rlineto
          -4 vlineto
          -8 -8 rlineto
          -17 21 18 -8 13 hhcurveto
          62 6 rlineto
          10 hlineto
          13 -4 rlineto
          8 1 4 2 2 vvcurveto
          1 vlineto
          175 -3 87 -3 -2 vvcurveto
          29 -3 18 -4 5 -3 rrcurveto
          5 hlineto
          3 10 -3 27 -1 38 -1 50 rlinecurve
          14 -4 7 -7 vhcurveto
          8 -15 -8 4 -2 hhcurveto
          -25 -3 -12 -5 -7 vvcurveto
          3 -9 5 -7 7 -5 7 2 rcurveline
          5 3 -6 -12 hvcurveto
          -1 -5 rlineto
          -1 hlineto
          -10 10 rlineto
          -6 hlineto
          -7 -1 -3 -4 -5 hhcurveto
          -2 hlineto
          7 -58 -47 4 -37 hhcurveto
          -2 hlineto
          -29 -4 -37 -3 -46 -3 -3 2 rcurveline
          4 41 3 40 2 38 -7 102 rcurveline
          1 15 rlineto
          5 24 2 47 52 26 -3 -7 vhcurveto
          -21 4 3 -10 3 hhcurveto
          15 -3 13 -3 10 -5 rrcurveto
          3 1 2 3 7 vvcurveto
          41 vlineto
          69 -4 34 -9 vhcurveto
          -7 -5 rlineto
          -16 -4 -8 -6 -7 vvcurveto
          -19 -4 -9 -7 vhcurveto
          -81 9 -50 -3 rlineto
          -7 hlineto
          -3 -4 2 4 -5 hvcurveto
          125 -4 -4 63 -3 hhcurveto
          6 22 3 43 vhcurveto
          64 hlineto
          123 -3 8 2 rlineto
          3 vlineto
          -8 3 -4 3 1 vvcurveto
          1 27 vlineto
          1 1 -3 -6 hvcurveto
          10 5 -6 -12 -8 3 -6 7 -3 hvcurveto
          -6 -7 -3 -5 -1 -3 rrcurveto
          -3 vlineto
          -13 11 -6 21 7 8 2 5 8 vhcurveto
          19 38 rlineto
          -3 29 -2 34 37 vvcurveto
          5 -1 4 -3 5 vhcurveto
          -4 -1 -27 -3 -17 -5 -7 -7 rlinecurve
          -2 2 hlineto
          5 1 2 1 2 vvcurveto
          5 -76 3 -152 2 vhcurveto
          -455 -457 rmoveto
          13 57 12 39 11 21 18 29 34 63 49 98 rrcurveto
          1 11 0 7 3 vvcurveto
          4 -3 4 -5 4 -9 5 -12 8 -22 9 -32 63 -190 rcurveline
          9 6 -12 -24 3 hvcurveto
          -1 vlineto
          -3 -4 rlineto
          -41 hlineto
          -50 -69 -7 -14 -87 hvcurveto
          -3 2 rlineto
          374 395 rmoveto
          4 7 2 15 vhcurveto
          3 hlineto
          17 8 -2 -4 hvcurveto
          -1 vlineto
          -3 -13 -2 -25 -1 vhcurveto
          -2 hlineto
          -5 -3 2 4 -2 hvcurveto
          268 30 rmoveto
          26 -1 rlineto
          -4 vlineto
          -1 -1 -1 -2 -3 -2 -57 6 rcurveline
          3 vlineto
          -118 -589 rmoveto
          39 -1 20 -2 -3 vvcurveto
          -59 hlineto
          -23 3 rlineto
          3 vlineto
          130 -6 rmoveto
          15 12 -2 -3 11 hvcurveto
          -2 vlineto
          -32 1 -16 2 2 vvcurveto
          2 vlineto
          -320 618 rmoveto
          11 10 -1 -3 7 hvcurveto
          -3 -3 -7 2 rlineto
          -3 -4 -3 -7 -5 hvcurveto
          -10 15 rlineto
          72 -10 rmoveto
          5 6 -3 -5 8 hvcurveto
          -4 -12 vlineto
          -7 -3 2 3 -1 hvcurveto
          2 vlineto
          30 -96 rmoveto
          5 -2 2 -5 -8 vvcurveto
          -2 -4 rlineto
          -3 -3 2 4 -2 hvcurveto
          8 vlineto
          14 -401 rmoveto
          3 -1 1 -3 -6 vvcurveto
          -8 -2 -4 -4 vhcurveto
          2 vlineto
          -2 1 rlineto
          13 vlineto
          2 6 rlineto
          293 -93 rmoveto
          12 hlineto
          2 -2 rlineto
          -2 vlineto
          -2 -3 -2 -7 -2 vhcurveto
          -5 -2 2 3 -1 hvcurveto
          1 vlineto
          -53 -33 rmoveto
          2 5 1 9 1 vhcurveto
          12 -2 rlineto
          1 hlineto
          -3 -1 -2 -1 -5 hhcurveto
          -9 hlineto
          69 559 rmoveto
          9 1 4 2 vhcurveto
          3 hlineto
          1 -6 rlineto
          -8 -1 -2 -4 -2 hhcurveto
          -2 3 rlineto
          -549 -2 rmoveto
          5 2 4 5 3 vhcurveto
          3 -4 hlineto
          -5 -3 -3 -6 vhcurveto
          29 83 rmoveto
          5 2 -2 -3 1 hvcurveto
          -1 vlineto
          -2 -2 rlineto
          -8 hlineto
          -3 3 rlineto
          5 vlineto
          205 -151 rmoveto
          4 -12 -3 -3 rlineto
          -3 hlineto
          -3 4 rlineto
          7 vlineto
          344 50 rmoveto
          2 4 3 3 3 1 rrcurveto
          3 hlineto
          -8 -2 -4 -4 vhcurveto
          1 vlineto
          -3 3 rlineto
          -10 -521 rmoveto
          7 -1 rlineto
          -2 vlineto
          -3 -3 rlineto
          -3 hlineto
          -11 3 rlineto
          3 vlineto
          -228 587 rmoveto
          11 hlineto
          3 -2 rlineto
          -2 -1 -3 -1 -4 hhcurveto
          -1 hlineto
          -4 -2 1 2 -1 hvcurveto
          -279 -391 rmoveto
          15 -2 hlineto
          -3 -1 -3 -1 -6 hhcurveto
          -5 hlineto
          -2 2 rlineto
          353 -198 rmoveto
          12 -2 rlineto
          -2 -16 vlineto
          -1 2 rlineto
          2 vlineto
          -193 118 rmoveto
          -3 vlineto
          -25 -1 rlineto
          4 vlineto
          45 158 rmoveto
          -13 vlineto
          -3 -3 rlineto
          -3 9 hlineto
          2 7 rlineto
          -34 360 rmoveto
          1 2 2 5 1 vhcurveto
          6 -4 hlineto
          -9 -2 rlineto
          -3 -1 1 1 hvcurveto
          -364 -513 rmoveto
          3 -1 rlineto
          -7 vlineto
          -3 -3 rlineto
          -2 hlineto
          -1 5 1 6 rlineto
          436 503 rmoveto
          5 3 -2 -4 1 hvcurveto
          -1 -4 vlineto
          -5 -4 2 4 -1 hvcurveto
          1 vlineto
          71 -590 rmoveto
          3 -3 -7 -2 rlineto
          -3 hlineto
          -3 2 rlineto
          3 vlineto
          -119 555 rmoveto
          -1 -23 1 vlineto
          1 -610 rmoveto
          1 2 1 2 2 1 rrcurveto
          -1 2 2 0 2 hhcurveto
          1 -2 rlineto
          -3 -1 -2 -1 -4 hhcurveto
          -4 hlineto
          397 117 rmoveto
          3 2 3 4 1 vhcurveto
          3 -2 rlineto
          -4 vlineto
          -1 -2 -1 -4 -1 vhcurveto
          -274 526 rmoveto
          12 6 -1 -2 hvcurveto
          -12 -6 1 2 hvcurveto
          -514 -504 rmoveto
          2 -2 rlineto
          -5 -1 -3 -2 -5 hhcurveto
          3 vlineto
          337 125 rmoveto
          2 -7 3 3 rlineto
          8 vlineto
          -1 1 rlineto
          -222 116 rmoveto
          -2 vlineto
          -4 -1 4 -2 13 vhcurveto
          -1 3 hlineto
          1 6 rlineto
          431 -378 rmoveto
          2 hlineto
          1 -2 rlineto
          -1 vlineto
          -1 -3 rlineto
          -6 3 hlineto
          -48 360 rmoveto
          1 hlineto
          4 -2 rlineto
          -4 -8 2 vlineto
          101 -9 rmoveto
          2 -3 rlineto
          -1 -4 vlineto
          -4 3 rlineto
          1 vlineto
          -587 -291 rmoveto
          2 -4 -2 -3 rlineto
          -1 hlineto
          -3 3 rlineto
          3 vlineto
          569 295 rmoveto
          2 -3 rlineto
          -3 -2 vlineto
          -3 3 rlineto
          3 vlineto
          -325 255 rmoveto
          3 -2 rlineto
          -3 -2 vlineto
          -2 3 rlineto
          2 vlineto
          -36 -418 rmoveto
          -3 -3 3 vlineto
          382 160 rmoveto
          -3 -3 3 vlineto
          -106 -144 rmoveto
          -3 -2 3 vlineto
          -359 147 rmoveto
          -3 -1 3 vlineto
          399 293 rmoveto
          -1 -3 1 vlineto
          endchar
        </CharString>
        <CharString name="AEacute">
          408 380 326 225 194 endchar
        </CharString>
        <CharString name="Aacute">
          41 310 665 rmoveto
          -9 -1 -17 -7 -27 -13 rrcurveto
          -13 -8 -5 -6 -2 hhcurveto
          -9 -26 -10 -24 -12 -22 -46 -135 rcurveline
          1 -7 rlineto
          -8 -7 -4 -7 -7 vvcurveto
          3 -3 rlineto
          -4 -4 -4 -7 -5 vhcurveto
          3 -10 rlineto
          -2 vlineto
          -12 -14 -6 -10 -6 vvcurveto
          -19 -47 -52 -144 -4 -19 -5 -16 -7 -13 rlinecurve
          2 1 -2 -4 hvcurveto
          -4 vlineto
          -5 -4 -8 -8 -11 vhcurveto
          -1 hlineto
          -1 1 4 12 -4 4 rlineto
          -7 -3 -3 -6 hvcurveto
          -15 vlineto
          -1 -3 rlineto
          -12 -6 -6 -5 -4 vvcurveto
          5 -9 3 -6 -3 vvcurveto
          -1 vlineto
          -4 -13 rlineto
          -3 8 -2 17 -1 vhcurveto
          101 51 4 7 hvcurveto
          17 13 9 9 5 vvcurveto
          1 vlineto
          19 -17 -20 9 -23 hhcurveto
          -20 hlineto
          -5 -3 1 3 -3 hvcurveto
          15 50 9 27 3 3 rrcurveto
          22 hlineto
          93 9 81 7 69 5 rrcurveto
          1 hlineto
          27 -37 14 -34 -30 vvcurveto
          -4 vlineto
          -1 -2 rlineto
          -25 -12 -4 -8 hvcurveto
          10 -21 rlineto
          -4 vlineto
          -8 -8 rlineto
          -17 21 18 -8 13 hhcurveto
          62 6 rlineto
          10 hlineto
          13 -4 rlineto
          8 1 4 2 2 vvcurveto
          3 vlineto
          -12 1 -6 2 1 vvcurveto
          4 1 3 2 7 hhcurveto
          2 hlineto
          3 5 -3 -5 5 hvcurveto
          4 hlineto
          7 7 3 7 7 vvcurveto
          -1 17 6 12 -1 2 -5 2 -7 1 rlinecurve
          -1 hlineto
          -20 hlineto
          -10 1 -8 3 -7 5 2 11 rcurveline
          -5 25 -19 41 -1 4 -2 4 -1 5 rlinecurve
          1 10 hlineto
          -1 -1 0 -1 -2 hvcurveto
          -23 78 -19 73 -15 69 -32 114 rcurveline
          -48 143 rlineto
          9 -20 8 -39 5 vhcurveto
          -144 -445 rmoveto
          13 57 12 39 11 21 18 29 34 63 49 98 rrcurveto
          1 11 0 7 3 vvcurveto
          4 -3 4 -5 4 -9 5 -12 8 -22 9 -32 63 -190 rcurveline
          9 6 -12 -24 3 hvcurveto
          -1 vlineto
          -3 -4 rlineto
          -41 hlineto
          -50 -69 -7 -14 -87 hvcurveto
          -3 2 rlineto
          380 -187 rmoveto
          5 5 5 3 6 hhcurveto
          5 -4 rlineto
          -4 -7 -2 -13 vhcurveto
          -1 hlineto
          -246 541 rmoveto
          5 2 4 5 3 vhcurveto
          3 -4 hlineto
          -5 -3 -3 -6 vhcurveto
          29 83 rmoveto
          5 2 -2 -3 1 hvcurveto
          -1 vlineto
          -2 -2 rlineto
          -8 hlineto
          -3 3 rlineto
          5 vlineto
          17 -432 rmoveto
          15 -2 hlineto
          -3 -1 -3 -1 -6 hhcurveto
          -5 hlineto
          -2 2 rlineto
          159 -80 rmoveto
          -2 vlineto
          -29 -2 rlineto
          4 vlineto
          -357 5 rmoveto
          3 -1 rlineto
          -7 vlineto
          -3 -3 rlineto
          -2 hlineto
          -1 5 1 6 rlineto
          351 -142 rmoveto
          3 1 3 2 5 hhcurveto
          2 -3 rlineto
          -3 -1 -2 -1 -4 hhcurveto
          -4 hlineto
          -388 137 rmoveto
          2 -2 rlineto
          -5 -1 -3 -2 -5 hhcurveto
          3 vlineto
          337 125 rmoveto
          2 -7 3 3 rlineto
          8 vlineto
          -1 1 rlineto
          -222 116 rmoveto
          -2 vlineto
          -4 -1 4 -2 13 vhcurveto
          -1 3 hlineto
          1 6 rlineto
          334 -315 rmoveto
          3 -3 rlineto
          -7 -1 vlineto
          -3 3 rlineto
          7 vlineto
          -449 -10 rmoveto
          2 -4 -2 -3 rlineto
          -1 hlineto
          -3 3 rlineto
          3 vlineto
          241 550 rmoveto
          3 -2 rlineto
          -3 -2 vlineto
          -2 3 rlineto
          2 vlineto
          -36 -418 rmoveto
          -3 -3 3 vlineto
          -88 163 rmoveto
          -3 -1 3 vlineto
          118 378 rmoveto
          -2 -7 8 8 rlineto
          3 vlineto
          27 18 19 29 13 39 -7 9 -10 7 -13 5 -13 -11 -10 -12 -7 -11 -6 -11 -13 -13 -19 -17 -4 -1 0 -3 -1 -3 -39 -54 rcurveline
          39 -22 9 10 26 29 -3 4 -5 8 rlineto
          1 vlineto
          8 2 rlineto
          7 -1 hlineto
          -2 -1 -3 -4 -4 -5 1 1 2 1 1 2 rrcurveto
          30 54 rmoveto
          -7 3 -4 0 -3 vvcurveto
          -3 4 -3 4 -5 3 rrcurveto
          2 vlineto
          1 vlineto
          2 2 rlineto
          8 hlineto
          4 2 -5 7 rlineto
          2 2 vlineto
          9 1 0 -4 -10 -11 rrcurveto
          -14 -28 rmoveto
          -3 -1 -5 -1 -2 3 2 6 rlinecurve
          3 2 rlineto
          2 hlineto
          3 -1 1 -2 -1 -5 rrcurveto
          -26 -57 rmoveto
          2 -8 rlineto
          -1 hlineto
          -5 5 1 3 rlineto
          18 13 rmoveto
          -3 vlineto
          -3 -3 -1 4 rlineto
          1 vlineto
          3 4 rlineto
          5 52 rmoveto
          -2 -3 vlineto
          -1 0 2 3 hvcurveto
          2 1 rlineto
          -8 -34 rmoveto
          -3 -2 vlineto
          -2 2 rlineto
          2 3 vlineto
          endchar
        </CharString>
        <CharString name="Abreve">
          41 171 185 65 198 endchar
        </CharString>
        <CharString name="Acircumflex">
          41 142 266 65 195 endchar
        </CharString>
        <CharString name="Adieresis">
          41 47 185 65 200 endchar
        </CharString>
        <CharString name="Agrave">
          41 193 257 65 193 endchar
        </CharString>
        <CharString name="Amacron">
          41 108 185 65 197 endchar
        </CharString>
        <CharString name="Aogonek">
          41 310 665 rmoveto
          -9 -1 -17 -7 -27 -13 rrcurveto
          -13 -8 -5 -6 -2 hhcurveto
          -9 -26 -10 -24 -12 -22 -46 -135 rcurveline
          1 -7 rlineto
          -8 -7 -4 -7 -7 vvcurveto
          3 -3 rlineto
          -4 -4 -4 -7 -5 vhcurveto
          3 -10 rlineto
          -2 vlineto
          -12 -14 -6 -10 -6 vvcurveto
          -19 -47 -52 -144 -4 -19 -5 -16 -7 -13 rlinecurve
          2 1 -2 -4 hvcurveto
          -4 vlineto
          -5 -4 -8 -8 -11 vhcurveto
          -1 hlineto
          -1 1 4 12 -4 4 rlineto
          -7 -3 -3 -6 hvcurveto
          -15 vlineto
          -1 -3 rlineto
          -12 -6 -6 -5 -4 vvcurveto
          5 -9 3 -6 -3 vvcurveto
          -1 vlineto
          -4 -13 rlineto
          -3 8 -2 17 -1 vhcurveto
          101 51 4 7 hvcurveto
          17 13 9 9 5 vvcurveto
          1 vlineto
          19 -17 -20 9 -23 hhcurveto
          -20 hlineto
          -5 -3 1 3 -3 hvcurveto
          15 50 9 27 3 3 rrcurveto
          22 hlineto
          93 9 81 7 69 5 rrcurveto
          1 hlineto
          27 -37 14 -34 -30 vvcurveto
          -4 vlineto
          -1 -2 rlineto
          -25 -12 -4 -8 hvcurveto
          3 -9 -18 -9 rlineto
          -1 vlineto
          11 -2 6 -2 -3 vvcurveto
          -17 -15 -9 -8 -3 hhcurveto
          -11 3 rlineto
          -3 -2 -2 -4 -2 hvcurveto
          4 -12 rlineto
          -3 -6 -1 -5 -4 vvcurveto
          -25 6 -17 12 -7 vhcurveto
          -3 -2 -1 -3 vhcurveto
          -1 vlineto
          -1 4 -3 7 -3 vhcurveto
          -4 vlineto
          -15 -2 6 -15 9 -14 12 -15 rlinecurve
          19 -22 34 -8 50 6 rrcurveto
          7 -3 0 3 3 hhcurveto
          1 4 rlineto
          13 -6 -8 6 -11 hhcurveto
          -2 2 rlineto
          1 vlineto
          1 5 2 11 3 vhcurveto
          3 vlineto
          -37 17 -19 13 9 vvcurveto
          3 vlineto
          -9 27 4 24 18 21 rrcurveto
          -1 3 4 0 4 hhcurveto
          62 6 rlineto
          10 hlineto
          13 -4 rlineto
          8 1 4 2 2 vvcurveto
          3 vlineto
          -12 1 -6 2 1 vvcurveto
          4 1 3 2 7 hhcurveto
          2 hlineto
          3 5 -3 -5 5 hvcurveto
          4 hlineto
          7 7 3 7 7 vvcurveto
          -1 17 6 12 -1 2 -5 2 -7 1 rlinecurve
          -1 hlineto
          -20 hlineto
          -10 1 -8 3 -7 5 2 11 rcurveline
          -5 25 -19 41 -1 4 -2 4 -1 5 rlinecurve
          1 10 hlineto
          -1 -1 0 -1 -2 hvcurveto
          -23 78 -19 73 -15 69 -32 114 rcurveline
          -48 143 rlineto
          9 -20 8 -39 5 vhcurveto
          -144 -445 rmoveto
          13 57 12 39 11 21 18 29 34 63 49 98 rrcurveto
          1 11 0 7 3 vvcurveto
          4 -3 4 -5 4 -9 5 -12 8 -22 9 -32 63 -190 rcurveline
          9 6 -12 -24 3 hvcurveto
          -1 vlineto
          -3 -4 rlineto
          -41 hlineto
          -50 -69 -7 -14 -87 hvcurveto
          -3 2 rlineto
          380 -187 rmoveto
          5 5 5 3 6 hhcurveto
          5 -4 rlineto
          -4 -7 -2 -13 vhcurveto
          -1 hlineto
          -246 541 rmoveto
          5 2 4 5 3 vhcurveto
          3 -4 hlineto
          -5 -3 -3 -6 vhcurveto
          29 83 rmoveto
          5 2 -2 -3 1 hvcurveto
          -1 vlineto
          -2 -2 rlineto
          -8 hlineto
          -3 3 rlineto
          5 vlineto
          17 -432 rmoveto
          15 -2 hlineto
          -3 -1 -3 -1 -6 hhcurveto
          -5 hlineto
          -2 2 rlineto
          159 -80 rmoveto
          -2 vlineto
          -29 -2 rlineto
          4 vlineto
          -357 5 rmoveto
          3 -1 rlineto
          -7 vlineto
          -3 -3 rlineto
          -2 hlineto
          -1 5 1 6 rlineto
          -37 -7 rmoveto
          2 -2 rlineto
          -5 -1 -3 -2 -5 hhcurveto
          3 vlineto
          337 125 rmoveto
          2 -7 3 3 rlineto
          8 vlineto
          -1 1 rlineto
          -222 116 rmoveto
          -2 vlineto
          -4 -1 4 -2 13 vhcurveto
          -1 3 hlineto
          1 6 rlineto
          334 -315 rmoveto
          3 -3 rlineto
          -7 -1 vlineto
          -3 3 rlineto
          7 vlineto
          -53 -82 rmoveto
          4 5 3 2 rlineto
          1 hlineto
          2 -3 rlineto
          -3 -1 -2 -1 -4 hhcurveto
          -399 72 rmoveto
          2 -4 -2 -3 rlineto
          -1 hlineto
          -3 3 rlineto
          3 vlineto
          241 550 rmoveto
          3 -2 rlineto
          -3 -2 vlineto
          -2 3 rlineto
          2 vlineto
          -36 -418 rmoveto
          -3 -3 3 vlineto
          -88 163 rmoveto
          -3 -1 3 vlineto
          335 -193 rmoveto
          -1 vlineto
          1 1 rlineto
          endchar
        </CharString>
        <CharString name="Aring">
          41 298 837 rmoveto
          -10 -13 -3 -6 -17 hvcurveto
          -18 -8 -15 -17 -12 -26 rrcurveto
          -5 -5 -3 -9 -12 vvcurveto
          -7 -19 -4 -11 -3 vvcurveto
          9 -21 rlineto
          -11 12 -16 23 -21 vhcurveto
          6 -3 6 -3 5 -1 rrcurveto
          -11 -7 -5 -6 -1 hhcurveto
          -9 -26 -10 -24 -12 -22 -46 -135 rcurveline
          1 -7 rlineto
          -8 -7 -4 -7 -7 vvcurveto
          3 -3 rlineto
          -4 -4 -4 -7 -5 vhcurveto
          3 -10 rlineto
          -2 vlineto
          -12 -14 -6 -10 -6 vvcurveto
          -19 -47 -52 -144 -4 -19 -5 -16 -7 -13 rlinecurve
          2 1 -2 -4 hvcurveto
          -4 vlineto
          -5 -4 -8 -8 -11 vhcurveto
          -1 hlineto
          -1 1 4 12 -4 4 rlineto
          -7 -3 -3 -6 hvcurveto
          -15 vlineto
          -1 -3 rlineto
          -12 -6 -6 -5 -4 vvcurveto
          5 -9 3 -6 -3 vvcurveto
          -1 vlineto
          -4 -13 rlineto
          -3 8 -2 17 -1 vhcurveto
          101 51 4 7 hvcurveto
          17 13 9 9 5 vvcurveto
          1 vlineto
          19 -17 -20 9 -23 hhcurveto
          -20 hlineto
          -5 -3 1 3 -3 hvcurveto
          15 50 9 27 3 3 rrcurveto
          22 hlineto
          93 9 81 7 69 5 rrcurveto
          1 hlineto
          27 -37 14 -34 -30 vvcurveto
          -4 vlineto
          -1 -2 rlineto
          -25 -12 -4 -8 hvcurveto
          10 -21 rlineto
          -4 vlineto
          -8 -8 rlineto
          -17 21 18 -8 13 hhcurveto
          62 6 rlineto
          10 hlineto
          13 -4 rlineto
          8 1 4 2 2 vvcurveto
          3 vlineto
          -12 1 -6 2 1 vvcurveto
          4 1 3 2 7 hhcurveto
          2 hlineto
          3 5 -3 -5 5 hvcurveto
          4 hlineto
          7 7 3 7 7 vvcurveto
          -1 17 6 12 -1 2 -5 2 -7 1 rlinecurve
          -1 hlineto
          -20 hlineto
          -10 1 -8 3 -7 5 2 11 rcurveline
          -5 25 -19 41 -1 4 -2 4 -1 5 rlinecurve
          1 10 hlineto
          -1 -1 0 -1 -2 hvcurveto
          -23 78 -19 73 -15 69 -32 114 rcurveline
          -48 143 rlineto
          6 -9 5 -18 5 vhcurveto
          21 29 11 17 1 5 5 26 rcurveline
          -1 15 1 4 -4 8 rlineto
          8 -1 -1 4 -1 hhcurveto
          -3 0 -1 -1 vhcurveto
          -2 hlineto
          -3 6 -2 5 -1 4 rrcurveto
          1 0 0 0 vhcurveto
          1 hlineto
          2 2 -2 -3 3 hvcurveto
          5 -7 9 -13 12 vhcurveto
          -13 11 -14 8 -14 7 rrcurveto
          -3 hlineto
          -142 -614 rmoveto
          13 57 12 39 11 21 18 29 34 63 49 98 rrcurveto
          1 11 0 7 3 vvcurveto
          4 -3 4 -5 4 -9 5 -12 8 -22 9 -32 63 -190 rcurveline
          9 6 -12 -24 3 hvcurveto
          -1 vlineto
          -3 -4 rlineto
          -41 hlineto
          -50 -69 -7 -14 -87 hvcurveto
          -3 2 rlineto
          63 499 rmoveto
          1 15 1 13 3 9 rrcurveto
          4 4 6 9 8 vhcurveto
          2 7 4 7 7 7 rrcurveto
          4 15 2 30 1 vhcurveto
          5 hlineto
          7 -2 8 -6 7 -11 rrcurveto
          9 -8 5 -5 -1 vvcurveto
          -1 -5 0 -5 -7 vvcurveto
          -9 1 -8 1 -5 vhcurveto
          -2 vlineto
          -11 -7 -13 -13 -16 vhcurveto
          -14 -12 -25 -7 rlineto
          -7 hlineto
          -13 4 -8 4 -5 5 rrcurveto
          -10 5 -5 4 2 vvcurveto
          -5 9 -3 8 -3 6 rrcurveto
          11 98 rmoveto
          14 14 16 7 18 hhcurveto
          5 -2 rlineto
          -1 -8 -2 -17 -2 vhcurveto
          -3 hlineto
          -2 hlineto
          -12 -15 -8 -6 -1 hhcurveto
          2 vlineto
          307 -779 rmoveto
          5 5 5 3 6 hhcurveto
          5 -4 rlineto
          -4 -7 -2 -13 vhcurveto
          -1 hlineto
          -275 775 rmoveto
          3 9 2 17 2 vhcurveto
          7 -2 rlineto
          -1 vlineto
          -28 -6 rlineto
          -4 hlineto
          -1 1 rlineto
          -1 14 rmoveto
          3 5 9 1 12 hhcurveto
          1 hlineto
          3 -1 rlineto
          -1 -10 -2 -20 -2 vhcurveto
          30 -245 rmoveto
          5 2 4 5 3 vhcurveto
          3 -4 hlineto
          -5 -3 -3 -6 vhcurveto
          -90 136 rmoveto
          1 2 -6 -12 2 hvcurveto
          -2 vlineto
          -4 2 -2 5 -1 8 rrcurveto
          3 vlineto
          133 -483 rmoveto
          15 -2 hlineto
          -3 -1 -3 -1 -6 hhcurveto
          -5 hlineto
          -2 2 rlineto
          -108 448 rmoveto
          12 -2 7 -2 1 -2 rrcurveto
          -5 hlineto
          -7 -6 2 3 -5 hvcurveto
          1 vlineto
          73 167 rmoveto
          1 2 0 4 1 vhcurveto
          5 -1 2 -2 -3 vvcurveto
          -2 -5 vlineto
          -4 -3 2 4 -1 hvcurveto
          197 -695 rmoveto
          -2 vlineto
          -29 -2 rlineto
          4 vlineto
          -357 5 rmoveto
          3 -1 rlineto
          -7 vlineto
          -3 -3 rlineto
          -2 hlineto
          -1 5 1 6 rlineto
          258 584 rmoveto
          3 0 1 1 vhcurveto
          4 -5 rlineto
          -2 vlineto
          -1 -3 -1 -3 -3 vvcurveto
          -1 hlineto
          -1 -1 4 8 hvcurveto
          -43 -80 rmoveto
          7 6 3 -1 1 -1 1 -2 rlinecurve
          -1 vlineto
          -2 -2 rlineto
          -8 hlineto
          16 149 rmoveto
          3 4 -3 -5 4 hvcurveto
          -1 -2 vlineto
          -6 3 -4 2 -1 3 rrcurveto
          1 vlineto
          120 -794 rmoveto
          3 1 3 2 5 hhcurveto
          2 -3 rlineto
          -3 -1 -2 -1 -4 hhcurveto
          -4 hlineto
          -388 137 rmoveto
          2 -2 rlineto
          -5 -1 -3 -2 -5 hhcurveto
          3 vlineto
          280 668 rmoveto
          -1 -1 -6 3 -4 3 -1 4 rlinecurve
          69 -552 rmoveto
          2 -7 3 3 rlineto
          8 vlineto
          -1 1 rlineto
          -222 116 rmoveto
          -2 vlineto
          -4 -1 4 -2 13 vhcurveto
          -1 3 hlineto
          1 6 rlineto
          334 -315 rmoveto
          3 -3 rlineto
          -7 -1 vlineto
          -3 3 rlineto
          7 vlineto
          -206 739 rmoveto
          3 4 -2 -3 3 hvcurveto
          -1 vlineto
          -3 -3 2 3 -5 hvcurveto
          -70 -29 rmoveto
          2 hlineto
          1 -1 rlineto
          -2 -2 -2 -3 -3 vhcurveto
          -1 1 hlineto
          93 41 rmoveto
          5 -1 3 -2 -3 vvcurveto
          -3 -3 2 3 -3 hvcurveto
          -70 -161 rmoveto
          5 4 -1 -2 3 hvcurveto
          -1 -1 vlineto
          -7 -4 1 2 hvcurveto
          -191 -590 rmoveto
          2 -4 -2 -3 rlineto
          -1 hlineto
          -3 3 rlineto
          3 vlineto
          259 731 rmoveto
          1 1 0 2 1 vhcurveto
          2 1 -1 -2 hvcurveto
          -1 vlineto
          -1 vlineto
          -2 -2 1 2 -2 hvcurveto
          -78 3 rmoveto
          3 2 2 4 1 vhcurveto
          -1 vlineto
          -3 -2 -2 -2 -2 hhcurveto
          115 -106 rmoveto
          4 2 2 2 1 hhcurveto
          -4 -1 -2 -2 -1 hhcurveto
          5 7 rmoveto
          7 vlineto
          1 -2 rlineto
          1 hlineto
          1 1 1 -2 -5 vvcurveto
          -2 1 rlineto
          -63 -85 rmoveto
          3 -2 rlineto
          -3 -2 vlineto
          -2 3 rlineto
          2 vlineto
          -79 61 rmoveto
          1 hlineto
          2 -1 1 -2 -3 vvcurveto
          -2 hlineto
          -3 4 rlineto
          27 -23 rmoveto
          1 1 0 3 vhcurveto
          2 -1 hlineto
          11 -454 rmoveto
          -3 -3 3 vlineto
          -52 566 rmoveto
          3 1 1 3 vhcurveto
          -2 vlineto
          -1 -1 -2 -1 -1 hhcurveto
          162 -13 rmoveto
          1 hlineto
          1 -3 hlineto
          -2 -1 -1 1 rlineto
          3 vlineto
          -172 -29 rmoveto
          1 -4 rlineto
          -1 vlineto
          -1 -1 rlineto
          -1 0 1 3 hvcurveto
          -24 -359 rmoveto
          -3 -1 3 vlineto
          127 451 rmoveto
          1 1 1 3 1 vhcurveto
          1 hlineto
          -61 -26 rmoveto
          -1 vlineto
          -2 -1 rlineto
          -1 2 hlineto
          -23 -11 rmoveto
          1 0 0 1 1 vhcurveto
          -1 0 -1 -1 vhcurveto
          2 -49 rmoveto
          1 hlineto
          -2 -1 rlineto
          289 -560 rmoveto
          -1 vlineto
          1 1 rlineto
          endchar
        </CharString>
        <CharString name="Atilde">
          41 310 665 rmoveto
          -9 -1 -17 -7 -27 -13 rrcurveto
          -13 -8 -5 -6 -2 hhcurveto
          -9 -26 -10 -24 -12 -22 -46 -135 rcurveline
          1 -7 rlineto
          -8 -7 -4 -7 -7 vvcurveto
          3 -3 rlineto
          -4 -4 -4 -7 -5 vhcurveto
          3 -10 rlineto
          -2 vlineto
          -12 -14 -6 -10 -6 vvcurveto
          -19 -47 -52 -144 -4 -19 -5 -16 -7 -13 rlinecurve
          2 1 -2 -4 hvcurveto
          -4 vlineto
          -5 -4 -8 -8 -11 vhcurveto
          -1 hlineto
          -1 1 4 12 -4 4 rlineto
          -7 -3 -3 -6 hvcurveto
          -15 vlineto
          -1 -3 rlineto
          -12 -6 -6 -5 -4 vvcurveto
          5 -9 3 -6 -3 vvcurveto
          -1 vlineto
          -4 -13 rlineto
          -3 8 -2 17 -1 vhcurveto
          101 51 4 7 hvcurveto
          17 13 9 9 5 vvcurveto
          1 vlineto
          19 -17 -20 9 -23 hhcurveto
          -20 hlineto
          -5 -3 1 3 -3 hvcurveto
          15 50 9 27 3 3 rrcurveto
          22 hlineto
          93 9 81 7 69 5 rrcurveto
          1 hlineto
          27 -37 14 -34 -30 vvcurveto
          -4 vlineto
          -1 -2 rlineto
          -25 -12 -4 -8 hvcurveto
          10 -21 rlineto
          -4 vlineto
          -8 -8 rlineto
          -17 21 18 -8 13 hhcurveto
          62 6 rlineto
          10 hlineto
          13 -4 rlineto
          8 1 4 2 2 vvcurveto
          3 vlineto
          -12 1 -6 2 1 vvcurveto
          4 1 3 2 7 hhcurveto
          2 hlineto
          3 5 -3 -5 5 hvcurveto
          4 hlineto
          7 7 3 7 7 vvcurveto
          -1 17 6 12 -1 2 -5 2 -7 1 rlinecurve
          -1 hlineto
          -20 hlineto
          -10 1 -8 3 -7 5 2 11 rcurveline
          -5 25 -19 41 -1 4 -2 4 -1 5 rlinecurve
          1 10 hlineto
          -1 -1 0 -1 -2 hvcurveto
          -23 78 -19 73 -15 69 -32 114 rcurveline
          -48 143 rlineto
          9 -20 8 -39 5 vhcurveto
          -144 -445 rmoveto
          13 57 12 39 11 21 18 29 34 63 49 98 rrcurveto
          1 11 0 7 3 vvcurveto
          4 -3 4 -5 4 -9 5 -12 8 -22 9 -32 63 -190 rcurveline
          9 6 -12 -24 3 hvcurveto
          -1 vlineto
          -3 -4 rlineto
          -41 hlineto
          -50 -69 -7 -14 -87 hvcurveto
          -3 2 rlineto
          380 -187 rmoveto
          5 5 5 3 6 hhcurveto
          5 -4 rlineto
          -4 -7 -2 -13 vhcurveto
          -1 hlineto
          -246 541 rmoveto
          5 2 4 5 3 vhcurveto
          3 -4 hlineto
          -5 -3 -3 -6 vhcurveto
          29 83 rmoveto
          5 2 -2 -3 1 hvcurveto
          -1 vlineto
          -2 -2 rlineto
          -8 hlineto
          -3 3 rlineto
          5 vlineto
          17 -432 rmoveto
          15 -2 hlineto
          -3 -1 -3 -1 -6 hhcurveto
          -5 hlineto
          -2 2 rlineto
          159 -80 rmoveto
          -2 vlineto
          -29 -2 rlineto
          4 vlineto
          -357 5 rmoveto
          3 -1 rlineto
          -7 vlineto
          -3 -3 rlineto
          -2 hlineto
          -1 5 1 6 rlineto
          351 -142 rmoveto
          3 1 3 2 5 hhcurveto
          2 -3 rlineto
          -3 -1 -2 -1 -4 hhcurveto
          -4 hlineto
          -388 137 rmoveto
          2 -2 rlineto
          -5 -1 -3 -2 -5 hhcurveto
          3 vlineto
          337 125 rmoveto
          2 -7 3 3 rlineto
          8 vlineto
          -1 1 rlineto
          -222 116 rmoveto
          -2 vlineto
          -4 -1 4 -2 13 vhcurveto
          -1 3 hlineto
          1 6 rlineto
          334 -315 rmoveto
          3 -3 rlineto
          -7 -1 vlineto
          -3 3 rlineto
          7 vlineto
          -449 -10 rmoveto
          2 -4 -2 -3 rlineto
          -1 hlineto
          -3 3 rlineto
          3 vlineto
          241 550 rmoveto
          3 -2 rlineto
          -3 -2 vlineto
          -2 3 rlineto
          2 vlineto
          -36 -418 rmoveto
          -3 -3 3 vlineto
          -88 163 rmoveto
          -3 -1 3 vlineto
          228 449 rmoveto
          -6 1 -7 -2 -8 -4 rrcurveto
          6 -5 3 -2 0 vvcurveto
          -8 vlineto
          -9 -4 -6 -8 -4 vhcurveto
          -7 -4 -9 -3 -12 -2 rrcurveto
          -7 -9 4 9 -11 hvcurveto
          -3 10 -5 8 -7 6 -16 20 rcurveline
          -11 10 rlineto
          3 -9 -7 2 -4 hhcurveto
          -6 hlineto
          -14 hlineto
          -3 -4 -1 -3 -5 hvcurveto
          -3 -6 -5 -9 -10 hvcurveto
          -6 -7 -5 -5 -4 -1 -2 -4 rcurveline
          -5 4 -12 8 -20 vhcurveto
          8 5 6 4 3 1 rrcurveto
          -1 0 0 1 vhcurveto
          1 1 rlineto
          2 0 0 1 -1 hvcurveto
          3 hlineto
          -1 7 rlineto
          9 2 5 4 2 vhcurveto
          2 4 5 1 7 hhcurveto
          13 1 11 -5 9 -9 rrcurveto
          3 -2 2 -5 -7 vvcurveto
          3 1 3 -4 3 -7 rrcurveto
          3 -1 1 -4 -5 vvcurveto
          3 -5 10 -8 15 -9 3 -1 rcurveline
          1 hlineto
          0 0 1 1 vvcurveto
          -2 7 5 -1 1 hhcurveto
          23 1 14 3 5 5 7 3 6 4 6 7 rrcurveto
          11 9 5 8 9 vvcurveto
          8 vlineto
          13 -3 -3 7 -1 hhcurveto
          -3 2 -4 2 -4 1 rrcurveto
          1 -2 vlineto
          -95 -52 rmoveto
          1 10 rlineto
          1 4 -8 -15 6 hvcurveto
          5 -3 3 -2 -1 -2 -1 -1 rcurveline
          -7 4 -6 6 -5 9 rrcurveto
          24 5 rmoveto
          3 2 -1 -3 3 hvcurveto
          1 -12 rlineto
          -3 hlineto
          -3 -3 5 11 -3 hvcurveto
          -36 24 rmoveto
          1 3 -6 -11 4 hvcurveto
          -4 vlineto
          -6 5 -3 6 -1 7 rrcurveto
          107 -21 rmoveto
          1 0 0 -1 hvcurveto
          1 -9 -4 -6 -8 -3 rrcurveto
          1 vlineto
          -168 39 rmoveto
          1 -1 0 -1 -1 vvcurveto
          -2 -1 -2 -2 -2 vhcurveto
          -7 13 rlineto
          3 vlineto
          3 3 -3 6 -7 vhcurveto
          196 10 rmoveto
          1 -3 1 -3 -4 vvcurveto
          -11 -1 vlineto
          -1 -1 6 11 hvcurveto
          3 -1 1 1 1 hhcurveto
          -214 8 rmoveto
          1 0 -1 -2 -5 0 -3 -1 hvcurveto
          -2 hlineto
          -2 -1 3 5 1 1 1 2 1 hvcurveto
          32 17 rmoveto
          -2 vlineto
          -1 -5 0 -4 -1 -2 -4 7 0 5 5 1 rrcurveto
          41 -3 rmoveto
          1 hlineto
          1 -1 3 -15 rlineto
          -1 hlineto
          -1 -1 5 10 -2 hvcurveto
          13 -14 rmoveto
          3 -1 3 -4 2 -5 rrcurveto
          -1 hlineto
          -1 -3 3 7 -4 hvcurveto
          -8 20 rmoveto
          5 -1 3 -1 -1 vvcurveto
          -1 -1 vlineto
          -1 hlineto
          -5 1 -2 1 2 vvcurveto
          -36 10 rmoveto
          4 3 0 -1 3 hvcurveto
          -1 -11 2 vlineto
          177 -61 rmoveto
          1 -1 hlineto
          -4 0 -2 -1 vhcurveto
          -2 1 rlineto
          6 vlineto
          -27 -3 rmoveto
          -1 vlineto
          -6 -3 rlineto
          -1 hlineto
          1 1 1 2 2 1 rrcurveto
          -21 -30 rmoveto
          2 hlineto
          1 -1 rlineto
          -1 -1 -2 -1 -3 hhcurveto
          1 vlineto
          -54 49 rmoveto
          2 -3 1 -3 rlineto
          -2 hlineto
          -1 3 -1 2 1 vvcurveto
          -22 14 rmoveto
          1 -2 rlineto
          -1 -1 vlineto
          -2 -1 1 2 hvcurveto
          15 11 rmoveto
          2 2 -1 -2 1 hvcurveto
          -1 hlineto
          -1 -1 1 2 -2 hvcurveto
          120 -10 rmoveto
          2 -3 -1 hlineto
          -1 -1 1 2 hvcurveto
          -183 29 rmoveto
          2 1 rlineto
          1 hlineto
          2 -1 -4 -1 rlineto
          -1 hlineto
          44 -1 rmoveto
          1 -1 -1 hlineto
          -1 1 rlineto
          85 -66 rmoveto
          3 -1 -1 hlineto
          -2 hlineto
          51 39 rmoveto
          -2 vlineto
          1 vlineto
          -166 27 rmoveto
          1 hlineto
          -1 -1 rlineto
          -1 1 hlineto
          -16 -23 rmoveto
          3 hlineto
          -1 -1 0 0 -1 hhcurveto
          20 vmoveto
          2 hlineto
          -1 hlineto
          -2 hlineto
          endchar
        </CharString>
        <CharString name="B">
          5 50 632 rmoveto
          -20 -2 -10 -2 -1 vvcurveto
          -12 -11 -7 -14 -10 hvcurveto
          5 -13 4 -13 2 -13 rrcurveto
          -39 2 4 -20 6 hhcurveto
          11 -1 6 -2 2 -3 16 1 rcurveline
          2 vlineto
          9 20 5 11 2 vvcurveto
          -1 8 rlineto
          2 vlineto
          3 1 3 2 5 hhcurveto
          7 hlineto
          4 10 -3 -6 15 hvcurveto
          -102 vlineto
          -109 3 3 -54 4 hhcurveto
          6 4 -24 -48 1 hvcurveto
          -5 -11 -3 -9 -9 vvcurveto
          3 -8 2 -15 1 -22 rrcurveto
          -56 5 5 -28 4 hhcurveto
          -1 vlineto
          -3 -15 -3 -29 -3 vhcurveto
          -40 -11 -20 -8 -6 vvcurveto
          -37 5 -18 11 vhcurveto
          12 25 28 6 31 hhcurveto
          1 -5 rlineto
          -2 vlineto
          130 86 10 19 42 hvcurveto
          31 7 20 8 10 9 rrcurveto
          1 vlineto
          -7 -16 -10 -3 -3 hhcurveto
          -3 2 hlineto
          11 17 14 5 12 hhcurveto
          5 1 2 3 1 hhcurveto
          2 1 -2 -4 hvcurveto
          4 2 2 3 1 hvcurveto
          1 vlineto
          -5 1 -3 1 2 vvcurveto
          2 vlineto
          12 9 8 6 9 hhcurveto
          15 3 7 5 9 vvcurveto
          9 20 5 13 7 vvcurveto
          9 vlineto
          -7 13 -4 8 5 vvcurveto
          1 vlineto
          5 2 3 7 hvcurveto
          -1 11 -4 34 -14 29 -24 24 rlinecurve
          -18 24 -13 16 -8 8 -15 6 -10 5 -7 5 rrcurveto
          -13 5 -6 5 6 vvcurveto
          22 16 22 20 22 23 11 39 7 28 3 15 rrcurveto
          31 -25 38 -49 43 vhcurveto
          -11 9 -21 6 -30 4 -48 15 rcurveline
          -119 -78 -1 -3 -38 hvcurveto
          81 -29 rmoveto
          2 5 21 4 39 2 rrcurveto
          4 -1 2 -1 -1 vvcurveto
          -1 vlineto
          -5 -13 -3 -25 vhcurveto
          -28 hlineto
          -47 4 rmoveto
          3 5 1 10 1 vhcurveto
          15 -1 8 -2 -4 vvcurveto
          -4 -3 -3 -2 -4 hhcurveto
          -2 hlineto
          114 13 rmoveto
          -3 -5 3 vlineto
          167 -24 rmoveto
          5 hlineto
          4 -5 rlineto
          -1 vlineto
          -2 -3 rlineto
          -6 hlineto
          -4 5 rlineto
          1 vlineto
          -236 -11 rmoveto
          3 20 3 40 2 vhcurveto
          2 -2 -3 -5 -19 -4 -33 -3 rlinecurve
          -4 hlineto
          -3 4 rlineto
          7 -25 rmoveto
          9 49 6 97 5 vhcurveto
          27 -1 17 -2 5 -1 rrcurveto
          23 -15 12 -16 -18 vvcurveto
          -7 4 -21 7 -36 vhcurveto
          -6 vlineto
          -14 -24 -26 -48 -37 vhcurveto
          -6 -20 -5 -40 -5 vhcurveto
          -91 -21 rlineto
          -1 hlineto
          -3 2 rlineto
          -4 -5 72 143 -5 hvcurveto
          232 11 rmoveto
          9 7 -24 -49 6 hvcurveto
          -9 -2 vlineto
          -3 5 -3 11 -5 18 rrcurveto
          19 -6 15 -12 11 vhcurveto
          3 vlineto
          64 -22 rmoveto
          5 -4 rlineto
          -3 -3 vlineto
          -5 4 rlineto
          3 vlineto
          -15 -23 rmoveto
          4 hlineto
          3 -2 -6 -5 rlineto
          -3 hlineto
          -1 4 rlineto
          10 -23 rmoveto
          -5 vlineto
          -2 -1 -2 2 rlineto
          5 vlineto
          1 1 rlineto
          -325 -27 rmoveto
          3 -1 1 -3 -4 vvcurveto
          -4 vlineto
          -3 -2 rlineto
          -1 hlineto
          -3 2 rlineto
          9 vlineto
          271 -88 rmoveto
          1 -2 hlineto
          -2 -2 rlineto
          -3 hlineto
          -141 -40 rmoveto
          3 6 20 4 37 1 rrcurveto
          5 -1 hlineto
          -5 -21 -3 -41 -3 vhcurveto
          1 vlineto
          103 1 rmoveto
          4 7 2 13 vhcurveto
          11 hlineto
          14 9 -5 -9 4 hvcurveto
          -3 -1 -1 -2 vhcurveto
          7 -23 -18 3 -13 hhcurveto
          -1 hlineto
          71 -13 rmoveto
          15 -3 7 -5 -6 vvcurveto
          -1 vlineto
          -7 -7 5 9 -8 hvcurveto
          -173 -21 rmoveto
          10 9 23 5 35 hhcurveto
          18 hlineto
          20 10 -2 -3 hvcurveto
          -2 vlineto
          -7 -1 rlineto
          -12 hlineto
          -35 -1 -18 -4 -19 -3 -20 -1 rlinecurve
          -3 -1 1 1 hvcurveto
          -10 4 rmoveto
          -2 -4 2 vlineto
          156 hmoveto
          -4 -2 4 vlineto
          -203 -14 rmoveto
          4 11 8 2 6 hhcurveto
          3 hlineto
          -3 -8 -3 -17 -2 vhcurveto
          -3 hlineto
          -2 -13 rmoveto
          13 34 40 7 47 hhcurveto
          5 hlineto
          19 24 -5 -10 31 hvcurveto
          2 2 hlineto
          -5 6 rlineto
          1 1 vlineto
          9 8 -3 -7 5 hvcurveto
          -2 vlineto
          -5 -2 -1 -3 -1 2 -1 4 -1 hvcurveto
          8 hlineto
          11 15 -10 -20 19 hvcurveto
          18 -34 9 -32 -30 vvcurveto
          -3 vlineto
          -7 -1 -1 -3 -3 hhcurveto
          -10 -13 -17 -25 -25 vhcurveto
          -53 -29 -44 -15 -35 -2 -89 4 rcurveline
          -13 -8 6 11 -3 hvcurveto
          -7 15 -5 64 -3 115 1 22 rcurveline
          269 17 rmoveto
          1 hlineto
          14 -10 8 -10 2 -9 rrcurveto
          -4 -3 vlineto
          -14 11 -8 10 -3 10 rrcurveto
          -9 -233 rmoveto
          5 7 4 15 5 vhcurveto
          1 -1 hlineto
          -10 -5 -7 -5 -8 hhcurveto
          -1 hlineto
          -286 10 rmoveto
          1 -2 rlineto
          -3 vlineto
          -4 -2 1 3 -1 hvcurveto
          1 vlineto
          263 -20 rmoveto
          3 6 3 11 2 vhcurveto
          -3 vlineto
          -6 -4 -4 -3 -5 hhcurveto
          -4 hlineto
          -284 -13 rmoveto
          5 hlineto
          6 -5 -6 hlineto
          -5 hlineto
          -7 5 hlineto
          101 -10 rmoveto
          3 -2 rlineto
          -5 hlineto
          -137 -2 rmoveto
          7 hlineto
          2 -1 -4 -5 rlineto
          -5 -2 2 3 -1 hvcurveto
          endchar
        </CharString>
        <CharString name="C">
          46 290 661 rmoveto
          -20 -35 -11 -23 -51 hvcurveto
          -25 -11 -19 -11 -14 -13 -31 -20 -24 -21 -19 -22 -3 -15 -2 -7 -3 -1 rrcurveto
          -19 -2 -2 -10 -1 hhcurveto
          -18 -43 -9 -30 -16 vvcurveto
          -73 1 1 -36 2 hhcurveto
          15 -3 8 -6 -9 vvcurveto
          -4 vlineto
          -4 -3 rlineto
          -4 5 hlineto
          -2 9 rlineto
          -7 -5 -3 -7 -1 hvcurveto
          -13 3 -18 6 -24 vhcurveto
          -36 23 -52 47 -68 vhcurveto
          19 -29 23 -19 28 -7 rrcurveto
          -14 34 25 -7 15 hhcurveto
          13 4 rlineto
          6 hlineto
          12 -2 60 -18 rlineto
          12 32 11 22 53 hvcurveto
          18 11 15 9 12 5 1 -1 rcurveline
          7 -21 9 -16 9 -12 rrcurveto
          2 hlineto
          66 32 rlineto
          2 vlineto
          -11 2 -6 2 1 vvcurveto
          2 vlineto
          5 8 -1 7 rlineto
          3 vlineto
          9 23 4 28 33 vvcurveto
          14 -3 23 -7 32 vhcurveto
          9 -3 5 -5 vhcurveto
          -17 hlineto
          -24 4 rlineto
          -3 hlineto
          -3 -2 -2 -2 -3 vvcurveto
          -8 -5 -4 -3 -3 vvcurveto
          1 -27 rlineto
          -3 vlineto
          -11 -11 -15 -23 -18 vhcurveto
          -29 -23 -17 -19 -7 -14 rrcurveto
          -15 -24 -22 -7 -19 hhcurveto
          -16 hlineto
          -39 -43 12 25 -45 hvcurveto
          -35 31 -30 51 -27 73 rrcurveto
          -15 28 -8 46 64 vvcurveto
          36 8 37 17 39 vhcurveto
          9 23 14 19 18 13 45 29 29 23 14 15 rrcurveto
          2 vlineto
          -10 -5 -20 -14 -29 -24 rrcurveto
          -4 2 hlineto
          2 8 31 28 21 14 12 1 rlinecurve
          7 -7 39 4 29 -3 49 -8 30 -10 11 -13 rlinecurve
          11 -9 10 -26 11 -43 rrcurveto
          15 -27 8 -19 -11 vvcurveto
          4 hlineto
          3 4 2 3 6 hvcurveto
          29 15 5 10 hvcurveto
          1 vlineto
          -3 4 1 3 rlineto
          7 7 3 26 43 vvcurveto
          94 vlineto
          5 -2 2 -5 vhcurveto
          13 -21 -12 7 -3 hhcurveto
          -11 -7 -1 -2 -3 hvcurveto
          10 -9 5 -8 -7 vvcurveto
          -3 -2 vlineto
          -3 4 -4 3 -4 1 rrcurveto
          -5 -1 -2 -2 -2 vvcurveto
          5 -15 rlineto
          -2 vlineto
          -5 -3 -3 -5 -3 vhcurveto
          -6 hlineto
          -5 -13 10 19 -21 hvcurveto
          23 -39 -36 12 -33 hhcurveto
          -43 -22 rmoveto
          3 1 3 1 7 hhcurveto
          1 hlineto
          3 -1 rlineto
          -3 -4 -2 -9 -1 vhcurveto
          -2 hlineto
          66 7 rmoveto
          13 6 -1 -2 hvcurveto
          -2 -3 rlineto
          -2 hlineto
          -16 3 rlineto
          3 vlineto
          -151 -36 rmoveto
          9 9 12 7 16 3 rrcurveto
          1 hlineto
          2 -1 rlineto
          -1 vlineto
          -13 -9 -13 -7 -13 -3 rrcurveto
          -1 hlineto
          146 11 rmoveto
          6 3 3 7 6 9 -3 -5 12 vhcurveto
          -7 8 7 -3 6 hhcurveto
          -2 vlineto
          -3 -4 rlineto
          -7 hlineto
          -5 4 rlineto
          -29 5 -14 4 2 vvcurveto
          119 -29 rmoveto
          5 6 -3 -7 6 hvcurveto
          -1 vlineto
          -4 -3 rlineto
          -1 hlineto
          -5 -5 4 8 -5 hvcurveto
          2 vlineto
          -272 -21 rmoveto
          3 2 2 2 3 hhcurveto
          2 hlineto
          -1 -2 -2 -2 -3 -1 rrcurveto
          -14 -13 rmoveto
          5 3 2 5 vhcurveto
          -4 vlineto
          -4 -3 rlineto
          294 3 rmoveto
          1 hlineto
          4 -3 -4 -4 -3 2 rlineto
          2 vlineto
          -363 -24 rmoveto
          8 2 4 4 7 hhcurveto
          4 -3 hlineto
          -6 -3 -6 -3 -8 hhcurveto
          399 -38 rmoveto
          3 hlineto
          1 -3 -3 -3 -3 1 rlineto
          3 vlineto
          -14 -22 rmoveto
          5 3 4 5 5 vhcurveto
          4 hlineto
          3 -2 1 -2 1 -2 rrcurveto
          -3 -6 -4 -11 -3 vhcurveto
          4 -14 rmoveto
          6 hlineto
          2 -3 rlineto
          -1 vlineto
          -3 -1 -3 -2 -4 hhcurveto
          -4 5 hlineto
          -399 -40 rmoveto
          4 1 3 3 2 vhcurveto
          4 -7 hlineto
          -5 -4 rlineto
          -3 hlineto
          -31 -8 rmoveto
          -14 vlineto
          -7 -1 -3 -3 vhcurveto
          -2 9 hlineto
          4 15 rlineto
          -2 -34 rmoveto
          2 -3 -2 -2 rlineto
          -4 5 hlineto
          31 -80 rmoveto
          26 2 13 3 vhcurveto
          1 hlineto
          5 -38 9 -38 13 -38 rrcurveto
          -5 -4 vlineto
          -2 2 -17 24 -9 20 -1 16 rlinecurve
          -19 51 rmoveto
          3 -1 1 -3 -6 vvcurveto
          -6 vlineto
          -3 -3 -3 4 rlineto
          9 vlineto
          1 6 rlineto
          -1 -74 rmoveto
          2 -3 rlineto
          -3 -1 vlineto
          -4 3 rlineto
          3 vlineto
          26 -40 rmoveto
          6 -6 rlineto
          -3 vlineto
          -3 -1 rlineto
          -1 hlineto
          -3 1 -2 2 5 vvcurveto
          2 -25 rmoveto
          15 -20 rlineto
          -3 -1 -1 -3 vhcurveto
          -1 hlineto
          -4 -4 7 15 -3 hvcurveto
          2 vlineto
          454 -26 rmoveto
          14 hlineto
          1 -1 rlineto
          -2 vlineto
          -3 -4 -1 -7 -1 vhcurveto
          -2 hlineto
          -5 5 rlineto
          2 vlineto
          14 -22 rmoveto
          5 3 3 5 2 vhcurveto
          3 1 -1 -2 hvcurveto
          -5 vlineto
          -5 -1 -4 -3 -3 vhcurveto
          -3 -3 2 4 -2 hvcurveto
          -11 1 rmoveto
          3 -1 2 -3 -5 vvcurveto
          -7 vlineto
          -3 -3 rlineto
          -1 hlineto
          -4 4 rlineto
          13 vlineto
          -397 -8 rmoveto
          5 -1 9 -9 13 -18 rrcurveto
          -4 vlineto
          -7 -9 10 21 -11 hvcurveto
          -33 -2 rmoveto
          2 hlineto
          3 -3 -3 -3 rlineto
          -2 hlineto
          -2 3 rlineto
          404 -8 rmoveto
          6 -2 hlineto
          -3 -3 rlineto
          -5 3 hlineto
          38 2 rmoveto
          -1 vlineto
          -1 -3 rlineto
          -3 4 hlineto
          -424 -5 rmoveto
          7 -4 3 -4 -5 vvcurveto
          -2 -5 vlineto
          -4 7 -2 4 3 vvcurveto
          1 vlineto
          384 -13 rmoveto
          1 2 2 3 1 vhcurveto
          2 -3 hlineto
          -6 -3 rlineto
          -1 hlineto
          -323 -3 rmoveto
          9 -3 8 -6 5 -7 -4 -3 rcurveline
          -2 hlineto
          -13 3 -6 6 8 vvcurveto
          374 hmoveto
          3 -2 rlineto
          -8 -1 vlineto
          -3 3 rlineto
          7 vlineto
          -412 -4 rmoveto
          9 -7 8 -7 6 -9 rrcurveto
          -7 -6 vlineto
          -9 5 -6 10 -5 15 rrcurveto
          78 -28 rmoveto
          11 7 -3 -5 3 hvcurveto
          -2 vlineto
          -18 4 -9 3 2 vvcurveto
          1 vlineto
          276 -13 rmoveto
          4 1 4 2 5 hhcurveto
          1 -1 hlineto
          -5 -3 -3 -2 -5 hhcurveto
          65 2 rmoveto
          2 hlineto
          3 -2 rlineto
          -4 vlineto
          -5 -1 -1 5 rlineto
          -359 -11 rmoveto
          9 hlineto
          9 6 -1 -2 2 hvcurveto
          23 -9 13 -6 1 -3 rrcurveto
          -1 vlineto
          -5 -2 rlineto
          -11 -6 1 3 hvcurveto
          -28 9 -14 5 -1 3 rrcurveto
          50 3 rmoveto
          13 24 -6 -12 35 hvcurveto
          -2 -2 rlineto
          -7 hlineto
          -26 -21 6 11 -17 hvcurveto
          2 vlineto
          82 -10 rmoveto
          3 11 1 22 vhcurveto
          15 hlineto
          17 8 -2 -3 hvcurveto
          -2 vlineto
          -5 -11 -3 -22 -2 vhcurveto
          -19 -13 4 9 -8 hvcurveto
          117 hmoveto
          3 hlineto
          1 -1 -2 -2 rlineto
          -4 hlineto
          118 -8 rmoveto
          19 -2 hlineto
          -3 -8 -2 -16 -3 vhcurveto
          -5 hlineto
          -5 4 rlineto
          4 vlineto
          -163 -15 rmoveto
          7 21 14 4 7 hhcurveto
          1 -3 hlineto
          -15 -27 -16 -7 -7 hhcurveto
          -6 hlineto
          -16 3 rlineto
          3 vlineto
          endchar
        </CharString>
        <CharString name="CR">
          endchar
        </CharString>
        <CharString name="Cacute">
          46 168 283 67 194 endchar
        </CharString>
        <CharString name="Ccaron">
          46 144 301 67 207 endchar
        </CharString>
        <CharString name="Ccedilla">
          46 290 661 rmoveto
          -20 -35 -11 -23 -51 hvcurveto
          -25 -11 -19 -11 -14 -13 -31 -20 -24 -21 -19 -22 -3 -15 -2 -7 -3 -1 rrcurveto
          -19 -2 -2 -10 -1 hhcurveto
          -18 -43 -9 -30 -16 vvcurveto
          -73 1 1 -36 2 hhcurveto
          15 -3 8 -6 -9 vvcurveto
          -4 vlineto
          -4 -3 rlineto
          -4 5 hlineto
          -2 9 rlineto
          -7 -5 -3 -7 -1 hvcurveto
          -13 3 -18 6 -24 vhcurveto
          -36 23 -52 47 -68 vhcurveto
          19 -29 23 -19 28 -7 38 -14 rcurveline
          -1 vlineto
          -3 -40 -5 -23 -5 -7 rrcurveto
          -37 3 1 -19 -1 hhcurveto
          -2 vlineto
          1 -2 12 1 rlineto
          10 37 26 5 16 hhcurveto
          2 hlineto
          11 11 -2 -5 10 hvcurveto
          19 -6 11 -5 4 -5 13 -9 -5 -18 -25 -29 -24 -29 -28 -13 -31 4 rrcurveto
          -4 -26 -3 -11 hhcurveto
          -2 hlineto
          -2 -5 2 4 -7 hvcurveto
          -3 -1 rlineto
          -12 -6 -4 -9 hvcurveto
          -10 -44 rlineto
          -1 1 vlineto
          26 -1 15 -1 4 -1 rrcurveto
          18 32 2 3 46 hvcurveto
          48 11 49 37 19 28 rrcurveto
          1 -1 vlineto
          -11 -11 -10 -9 -7 -9 rrcurveto
          -15 -18 -11 -8 -4 hhcurveto
          1 vlineto
          24 21 17 19 10 16 rrcurveto
          1 vlineto
          1 vlineto
          -5 -2 1 2 hvcurveto
          12 5 5 6 5 hhcurveto
          3 -2 -3 -2 -1 -2 -1 -3 rlinecurve
          1 -5 3 -3 4 -1 rrcurveto
          1 hlineto
          9 11 0 12 -7 13 rrcurveto
          19 vlineto
          13 -1 -1 7 -3 hhcurveto
          -8 3 -5 3 -1 2 rrcurveto
          2 3 1 5 vhcurveto
          2 -2 2 -3 1 vhcurveto
          -7 hlineto
          -3 -2 0 1 hvcurveto
          -5 1 -4 4 -3 7 rrcurveto
          2 2 vlineto
          14 -8 rlineto
          1 vlineto
          -8 7 -42 23 rlineto
          11 -10 -17 5 -24 hhcurveto
          -4 hlineto
          -33 -1 -16 -4 -7 vvcurveto
          -2 vlineto
          7 -5 rlineto
          -3 -6 -1 -11 vhcurveto
          -2 hlineto
          7 2 9 5 11 vhcurveto
          5 27 4 15 3 3 rrcurveto
          2 vlineto
          12 -2 60 -18 rlineto
          12 32 11 22 53 hvcurveto
          18 11 15 9 12 5 1 -1 rcurveline
          7 -21 9 -16 9 -12 rrcurveto
          2 hlineto
          66 32 rlineto
          2 vlineto
          -11 2 -6 2 1 vvcurveto
          2 vlineto
          5 8 -1 7 rlineto
          3 vlineto
          9 23 4 28 33 vvcurveto
          14 -3 23 -7 32 vhcurveto
          9 -3 5 -5 vhcurveto
          -17 hlineto
          -24 4 rlineto
          -3 hlineto
          -3 -2 -2 -2 -3 vvcurveto
          -8 -5 -4 -3 -3 vvcurveto
          1 -27 rlineto
          -3 vlineto
          -11 -11 -15 -23 -18 vhcurveto
          -29 -23 -17 -19 -7 -14 rrcurveto
          -15 -24 -22 -7 -19 hhcurveto
          -16 hlineto
          -39 -43 12 25 -45 hvcurveto
          -35 31 -30 51 -27 73 rrcurveto
          -15 28 -8 46 64 vvcurveto
          36 8 37 17 39 vhcurveto
          9 23 14 19 18 13 45 29 29 23 14 15 rrcurveto
          2 vlineto
          -10 -5 -20 -14 -29 -24 rrcurveto
          -4 2 hlineto
          2 8 31 28 21 14 12 1 rlinecurve
          7 -7 39 4 29 -3 49 -8 30 -10 11 -13 rlinecurve
          11 -9 10 -26 11 -43 rrcurveto
          15 -27 8 -19 -11 vvcurveto
          4 hlineto
          3 4 2 3 6 hvcurveto
          29 15 5 10 hvcurveto
          1 vlineto
          -3 4 1 3 rlineto
          7 7 3 26 43 vvcurveto
          94 vlineto
          5 -2 2 -5 vhcurveto
          13 -21 -12 7 -3 hhcurveto
          -11 -7 -1 -2 -3 hvcurveto
          10 -9 5 -8 -7 vvcurveto
          -3 -2 vlineto
          -3 4 -4 3 -4 1 rrcurveto
          -5 -1 -2 -2 -2 vvcurveto
          5 -15 rlineto
          -2 vlineto
          -5 -3 -3 -5 -3 vhcurveto
          -6 hlineto
          -5 -13 10 19 -21 hvcurveto
          23 -39 -36 12 -33 hhcurveto
          -241 -378 rmoveto
          26 2 13 3 vhcurveto
          1 hlineto
          5 -38 9 -38 13 -38 rrcurveto
          -5 -4 vlineto
          -2 2 -17 24 -9 20 -1 16 rlinecurve
          228 -260 rmoveto
          3 11 1 22 vhcurveto
          15 hlineto
          17 8 -2 -3 hvcurveto
          -2 vlineto
          -5 -11 -3 -22 -2 vhcurveto
          -19 -13 4 9 -8 hvcurveto
          -48 -306 rmoveto
          1 4 1 7 2 vhcurveto
          12 19 2 5 25 hvcurveto
          9 15 11 5 6 hhcurveto
          2 hlineto
          1 -1 rlineto
          -1 vlineto
          -3 -3 -2 -5 -3 vhcurveto
          -10 -19 -12 -5 -3 hhcurveto
          -1 -32 -19 -1 -7 hhcurveto
          -2 1 rlineto
          103 279 rmoveto
          7 21 14 4 7 hhcurveto
          1 -3 hlineto
          -15 -27 -16 -7 -7 hhcurveto
          -6 hlineto
          -16 3 rlineto
          3 vlineto
          -4 -70 rmoveto
          2 1 3 1 5 hhcurveto
          9 hlineto
          4 2 -1 -1 1 hvcurveto
          -3 vlineto
          -19 -8 -5 -9 -3 hhcurveto
          -4 hlineto
          -8 -2 10 20 5 hvcurveto
          8 717 rmoveto
          6 3 3 7 6 9 -3 -5 12 vhcurveto
          -7 8 7 -3 6 hhcurveto
          -2 vlineto
          -3 -4 rlineto
          -7 hlineto
          -5 4 rlineto
          -29 5 -14 4 2 vvcurveto
          -159 -600 rmoveto
          9 hlineto
          9 6 -1 -2 2 hvcurveto
          11 -5 9 -4 7 -2 1 -3 rcurveline
          -1 -1 vlineto
          -2 -2 -2 -3 -1 hvcurveto
          -5 1 -2 1 1 vvcurveto
          -28 9 -14 5 -1 3 rrcurveto
          102 -15 rmoveto
          3 -2 -5 1 -9 hhcurveto
          -13 hlineto
          -9 3 -8 3 -7 5 rrcurveto
          2 vlineto
          1 1 rlineto
          13 24 -6 -12 35 hvcurveto
          -2 -2 rlineto
          -7 hlineto
          -3 -4 0 1 -4 hvcurveto
          -150 73 rmoveto
          9 -7 8 -7 6 -9 rrcurveto
          -7 -6 vlineto
          -9 5 -6 10 -5 15 rrcurveto
          66 537 rmoveto
          9 9 12 7 16 3 rrcurveto
          1 hlineto
          2 -1 rlineto
          -1 vlineto
          -13 -9 -13 -7 -13 -3 rrcurveto
          -1 hlineto
          48 -631 rmoveto
          -2 8 7 -1 6 hhcurveto
          -2 vlineto
          -5 -1 -3 -1 -2 vhcurveto
          -19 hlineto
          -106 154 rmoveto
          5 -1 9 -9 13 -18 rrcurveto
          -4 vlineto
          -7 -9 10 21 -11 hvcurveto
          37 -36 rmoveto
          9 -3 8 -6 5 -7 -4 -3 rcurveline
          -2 hlineto
          -13 3 -6 6 8 vvcurveto
          373 -80 rmoveto
          19 -2 hlineto
          -3 -8 -2 -16 -3 vhcurveto
          -5 hlineto
          -5 4 rlineto
          4 vlineto
          19 134 rmoveto
          5 3 3 5 2 vhcurveto
          3 1 -1 -2 hvcurveto
          -5 vlineto
          -5 -1 -4 -3 -3 vhcurveto
          -3 -3 2 4 -2 hvcurveto
          -58 345 rmoveto
          5 3 4 5 5 vhcurveto
          4 hlineto
          3 -2 1 -2 1 -2 rrcurveto
          -3 -6 -4 -11 -3 vhcurveto
          -161 -555 rmoveto
          15 4 rlineto
          18 9 -1 -2 -1 -8 -1 -15 hvcurveto
          -19 hlineto
          131 678 rmoveto
          5 6 -3 -7 6 hvcurveto
          -1 vlineto
          -4 -3 rlineto
          -1 hlineto
          -5 -5 4 8 -5 hvcurveto
          2 vlineto
          -250 -545 rmoveto
          11 7 -3 -5 3 hvcurveto
          -2 vlineto
          -18 4 -9 3 2 vvcurveto
          1 vlineto
          -117 133 rmoveto
          15 -20 rlineto
          -3 -1 -1 -3 vhcurveto
          -1 hlineto
          -4 -4 7 15 -3 hvcurveto
          2 vlineto
          144 -479 rmoveto
          2 10 2 20 3 vhcurveto
          4 hlineto
          -3 -2 -1 -5 -1 vhcurveto
          -8 hlineto
          -1 -7 -5 -1 -4 hhcurveto
          -2 hlineto
          309 453 rmoveto
          14 hlineto
          1 -1 rlineto
          -2 vlineto
          -3 -4 -1 -7 -1 vhcurveto
          -2 hlineto
          -5 5 rlineto
          2 vlineto
          -427 381 rmoveto
          8 2 4 4 7 hhcurveto
          4 -3 hlineto
          -6 -3 -6 -3 -8 hhcurveto
          430 -406 rmoveto
          3 -1 2 -3 -5 vvcurveto
          -7 vlineto
          -3 -3 rlineto
          -1 hlineto
          -4 4 rlineto
          13 vlineto
          -474 276 rmoveto
          -14 vlineto
          -7 -1 -3 -3 vhcurveto
          -2 9 hlineto
          4 15 rlineto
          6 -81 rmoveto
          3 -1 1 -3 -6 vvcurveto
          -6 vlineto
          -3 -3 -3 4 rlineto
          9 vlineto
          1 6 rlineto
          284 327 rmoveto
          13 6 -1 -2 hvcurveto
          -2 -3 rlineto
          -2 hlineto
          -16 3 rlineto
          3 vlineto
          148 -192 rmoveto
          6 hlineto
          2 -3 rlineto
          -1 vlineto
          -3 -1 -3 -2 -4 hhcurveto
          -4 5 hlineto
          -376 -353 rmoveto
          7 -4 3 -4 -5 vvcurveto
          -2 -5 vlineto
          -4 7 -2 4 3 vvcurveto
          1 vlineto
          168 545 rmoveto
          3 1 3 1 7 hhcurveto
          1 hlineto
          3 -1 rlineto
          -3 -4 -2 -9 -1 vhcurveto
          -2 hlineto
          -50 -770 rmoveto
          1 hlineto
          4 -2 2 -3 -3 vvcurveto
          -1 -8 vlineto
          -2 2 rlineto
          5 vlineto
          -137 543 rmoveto
          4 1 3 3 2 vhcurveto
          4 -7 hlineto
          -5 -4 rlineto
          -3 hlineto
          -6 -203 rmoveto
          6 -6 rlineto
          -3 vlineto
          -3 -1 rlineto
          -1 hlineto
          -3 1 -2 2 5 vvcurveto
          395 -171 rmoveto
          4 1 4 2 5 hhcurveto
          1 -1 hlineto
          -5 -3 -3 -2 -5 hhcurveto
          -176 -117 rmoveto
          1 1 1 2 vhcurveto
          13 -1 rlineto
          -2 vlineto
          -9 -1 rlineto
          -4 hlineto
          -3 1 rlineto
          -37 -41 rmoveto
          1 3 0 5 vhcurveto
          4 hlineto
          -3 -3 -2 -1 -3 hhcurveto
          -4 2 rlineto
          -90 686 rmoveto
          5 3 2 5 vhcurveto
          -4 vlineto
          -4 -3 rlineto
          328 -454 rmoveto
          6 -2 hlineto
          -3 -3 rlineto
          -5 3 hlineto
          41 -23 rmoveto
          3 -2 rlineto
          -8 -1 vlineto
          -3 3 rlineto
          7 vlineto
          -47 7 rmoveto
          1 2 2 3 1 vhcurveto
          2 -3 hlineto
          -6 -3 rlineto
          -1 hlineto
          45 -50 rmoveto
          2 hlineto
          3 -2 rlineto
          -4 vlineto
          -5 -1 -1 5 rlineto
          -329 -324 rmoveto
          8 hlineto
          2 -1 rlineto
          -1 -1 -2 -1 -4 hhcurveto
          -3 -1 1 1 -1 hvcurveto
          296 789 rmoveto
          3 hlineto
          1 -3 -3 -3 -3 1 rlineto
          3 vlineto
          -32 67 rmoveto
          1 hlineto
          4 -3 -4 -4 -3 2 rlineto
          2 vlineto
          -285 13 rmoveto
          3 2 2 2 3 hhcurveto
          2 hlineto
          -1 -2 -2 -2 -3 -1 rrcurveto
          -132 -203 rmoveto
          2 -3 -2 -2 rlineto
          -4 5 hlineto
          10 -121 rmoveto
          2 -3 rlineto
          -3 -1 vlineto
          -4 3 rlineto
          3 vlineto
          207 -506 rmoveto
          4 -1 hlineto
          -4 -1 rlineto
          -8 1 hlineto
          100 130 rmoveto
          3 1 -1 -3 -1 0 0 0 hvcurveto
          -1 hlineto
          -4 2 rlineto
          3 vlineto
          -253 245 rmoveto
          2 hlineto
          3 -3 -3 -3 rlineto
          -2 hlineto
          -2 3 rlineto
          319 -239 rmoveto
          -3 -1 vlineto
          -3 3 -1 2 2 vvcurveto
          126 227 rmoveto
          -1 vlineto
          -1 -3 rlineto
          -3 4 hlineto
          -116 -270 rmoveto
          -5 vlineto
          -3 -2 rlineto
          2 vlineto
          1 5 rlineto
          8 176 rmoveto
          3 hlineto
          1 -1 -2 -2 rlineto
          -4 hlineto
          -4 -164 rmoveto
          3 -2 hlineto
          -1 -1 rlineto
          -4 1 hlineto
          -1 11 rmoveto
          -2 -2 vlineto
          -1 2 rlineto
          3 vlineto
          31 -77 rmoveto
          -1 vlineto
          3 -1 2 3 -2 1 rlineto
          -85 -64 rmoveto
          2 -1 hlineto
          -3 -2 rlineto
          -1 2 hlineto
          75 69 rmoveto
          3 hlineto
          2 1 rlineto
          1 -2 vlineto
          -25 74 rmoveto
          -1 -1 -3 1 rlineto
          3 vlineto
          -170 85 rmoveto
          -2 -2 2 vlineto
          170 -83 rmoveto
          1 1 rlineto
          -1 vlineto
          -13 -24 rmoveto
          2 vlineto
          endchar
        </CharString>
        <CharString name="Ccircumflex">
          46 135 294 67 195 endchar
        </CharString>
        <CharString name="Cdotaccent">
          46 236 294 67 199 endchar
        </CharString>
        <CharString name="D">
          103 177 709 rmoveto
          -40 -35 -4 -8 -31 hvcurveto
          -21 -14 -4 -7 -9 hvcurveto
          -7 -3 -14 -29 hvcurveto
          -47 vlineto
          3 -4 25 3 70 -3 5 1 rlineto
          4 0 2 1 vhcurveto
          34 hlineto
          11 6 -6 -13 hvcurveto
          -9 vlineto
          -9 -2 -15 -4 -21 vhcurveto
          -9 -107 -5 -111 -3 -116 1 -5 rcurveline
          7 3 -19 -37 -29 -1 -19 -2 -10 hvcurveto
          3 -14 rlineto
          -5 vlineto
          -4 -4 -44 11 rlineto
          -1 -4 -5 -1 -5 hhcurveto
          -4 hlineto
          -39 4 rlineto
          -4 -2 -2 -3 -1 hvcurveto
          -2 1 vlineto
          -3 -72 rlineto
          -12 3 -6 5 -1 vhcurveto
          1 2 vlineto
          11 3 2 5 2 hhcurveto
          4 hlineto
          -9 9 6 -5 3 hhcurveto
          3 4 6 1 7 hhcurveto
          23 19 -2 -4 13 hvcurveto
          63 -5 41 -4 17 -4 8 2 rcurveline
          12 7 24 4 36 3 31 7 25 12 19 17 41 24 40 29 39 35 rrcurveto
          7 11 14 29 13 hvcurveto
          -1 1 -5 -1 rlineto
          -25 -12 -11 -13 -10 hhcurveto
          -1 hlineto
          8 16 26 32 45 vhcurveto
          5 24 7 18 10 13 rrcurveto
          2 hlineto
          5 hlineto
          1 6 -4 64 rlineto
          27 -9 44 -17 61 vhcurveto
          -3 hlineto
          -5 -6 rlineto
          3 -3 2 -4 -3 vvcurveto
          -2 vlineto
          -4 -4 rlineto
          -5 -5 7 15 -7 hvcurveto
          -13 33 -11 27 -10 21 -41 50 rcurveline
          -20 13 -10 10 9 vvcurveto
          1 vlineto
          3 2 rlineto
          1 hlineto
          4 13 -7 -15 21 hvcurveto
          1 2 hlineto
          -2 3 -4 4 -5 5 -48 33 rcurveline
          -9 10 -31 19 -55 27 rrcurveto
          19 -55 -47 9 -39 hhcurveto
          -10 hlineto
          -5 2 -5 -2 rlineto
          8 -8 rmoveto
          2 -2 rlineto
          -3 -8 -2 -16 vhcurveto
          -22 hlineto
          -3 3 rlineto
          -50 -6 rmoveto
          3 10 2 19 1 vhcurveto
          3 7 -4 -7 9 hvcurveto
          -2 -4 rlineto
          -8 hlineto
          -25 3 -12 3 -1 3 rrcurveto
          154 -11 rmoveto
          5 hlineto
          7 7 -3 -6 6 hvcurveto
          -3 -2 rlineto
          -3 hlineto
          -2 -7 3 6 -12 hvcurveto
          -205 -8 rmoveto
          10 hlineto
          18 -6 rlineto
          -3 vlineto
          -13 1 rlineto
          -4 -4 -2 -4 -4 hvcurveto
          -3 hlineto
          -1 -1 3 5 -1 hvcurveto
          2 vlineto
          255 2 rmoveto
          -3 -4 3 vlineto
          47 -2 rmoveto
          13 -1 rlineto
          49 -20 24 -15 -9 vvcurveto
          -3 hlineto
          -11 9 -45 19 -26 11 -7 5 rlinecurve
          1 vlineto
          -163 -16 rmoveto
          4 8 2 16 1 vhcurveto
          3 hlineto
          5 5 -2 -3 6 hvcurveto
          33 4 rlineto
          3 hlineto
          7 -1 rlineto
          -3 vlineto
          -2 -7 -1 -13 -3 -5 -3 -7 -7 vhcurveto
          -34 -17 3 7 hvcurveto
          156 -2 rmoveto
          33 -7 16 -5 -5 vvcurveto
          -4 -5 rlineto
          -3 hlineto
          -27 11 -15 7 -3 3 rrcurveto
          1 vlineto
          -258 -4 rmoveto
          3 hlineto
          2 -3 -2 -3 rlineto
          -3 hlineto
          -3 3 rlineto
          331 -13 rmoveto
          10 -3 11 -8 13 -13 rrcurveto
          -1 vlineto
          -2 -2 rlineto
          -2 -1 -1 -1 hvcurveto
          -1 vlineto
          15 -5 7 -2 -1 vvcurveto
          -2 vlineto
          -10 2 -9 -4 rlineto
          -6 hlineto
          -7 3 -4 4 -1 3 2 3 rcurveline
          -21 10 -12 6 -1 2 rrcurveto
          4 vlineto
          7 4 2 5 hvcurveto
          -333 -6 rmoveto
          3 hlineto
          4 3 -2 -3 2 hvcurveto
          -1 -1 vlineto
          -14 3 rlineto
          25 -4 rmoveto
          2 1 3 1 6 hhcurveto
          6 -2 hlineto
          -3 -1 -2 -2 -4 hhcurveto
          -6 hlineto
          156 -29 rmoveto
          6 9 7 17 8 vhcurveto
          5 45 -17 -33 83 hvcurveto
          22 -9 23 -24 24 -37 42 -100 rcurveline
          8 -15 4 -40 -64 vvcurveto
          -9 vlineto
          -10 -59 -9 -38 -9 -15 -4 -15 -22 -25 -40 -35 rrcurveto
          -27 -49 -42 -13 -35 hhcurveto
          -55 6 -28 6 5 vvcurveto
          6 vlineto
          15 41 7 62 83 vvcurveto
          -4 144 rlineto
          27 1 18 2 9 vhcurveto
          -1 2 -7 -2 rlineto
          -3 -2 5 9 hvcurveto
          25 vlineto
          5 1 2 3 1 vhcurveto
          1 2 -6 -12 3 hvcurveto
          5 2 20 41 hvcurveto
          -58 72 rmoveto
          2 1 1 1 vhcurveto
          13 -3 hlineto
          -5 -6 rlineto
          -2 hlineto
          -5 -3 2 4 hvcurveto
          175 -1 rmoveto
          4 7 -3 -7 11 hvcurveto
          -5 vlineto
          -7 -7 4 9 -8 hvcurveto
          88 -18 rmoveto
          11 -3 5 -4 -5 vvcurveto
          -1 -3 vlineto
          -8 5 -4 4 -1 2 rrcurveto
          69 -13 rmoveto
          15 -22 8 -14 -7 vvcurveto
          -21 10 8 -10 7 hhcurveto
          2 3 hlineto
          5 -5 6 -9 9 vhcurveto
          -16 33 -12 17 -7 1 rrcurveto
          -63 -10 rmoveto
          3 2 3 2 4 hhcurveto
          4 hlineto
          1 7 -10 -19 12 hvcurveto
          -3 vlineto
          -2 -3 rlineto
          -3 hlineto
          -13 10 -10 8 -5 7 rrcurveto
          -275 -26 rmoveto
          22 1 1 11 3 hhcurveto
          2 hlineto
          3 -9 1 -12 -14 vvcurveto
          -15 -1 -8 -3 vhcurveto
          -2 hlineto
          -3 4 rlineto
          10 vlineto
          383 -29 rmoveto
          -27 7 6 -13 5 hhcurveto
          2 3 hlineto
          11 -6 13 -12 15 vhcurveto
          -2 hlineto
          -52 -5 rmoveto
          11 -17 10 -29 10 -39 rrcurveto
          -2 hlineto
          -15 17 -12 24 -7 32 rrcurveto
          12 vlineto
          -331 -7 rmoveto
          -5 vlineto
          -2 -10 rlineto
          -3 3 hlineto
          3 12 rlineto
          61 -15 rmoveto
          -5 3 vlineto
          2 3 rlineto
          3 -2 vlineto
          -72 -147 rmoveto
          87 3 44 5 vhcurveto
          5 -39 2 -31 -22 vvcurveto
          -8 -93 rlineto
          -4 hlineto
          -2 10 -1 14 18 vvcurveto
          410 99 rmoveto
          1 hlineto
          5 4 -8 -15 3 hvcurveto
          -7 vlineto
          -4 -2 -7 -4 -9 vhcurveto
          -4 hlineto
          -9 30 rlineto
          3 1 5 3 6 vhcurveto
          -1 2 rlineto
          2 vlineto
          -30 -71 rmoveto
          6 3 -13 -25 hvcurveto
          -19 vlineto
          -6 -1 -4 -3 -3 vhcurveto
          -19 -5 -5 -9 -5 hhcurveto
          -4 hlineto
          -2 1 rlineto
          3 vlineto
          7 23 3 23 23 vvcurveto
          19 vlineto
          2 6 rlineto
          78 -111 rmoveto
          -16 -34 -9 -22 -3 -10 rrcurveto
          2 hlineto
          4 3 rlineto
          17 34 8 20 5 vvcurveto
          -2 8 rlineto
          -1 hlineto
          -82 -50 rmoveto
          5 5 8 11 11 vhcurveto
          1 hlineto
          3 -1 2 -3 -7 vvcurveto
          -1 vlineto
          -9 -9 -6 -4 -5 hhcurveto
          -2 hlineto
          -311 hmoveto
          -18 vlineto
          -3 -3 rlineto
          -1 hlineto
          -1 6 rlineto
          2 vlineto
          1 13 rlineto
          271 -71 rmoveto
          15 31 20 21 25 12 rrcurveto
          -2 vlineto
          -3 -15 -18 -23 -35 -29 rrcurveto
          -4 hlineto
          -311 -7 rmoveto
          33 1 16 3 3 2 -16 -33 3 vhcurveto
          -5 -1 -3 -2 -5 hhcurveto
          -2 hlineto
          272 3 rmoveto
          6 3 3 3 3 hhcurveto
          3 1 0 -1 hvcurveto
          -4 vlineto
          -2 -3 -3 -3 -3 -1 rrcurveto
          -4 hlineto
          -8 2 rmoveto
          4 -3 hlineto
          -3 -3 rlineto
          -3 hlineto
          -2 3 rlineto
          -87 -66 rmoveto
          5 5 17 8 27 9 19 13 30 12 41 13 rrcurveto
          -1 vlineto
          -2 -2 rlineto
          -39 -61 -45 -20 -29 hhcurveto
          -2 hlineto
          -287 45 rmoveto
          5 hlineto
          13 6 -3 -7 hvcurveto
          -4 vlineto
          -3 -2 rlineto
          -11 hlineto
          -5 -3 -4 -7 hvcurveto
          -13 vlineto
          -4 -5 rlineto
          -2 hlineto
          -4 5 rlineto
          3 vlineto
          6 2 9 4 11 vhcurveto
          -2 7 rlineto
          56 -10 rmoveto
          5 3 -2 -3 1 hvcurveto
          -3 -2 rlineto
          -6 hlineto
          -3 3 rlineto
          2 vlineto
          15 -21 rmoveto
          9 31 -6 -12 55 hvcurveto
          -3 vlineto
          -3 -5 -1 -9 -1 vhcurveto
          -29 3 rlineto
          -35 10 -17 7 4 vvcurveto
          -50 2 rmoveto
          3 -2 hlineto
          -3 -4 -3 3 rlineto
          174 -8 rmoveto
          27 hlineto
          15 7 -2 -3 hvcurveto
          -2 vlineto
          -2 -1 rlineto
          -13 hlineto
          -25 1 -12 2 3 vvcurveto
          111 -3 rmoveto
          3 4 1 9 1 vhcurveto
          4 -1 hlineto
          -4 -4 rlineto
          -131 -5 rmoveto
          -2 -4 2 vlineto
          48 -16 rmoveto
          6 4 -1 -3 3 hvcurveto
          -6 -1 -5 -3 -9 hhcurveto
          -5 hlineto
          -6 -9 2 4 -12 hvcurveto
          3 vlineto
          endchar
        </CharString>
        <CharString name="Dcaron">
          103 160 365 68 207 endchar
        </CharString>
        <CharString name="Dcroat">
          103 177 709 rmoveto
          -40 -35 -4 -8 -31 hvcurveto
          -21 -14 -4 -7 -9 hvcurveto
          -7 -3 -14 -29 hvcurveto
          -47 vlineto
          3 -4 25 3 70 -3 5 1 rlineto
          4 0 2 1 vhcurveto
          34 hlineto
          11 6 -6 -13 hvcurveto
          -9 vlineto
          -9 -2 -15 -4 -21 vhcurveto
          -5 -53 -3 -55 -3 -55 -7 1 rcurveline
          -7 -3 -1 -1 hvcurveto
          -53 -6 -26 -9 -13 vvcurveto
          -47 12 -23 23 vhcurveto
          8 3 rlineto
          11 17 8 34 6 vhcurveto
          -1 -12 rlineto
          -29 -5 -14 -4 -4 vvcurveto
          -2 vlineto
          9 14 1 3 19 hvcurveto
          -2 -77 1 -5 rlineto
          7 3 -19 -37 -29 -1 -19 -2 -10 hvcurveto
          3 -14 rlineto
          -5 vlineto
          -4 -4 -44 11 rlineto
          -1 -4 -5 -1 -5 hhcurveto
          -4 hlineto
          -39 4 rlineto
          -4 -2 -2 -3 -1 hvcurveto
          -2 1 vlineto
          -3 -72 rlineto
          -12 3 -6 5 -1 vhcurveto
          1 2 vlineto
          11 3 2 5 2 hhcurveto
          4 hlineto
          -9 9 6 -5 3 hhcurveto
          3 4 6 1 7 hhcurveto
          23 19 -2 -4 13 hvcurveto
          63 -5 41 -4 17 -4 8 2 rcurveline
          12 7 24 4 36 3 31 7 25 12 19 17 41 24 40 29 39 35 rrcurveto
          7 11 14 29 13 hvcurveto
          -1 1 -5 -1 rlineto
          -25 -12 -11 -13 -10 hhcurveto
          -1 hlineto
          8 16 26 32 45 vhcurveto
          5 24 7 18 10 13 rrcurveto
          2 hlineto
          5 hlineto
          1 6 -4 64 rlineto
          27 -9 44 -17 61 vhcurveto
          -3 hlineto
          -5 -6 rlineto
          3 -3 2 -4 -3 vvcurveto
          -2 vlineto
          -4 -4 rlineto
          -5 -5 7 15 -7 hvcurveto
          -13 33 -11 27 -10 21 -41 50 rcurveline
          -20 13 -10 10 9 vvcurveto
          1 vlineto
          3 2 rlineto
          1 hlineto
          4 13 -7 -15 21 hvcurveto
          1 2 hlineto
          -2 3 -4 4 -5 5 -48 33 rcurveline
          -9 10 -31 19 -55 27 rrcurveto
          19 -55 -47 9 -39 hhcurveto
          -10 hlineto
          -5 2 -5 -2 rlineto
          149 -325 rmoveto
          -104 -15 rlineto
          11 vlineto
          27 1 18 2 9 vhcurveto
          -1 2 -7 -2 rlineto
          -3 -2 5 9 hvcurveto
          25 vlineto
          5 1 2 3 1 vhcurveto
          1 2 -6 -12 3 hvcurveto
          5 2 20 41 hvcurveto
          -4 57 rlineto
          6 9 7 17 8 vhcurveto
          5 45 -17 -33 83 hvcurveto
          22 -9 23 -24 24 -37 42 -100 rcurveline
          8 -15 4 -40 -64 vvcurveto
          -9 vlineto
          -10 -59 -9 -38 -9 -15 -4 -15 -22 -25 -40 -35 rrcurveto
          -27 -49 -42 -13 -35 hhcurveto
          -55 6 -28 6 5 vvcurveto
          6 vlineto
          15 41 7 62 83 vvcurveto
          -2 48 6 1 6 2 6 2 rlinecurve
          68 4 34 6 7 vvcurveto
          -1 hlineto
          52 -4 -4 26 -3 hhcurveto
          10 -377 rmoveto
          5 5 17 8 27 9 19 13 30 12 41 13 rrcurveto
          -1 vlineto
          -2 -2 rlineto
          -39 -61 -45 -20 -29 hhcurveto
          -2 hlineto
          188 317 rmoveto
          6 3 -13 -25 hvcurveto
          -19 vlineto
          -6 -1 -4 -3 -3 vhcurveto
          -19 -5 -5 -9 -5 hhcurveto
          -4 hlineto
          -2 1 rlineto
          3 vlineto
          7 23 3 23 23 vvcurveto
          19 vlineto
          2 6 rlineto
          -48 -229 rmoveto
          15 31 20 21 25 12 rrcurveto
          -2 vlineto
          -3 -15 -18 -23 -35 -29 rrcurveto
          -4 hlineto
          -94 539 rmoveto
          10 -3 11 -8 13 -13 rrcurveto
          -1 vlineto
          -2 -2 rlineto
          -2 -1 -1 -1 hvcurveto
          -1 vlineto
          15 -5 7 -2 -1 vvcurveto
          -2 vlineto
          -10 2 -9 -4 rlineto
          -6 hlineto
          -7 3 -4 4 -1 3 2 3 rcurveline
          -21 10 -12 6 -1 2 rrcurveto
          4 vlineto
          7 4 2 5 hvcurveto
          -258 -614 rmoveto
          9 31 -6 -12 55 hvcurveto
          -3 vlineto
          -3 -5 -1 -9 -1 vhcurveto
          -29 3 rlineto
          -35 10 -17 7 4 vvcurveto
          42 639 rmoveto
          4 8 2 16 1 vhcurveto
          3 hlineto
          5 5 -2 -3 6 hvcurveto
          33 4 rlineto
          3 hlineto
          7 -1 rlineto
          -3 vlineto
          -2 -7 -1 -13 -3 -5 -3 -7 -7 vhcurveto
          -34 -17 3 7 hvcurveto
          338 -173 rmoveto
          11 -17 10 -29 10 -39 rrcurveto
          -2 hlineto
          -15 17 -12 24 -7 32 rrcurveto
          12 vlineto
          -258 -172 rmoveto
          10 34 28 5 21 hhcurveto
          1 hlineto
          4 -2 2 -2 -3 vvcurveto
          -1 vlineto
          -3 -30 -3 -59 -3 vhcurveto
          -1 hlineto
          94 364 rmoveto
          13 -1 rlineto
          49 -20 24 -15 -9 vvcurveto
          -3 hlineto
          -11 9 -45 19 -26 11 -7 5 rlinecurve
          1 vlineto
          -163 -227 rmoveto
          4 -32 2 -26 1 -19 -5 -1 rcurveline
          -10 hlineto
          52 1 3 26 4 hhcurveto
          402 -44 rmoveto
          1 hlineto
          5 4 -8 -15 3 hvcurveto
          -7 vlineto
          -4 -2 -7 -4 -9 vhcurveto
          -4 hlineto
          -9 30 rlineto
          3 1 5 3 6 vhcurveto
          -1 2 rlineto
          2 vlineto
          -505 -343 rmoveto
          5 hlineto
          13 6 -3 -7 hvcurveto
          -4 vlineto
          -3 -2 rlineto
          -11 hlineto
          -5 -3 -4 -7 hvcurveto
          -13 vlineto
          -4 -5 rlineto
          -2 hlineto
          -4 5 rlineto
          3 vlineto
          6 2 9 4 11 vhcurveto
          -2 7 rlineto
          452 514 rmoveto
          15 -22 8 -14 -7 vvcurveto
          -21 10 8 -10 7 hhcurveto
          2 3 hlineto
          5 -5 6 -9 9 vhcurveto
          -16 33 -12 17 -7 1 rrcurveto
          -63 -10 rmoveto
          3 2 3 2 4 hhcurveto
          4 hlineto
          1 7 -10 -19 12 hvcurveto
          -3 vlineto
          -2 -3 rlineto
          -3 hlineto
          -13 10 -10 8 -5 7 rrcurveto
          -274 -464 rmoveto
          33 1 16 3 3 2 -16 -33 3 vhcurveto
          -5 -1 -3 -2 -5 hhcurveto
          -2 hlineto
          -80 617 rmoveto
          3 10 2 19 1 vhcurveto
          3 7 -4 -7 9 hvcurveto
          -2 -4 rlineto
          -8 hlineto
          -25 3 -12 3 -1 3 rrcurveto
          78 -172 rmoveto
          22 1 1 11 3 hhcurveto
          2 hlineto
          3 -9 1 -12 -14 vvcurveto
          -15 -1 -8 -3 vhcurveto
          -2 hlineto
          -3 4 rlineto
          10 vlineto
          149 139 rmoveto
          33 -7 16 -5 -5 vvcurveto
          -4 -5 rlineto
          -3 hlineto
          -27 11 -15 7 -3 3 rrcurveto
          1 vlineto
          -40 -671 rmoveto
          6 4 -1 -3 3 hvcurveto
          -6 -1 -5 -3 -9 hhcurveto
          -5 hlineto
          -6 -9 2 4 -12 hvcurveto
          3 vlineto
          28 364 rmoveto
          3 17 3 34 5 vhcurveto
          5 -1 rlineto
          -2 vlineto
          -1 -5 -12 -2 -22 -1 rrcurveto
          315 -125 rmoveto
          -16 -34 -9 -22 -3 -10 rrcurveto
          2 hlineto
          4 3 rlineto
          17 34 8 20 5 vvcurveto
          -2 8 rlineto
          -1 hlineto
          -364 -213 rmoveto
          27 hlineto
          15 7 -2 -3 hvcurveto
          -2 vlineto
          -2 -1 rlineto
          -13 hlineto
          -25 1 -12 2 3 vvcurveto
          314 479 rmoveto
          -27 7 6 -13 5 hhcurveto
          2 3 hlineto
          11 -6 13 -12 15 vhcurveto
          -2 hlineto
          -29 -316 rmoveto
          5 5 8 11 11 vhcurveto
          1 hlineto
          3 -1 2 -3 -7 vvcurveto
          -1 vlineto
          -9 -9 -6 -4 -5 hhcurveto
          -2 hlineto
          -487 506 rmoveto
          10 hlineto
          18 -6 rlineto
          -3 vlineto
          -13 1 rlineto
          -4 -4 -2 -4 -4 hvcurveto
          -3 hlineto
          -1 -1 3 5 -1 hvcurveto
          2 vlineto
          153 35 rmoveto
          2 -2 rlineto
          -3 -8 -2 -16 vhcurveto
          -22 hlineto
          -3 3 rlineto
          104 -17 rmoveto
          5 hlineto
          7 7 -3 -6 6 hvcurveto
          -3 -2 rlineto
          -3 hlineto
          -2 -7 3 6 -12 hvcurveto
          106 -83 rmoveto
          4 7 -3 -7 11 hvcurveto
          -5 vlineto
          -7 -7 4 9 -8 hvcurveto
          -280 -256 rmoveto
          2 hlineto
          3 -1 rlineto
          -5 vlineto
          -8 -1 -1 -4 -3 hhcurveto
          -2 hlineto
          -2 2 rlineto
          13 vlineto
          91 -51 rmoveto
          12 vlineto
          1 3 4 0 3 hhcurveto
          -1 -13 rlineto
          9 313 rmoveto
          2 1 1 1 vhcurveto
          13 -3 hlineto
          -5 -6 rlineto
          -2 hlineto
          -5 -3 2 4 hvcurveto
          269 -519 rmoveto
          6 3 3 3 3 hhcurveto
          3 1 0 -1 hvcurveto
          -4 vlineto
          -2 -3 -3 -3 -3 -1 rrcurveto
          -4 hlineto
          -288 198 rmoveto
          8 1 -1 -19 rlineto
          -4 hlineto
          278 321 rmoveto
          11 -3 5 -4 -5 vvcurveto
          -1 -3 vlineto
          -8 5 -4 4 -1 2 rrcurveto
          -368 41 rmoveto
          2 1 3 1 6 hhcurveto
          6 -2 hlineto
          -3 -1 -2 -2 -4 hhcurveto
          -6 hlineto
          142 -446 rmoveto
          -18 vlineto
          -3 -3 rlineto
          -1 hlineto
          -1 6 rlineto
          2 vlineto
          1 13 rlineto
          49 191 rmoveto
          3 7 2 15 2 vhcurveto
          1 -1 hlineto
          -4 -1 -3 -2 -6 hhcurveto
          -114 -18 rmoveto
          4 2 4 1 5 1 -1 -6 rcurveline
          -1 -3 -4 0 -3 hhcurveto
          -2 hlineto
          -48 -298 rmoveto
          5 3 -2 -3 1 hvcurveto
          -3 -2 rlineto
          -6 hlineto
          -3 3 rlineto
          2 vlineto
          244 -37 rmoveto
          3 4 1 9 1 vhcurveto
          4 -1 hlineto
          -4 -4 rlineto
          -198 472 rmoveto
          -5 vlineto
          -2 -10 rlineto
          -3 3 hlineto
          3 12 rlineto
          -117 152 rmoveto
          3 hlineto
          4 3 -2 -3 2 hvcurveto
          -1 -1 vlineto
          -14 3 rlineto
          265 -250 rmoveto
          9 -3 hlineto
          -6 -1 rlineto
          -9 2 hlineto
          133 -290 rmoveto
          4 -3 hlineto
          -3 -3 rlineto
          -3 hlineto
          -2 3 rlineto
          -333 264 rmoveto
          3 -1 hlineto
          -1 -3 rlineto
          -6 1 hlineto
          130 120 rmoveto
          -5 3 vlineto
          2 3 rlineto
          3 -2 vlineto
          -169 188 rmoveto
          3 hlineto
          2 -3 -2 -3 rlineto
          -3 hlineto
          -3 3 rlineto
          11 -330 rmoveto
          3 -2 hlineto
          -3 -3 rlineto
          -2 3 hlineto
          7 -295 rmoveto
          3 -2 hlineto
          -3 -4 -3 3 rlineto
          183 324 rmoveto
          2 -3 rlineto
          -5 3 hlineto
          41 334 rmoveto
          -3 -4 3 vlineto
          -53 -676 rmoveto
          -2 -4 2 vlineto
          endchar
        </CharString>
        <CharString name="E">
          -22 23 688 rmoveto
          -1 hlineto
          -13 -7 -10 -21 -1 hvcurveto
          1 -1 rlineto
          -30 5 -15 11 vhcurveto
          13 2 25 -7 rlineto
          21 11 -9 -18 hvcurveto
          -4 vlineto
          -9 -1 -7 -2 -4 vhcurveto
          -127 -3 -2 -64 -3 hhcurveto
          7 -12 4 -9 -5 vvcurveto
          6 -226 rlineto
          -7 -7 -5 -14 -3 vhcurveto
          -3 hlineto
          -4 -5 3 6 -6 hvcurveto
          -3 hlineto
          -3 -4 rlineto
          -10 vlineto
          -4 -22 rlineto
          -21 1 -12 3 -3 vhcurveto
          -12 7 -6 15 vhcurveto
          237 -5 118 -3 -3 vvcurveto
          29 -2 18 -3 5 -4 rrcurveto
          5 hlineto
          3 10 rlineto
          -3 27 -2 38 50 vvcurveto
          14 -4 7 -7 vhcurveto
          8 -15 -8 4 -2 hhcurveto
          -25 -3 -12 -5 -7 vvcurveto
          3 -9 5 -8 7 -5 7 4 rcurveline
          5 2 -6 -12 hvcurveto
          -1 -6 -10 9 rlineto
          -6 hlineto
          -7 -1 -3 -3 -5 hhcurveto
          -2 hlineto
          7 -58 -48 4 -37 hhcurveto
          -1 hlineto
          -29 -3 -38 -4 -45 -3 -4 2 rcurveline
          5 41 3 40 1 38 -6 102 rcurveline
          1 16 rlineto
          4 24 2 47 51 26 -3 -7 vhcurveto
          -21 5 3 -10 2 hhcurveto
          16 -3 13 -3 10 -5 rrcurveto
          3 1 2 4 6 vvcurveto
          41 vlineto
          69 -4 34 -9 vhcurveto
          -7 -5 rlineto
          -17 -3 -8 -6 -8 vvcurveto
          -19 -3 -10 -7 vhcurveto
          -81 10 -50 -3 rlineto
          -7 hlineto
          -3 -4 2 5 -5 hvcurveto
          125 -4 -4 63 -3 hhcurveto
          5 22 3 43 vhcurveto
          64 hlineto
          123 -3 8 2 rlineto
          4 vlineto
          -8 2 -4 2 2 vvcurveto
          1 27 vlineto
          1 1 -3 -5 hvcurveto
          10 5 -6 -12 -9 3 -6 7 -2 hvcurveto
          -6 -7 -3 -6 -1 -3 rrcurveto
          -2 vlineto
          -13 11 -6 21 7 8 2 4 8 vhcurveto
          19 39 rlineto
          -4 29 -2 34 37 vvcurveto
          4 -1 4 -2 5 vhcurveto
          -5 -1 -26 -3 -17 -5 -7 -7 rlinecurve
          -2 3 hlineto
          4 2 1 2 5 -76 3 -151 2 hvcurveto
          -190 -15 rmoveto
          11 10 -2 -4 7 hvcurveto
          -3 -1 -7 1 rlineto
          -3 -4 -3 -7 -5 hvcurveto
          -10 15 rlineto
          1 vlineto
          50 -10 rmoveto
          2 2 1 5 1 vhcurveto
          5 -4 hlineto
          -9 -3 rlineto
          -2 -1 1 2 hvcurveto
          97 3 rmoveto
          -2 -3 2 vlineto
          -73 -4 rmoveto
          1 hlineto
          5 6 -3 -5 8 hvcurveto
          -4 -12 vlineto
          -7 -3 2 4 -1 hvcurveto
          1 vlineto
          52 -4 rmoveto
          5 3 -2 -3 1 hvcurveto
          -1 -5 vlineto
          -5 -3 2 3 -1 hvcurveto
          1 vlineto
          266 -3 rmoveto
          26 -1 rlineto
          -3 vlineto
          -1 -3 -1 -2 -3 -1 -57 7 rcurveline
          2 vlineto
          -185 -1 rmoveto
          12 6 -1 -3 hvcurveto
          -12 -6 1 3 hvcurveto
          -47 -27 rmoveto
          4 7 2 15 vhcurveto
          3 hlineto
          17 8 -2 -4 -4 -13 -3 -26 -1 hvcurveto
          -1 hlineto
          -5 -4 3 5 -1 hvcurveto
          83 1 rmoveto
          11 hlineto
          3 -1 rlineto
          -3 -1 -3 -1 -4 hhcurveto
          -1 hlineto
          -4 -2 1 3 -1 hvcurveto
          -137 -2 rmoveto
          -2 -23 2 vlineto
          387 -38 rmoveto
          9 1 5 3 vhcurveto
          3 hlineto
          1 -7 rlineto
          -7 -1 -2 -4 -2 hhcurveto
          -3 3 rlineto
          21 -23 rmoveto
          2 3 2 3 3 2 rrcurveto
          4 -2 hlineto
          -7 -2 -4 -4 vhcurveto
          1 vlineto
          -3 3 rlineto
          -347 5 rmoveto
          5 -2 3 -5 -7 vvcurveto
          -1 vlineto
          -2 -5 rlineto
          -4 -3 3 5 -1 hvcurveto
          8 vlineto
          8 -46 rmoveto
          3 -13 -2 -3 rlineto
          -3 hlineto
          -4 4 rlineto
          7 vlineto
          38 -124 rmoveto
          1 hlineto
          4 -3 rlineto
          -2 -8 1 vlineto
          73 -6 rmoveto
          2 -3 rlineto
          -2 -2 vlineto
          -3 2 rlineto
          3 vlineto
          17 -3 rmoveto
          -2 -4 2 vlineto
          17 hmoveto
          3 -2 rlineto
          -2 -4 vlineto
          -4 4 rlineto
          -139 -66 rmoveto
          -14 vlineto
          -3 -1 rlineto
          -3 9 hlineto
          2 6 rlineto
          26 -78 rmoveto
          -3 -3 3 vlineto
          2 -70 rmoveto
          3 -1 1 -3 -6 vvcurveto
          -7 -2 -4 -5 vhcurveto
          1 vlineto
          -1 1 rlineto
          13 vlineto
          1 6 rlineto
          326 -31 rmoveto
          3 2 2 4 1 vhcurveto
          2 -3 rlineto
          -2 vlineto
          -1 -2 -2 -3 -1 vhcurveto
          -329 -45 rmoveto
          -3 -3 3 vlineto
          7 -9 rmoveto
          12 hlineto
          4 2 -1 -3 1 hvcurveto
          -2 vlineto
          -6 -2 rlineto
          -5 hlineto
          -7 -3 1 3 -1 hvcurveto
          1 vlineto
          79 -1 rmoveto
          2 -2 rlineto
          -2 vlineto
          -6 -1 rlineto
          -4 hlineto
          -2 3 rlineto
          2 vlineto
          224 hmoveto
          12 hlineto
          1 -4 rlineto
          -1 vlineto
          -2 -3 -2 -7 -1 vhcurveto
          -4 -2 1 3 -1 hvcurveto
          1 vlineto
          -169 1 rmoveto
          39 20 -2 -3 hvcurveto
          -59 hlineto
          -23 3 rlineto
          2 vlineto
          -125 -4 rmoveto
          3 hlineto
          5 2 -1 -2 hvcurveto
          -1 vlineto
          -3 -4 rlineto
          -10 hlineto
          -4 -3 2 3 -1 hvcurveto
          2 vlineto
          266 hmoveto
          15 12 -2 -3 11 hvcurveto
          -2 vlineto
          -32 1 -16 2 3 vvcurveto
          1 vlineto
          -277 -17 rmoveto
          -10 -1 vlineto
          -3 2 rlineto
          8 vlineto
          391 -1 rmoveto
          6 -2 rlineto
          -2 vlineto
          -2 -3 rlineto
          -3 hlineto
          -11 3 rlineto
          4 vlineto
          -81 -10 rmoveto
          1 5 1 9 1 vhcurveto
          11 -2 rlineto
          2 hlineto
          -3 -1 -3 -1 -4 hhcurveto
          -9 hlineto
          -87 4 rmoveto
          11 -1 rlineto
          -3 -15 vlineto
          -2 3 rlineto
          1 vlineto
          -73 -1 rmoveto
          1 hlineto
          2 -3 rlineto
          -1 vlineto
          -2 -3 rlineto
          -5 3 hlineto
          endchar
        </CharString>
        <CharString name="Eacute">
          -22 23 688 rmoveto
          -1 hlineto
          -13 -7 -10 -21 -1 hvcurveto
          1 -1 rlineto
          -30 5 -15 11 vhcurveto
          13 2 25 -7 rlineto
          21 11 -9 -18 hvcurveto
          -4 vlineto
          -9 -1 -7 -2 -4 vhcurveto
          -127 -3 -2 -64 -3 hhcurveto
          7 -12 4 -9 -5 vvcurveto
          6 -226 rlineto
          -7 -7 -5 -14 -3 vhcurveto
          -3 hlineto
          -4 -5 3 6 -6 hvcurveto
          -3 hlineto
          -3 -4 rlineto
          -10 vlineto
          -4 -22 rlineto
          -21 1 -12 3 -3 vhcurveto
          -12 7 -6 15 vhcurveto
          237 -5 118 -3 -3 vvcurveto
          29 -2 18 -3 5 -4 rrcurveto
          5 hlineto
          3 10 rlineto
          -3 27 -2 38 50 vvcurveto
          14 -4 7 -7 vhcurveto
          8 -15 -8 4 -2 hhcurveto
          -25 -3 -12 -5 -7 vvcurveto
          3 -9 5 -8 7 -5 7 4 rcurveline
          5 2 -6 -12 hvcurveto
          -1 -6 -10 9 rlineto
          -6 hlineto
          -7 -1 -3 -3 -5 hhcurveto
          -2 hlineto
          7 -58 -48 4 -37 hhcurveto
          -1 hlineto
          -29 -3 -38 -4 -45 -3 -4 2 rcurveline
          5 41 3 40 1 38 -6 102 rcurveline
          1 16 rlineto
          4 24 2 47 51 26 -3 -7 vhcurveto
          -21 5 3 -10 2 hhcurveto
          16 -3 13 -3 10 -5 rrcurveto
          3 1 2 4 6 vvcurveto
          41 vlineto
          69 -4 34 -9 vhcurveto
          -7 -5 rlineto
          -17 -3 -8 -6 -8 vvcurveto
          -19 -3 -10 -7 vhcurveto
          -81 10 -50 -3 rlineto
          -7 hlineto
          -3 -4 2 5 -5 hvcurveto
          125 -4 -4 63 -3 hhcurveto
          5 22 3 43 vhcurveto
          64 hlineto
          123 -3 8 2 rlineto
          4 vlineto
          -8 2 -4 2 2 vvcurveto
          1 27 vlineto
          1 1 -3 -5 hvcurveto
          10 5 -6 -12 -9 3 -6 7 -2 hvcurveto
          -6 -7 -3 -6 -1 -3 rrcurveto
          -2 vlineto
          -13 11 -6 21 7 8 2 4 8 vhcurveto
          19 39 rlineto
          -4 29 -2 34 37 vvcurveto
          4 -1 4 -2 5 vhcurveto
          -5 -1 -26 -3 -17 -5 -7 -7 rlinecurve
          -2 3 hlineto
          4 2 1 2 5 -76 3 -151 2 hvcurveto
          -190 -15 rmoveto
          11 10 -2 -4 7 hvcurveto
          -3 -1 -7 1 rlineto
          -3 -4 -3 -7 -5 hvcurveto
          -10 15 rlineto
          1 vlineto
          50 -10 rmoveto
          2 2 1 5 1 vhcurveto
          5 -4 hlineto
          -9 -3 rlineto
          -2 -1 1 2 hvcurveto
          97 3 rmoveto
          -2 -3 2 vlineto
          -73 -4 rmoveto
          1 hlineto
          5 6 -3 -5 8 hvcurveto
          -4 -12 vlineto
          -7 -3 2 4 -1 hvcurveto
          1 vlineto
          52 -4 rmoveto
          5 3 -2 -3 1 hvcurveto
          -1 -5 vlineto
          -5 -3 2 3 -1 hvcurveto
          1 vlineto
          266 -3 rmoveto
          26 -1 rlineto
          -3 vlineto
          -1 -3 -1 -2 -3 -1 -57 7 rcurveline
          2 vlineto
          -185 -1 rmoveto
          12 6 -1 -3 hvcurveto
          -12 -6 1 3 hvcurveto
          -47 -27 rmoveto
          4 7 2 15 vhcurveto
          3 hlineto
          17 8 -2 -4 -4 -13 -3 -26 -1 hvcurveto
          -1 hlineto
          -5 -4 3 5 -1 hvcurveto
          83 1 rmoveto
          11 hlineto
          3 -1 rlineto
          -3 -1 -3 -1 -4 hhcurveto
          -1 hlineto
          -4 -2 1 3 -1 hvcurveto
          -137 -2 rmoveto
          -2 -23 2 vlineto
          387 -38 rmoveto
          9 1 5 3 vhcurveto
          3 hlineto
          1 -7 rlineto
          -7 -1 -2 -4 -2 hhcurveto
          -3 3 rlineto
          21 -23 rmoveto
          2 3 2 3 3 2 rrcurveto
          4 -2 hlineto
          -7 -2 -4 -4 vhcurveto
          1 vlineto
          -3 3 rlineto
          -347 5 rmoveto
          5 -2 3 -5 -7 vvcurveto
          -1 vlineto
          -2 -5 rlineto
          -4 -3 3 5 -1 hvcurveto
          8 vlineto
          8 -46 rmoveto
          3 -13 -2 -3 rlineto
          -3 hlineto
          -4 4 rlineto
          7 vlineto
          38 -124 rmoveto
          1 hlineto
          4 -3 rlineto
          -2 -8 1 vlineto
          73 -6 rmoveto
          2 -3 rlineto
          -2 -2 vlineto
          -3 2 rlineto
          3 vlineto
          17 -3 rmoveto
          -2 -4 2 vlineto
          17 hmoveto
          3 -2 rlineto
          -2 -4 vlineto
          -4 4 rlineto
          -139 -66 rmoveto
          -14 vlineto
          -3 -1 rlineto
          -3 9 hlineto
          2 6 rlineto
          26 -78 rmoveto
          -3 -3 3 vlineto
          2 -70 rmoveto
          3 -1 1 -3 -6 vvcurveto
          -7 -2 -4 -5 vhcurveto
          1 vlineto
          -1 1 rlineto
          13 vlineto
          1 6 rlineto
          326 -31 rmoveto
          3 2 2 4 1 vhcurveto
          2 -3 rlineto
          -2 vlineto
          -1 -2 -2 -3 -1 vhcurveto
          -329 -45 rmoveto
          -3 -3 3 vlineto
          7 -9 rmoveto
          12 hlineto
          4 2 -1 -3 1 hvcurveto
          -2 vlineto
          -6 -2 rlineto
          -5 hlineto
          -7 -3 1 3 -1 hvcurveto
          1 vlineto
          79 -1 rmoveto
          2 -2 rlineto
          -2 vlineto
          -6 -1 rlineto
          -4 hlineto
          -2 3 rlineto
          2 vlineto
          224 hmoveto
          12 hlineto
          1 -4 rlineto
          -1 vlineto
          -2 -3 -2 -7 -1 vhcurveto
          -4 -2 1 3 -1 hvcurveto
          1 vlineto
          -169 1 rmoveto
          39 20 -2 -3 hvcurveto
          -59 hlineto
          -23 3 rlineto
          2 vlineto
          -125 -4 rmoveto
          3 hlineto
          5 2 -1 -2 hvcurveto
          -1 vlineto
          -3 -4 rlineto
          -10 hlineto
          -4 -3 2 3 -1 hvcurveto
          2 vlineto
          266 hmoveto
          15 12 -2 -3 11 hvcurveto
          -2 vlineto
          -32 1 -16 2 3 vvcurveto
          1 vlineto
          -277 -17 rmoveto
          -10 -1 vlineto
          -3 2 rlineto
          8 vlineto
          391 -1 rmoveto
          6 -2 rlineto
          -2 vlineto
          -2 -3 rlineto
          -3 hlineto
          -11 3 rlineto
          4 vlineto
          -81 -10 rmoveto
          1 5 1 9 1 vhcurveto
          11 -2 rlineto
          2 hlineto
          -3 -1 -3 -1 -4 hhcurveto
          -9 hlineto
          -87 4 rmoveto
          11 -1 rlineto
          -3 -15 vlineto
          -2 3 rlineto
          1 vlineto
          -73 -1 rmoveto
          1 hlineto
          2 -3 rlineto
          -1 vlineto
          -2 -3 rlineto
          -5 3 hlineto
          48 744 rmoveto
          -2 -7 8 8 rlineto
          3 vlineto
          27 18 19 29 13 39 -7 9 -10 7 -13 5 -13 -11 -10 -12 -7 -11 -6 -11 -13 -13 -19 -17 -4 -1 0 -3 -1 -3 -39 -54 rcurveline
          39 -22 9 10 26 29 -3 4 -5 8 rlineto
          1 vlineto
          8 2 rlineto
          7 -1 hlineto
          -2 -1 -3 -4 -4 -5 1 1 2 1 1 2 rrcurveto
          30 54 rmoveto
          -7 3 -4 0 -3 vvcurveto
          -3 4 -3 4 -5 3 rrcurveto
          2 vlineto
          1 vlineto
          2 2 rlineto
          8 hlineto
          4 2 -5 7 rlineto
          2 2 vlineto
          9 1 0 -4 -10 -11 rrcurveto
          -14 -28 rmoveto
          -3 -1 -5 -1 -2 3 2 6 rlinecurve
          3 2 rlineto
          2 hlineto
          3 -1 1 -2 -1 -5 rrcurveto
          -26 -57 rmoveto
          2 -8 rlineto
          -1 hlineto
          -5 5 1 3 rlineto
          18 13 rmoveto
          -3 vlineto
          -3 -3 -1 4 rlineto
          1 vlineto
          3 4 rlineto
          5 52 rmoveto
          -2 -3 vlineto
          -1 0 2 3 hvcurveto
          2 1 rlineto
          -8 -34 rmoveto
          -3 -2 vlineto
          -2 2 rlineto
          2 3 vlineto
          endchar
        </CharString>
        <CharString name="Ebreve">
          -22 130 269 69 198 endchar
        </CharString>
        <CharString name="Ecaron">
          -22 92 331 69 207 endchar
        </CharString>
        <CharString name="Ecircumflex">
          -22 94 313 69 195 endchar
        </CharString>
        <CharString name="Edieresis">
          -22 23 688 rmoveto
          -1 hlineto
          -13 -7 -10 -21 -1 hvcurveto
          1 -1 rlineto
          -30 5 -15 11 vhcurveto
          13 2 25 -7 rlineto
          21 11 -9 -18 hvcurveto
          -4 vlineto
          -9 -1 -7 -2 -4 vhcurveto
          -127 -3 -2 -64 -3 hhcurveto
          7 -12 4 -9 -5 vvcurveto
          6 -226 rlineto
          -7 -7 -5 -14 -3 vhcurveto
          -3 hlineto
          -4 -5 3 6 -6 hvcurveto
          -3 hlineto
          -3 -4 rlineto
          -10 vlineto
          -4 -22 rlineto
          -21 1 -12 3 -3 vhcurveto
          -12 7 -6 15 vhcurveto
          237 -5 118 -3 -3 vvcurveto
          29 -2 18 -3 5 -4 rrcurveto
          5 hlineto
          3 10 rlineto
          -3 27 -2 38 50 vvcurveto
          14 -4 7 -7 vhcurveto
          8 -15 -8 4 -2 hhcurveto
          -25 -3 -12 -5 -7 vvcurveto
          3 -9 5 -8 7 -5 7 4 rcurveline
          5 2 -6 -12 hvcurveto
          -1 -6 -10 9 rlineto
          -6 hlineto
          -7 -1 -3 -3 -5 hhcurveto
          -2 hlineto
          7 -58 -48 4 -37 hhcurveto
          -1 hlineto
          -29 -3 -38 -4 -45 -3 -4 2 rcurveline
          5 41 3 40 1 38 -6 102 rcurveline
          1 16 rlineto
          4 24 2 47 51 26 -3 -7 vhcurveto
          -21 5 3 -10 2 hhcurveto
          16 -3 13 -3 10 -5 rrcurveto
          3 1 2 4 6 vvcurveto
          41 vlineto
          69 -4 34 -9 vhcurveto
          -7 -5 rlineto
          -17 -3 -8 -6 -8 vvcurveto
          -19 -3 -10 -7 vhcurveto
          -81 10 -50 -3 rlineto
          -7 hlineto
          -3 -4 2 5 -5 hvcurveto
          125 -4 -4 63 -3 hhcurveto
          5 22 3 43 vhcurveto
          64 hlineto
          123 -3 8 2 rlineto
          4 vlineto
          -8 2 -4 2 2 vvcurveto
          1 27 vlineto
          1 1 -3 -5 hvcurveto
          10 5 -6 -12 -9 3 -6 7 -2 hvcurveto
          -6 -7 -3 -6 -1 -3 rrcurveto
          -2 vlineto
          -13 11 -6 21 7 8 2 4 8 vhcurveto
          19 39 rlineto
          -4 29 -2 34 37 vvcurveto
          4 -1 4 -2 5 vhcurveto
          -5 -1 -26 -3 -17 -5 -7 -7 rlinecurve
          -2 3 hlineto
          4 2 1 2 5 -76 3 -151 2 hvcurveto
          -190 -15 rmoveto
          11 10 -2 -4 7 hvcurveto
          -3 -1 -7 1 rlineto
          -3 -4 -3 -7 -5 hvcurveto
          -10 15 rlineto
          1 vlineto
          50 -10 rmoveto
          2 2 1 5 1 vhcurveto
          5 -4 hlineto
          -9 -3 rlineto
          -2 -1 1 2 hvcurveto
          97 3 rmoveto
          -2 -3 2 vlineto
          -73 -4 rmoveto
          1 hlineto
          5 6 -3 -5 8 hvcurveto
          -4 -12 vlineto
          -7 -3 2 4 -1 hvcurveto
          1 vlineto
          52 -4 rmoveto
          5 3 -2 -3 1 hvcurveto
          -1 -5 vlineto
          -5 -3 2 3 -1 hvcurveto
          1 vlineto
          266 -3 rmoveto
          26 -1 rlineto
          -3 vlineto
          -1 -3 -1 -2 -3 -1 -57 7 rcurveline
          2 vlineto
          -185 -1 rmoveto
          12 6 -1 -3 hvcurveto
          -12 -6 1 3 hvcurveto
          -47 -27 rmoveto
          4 7 2 15 vhcurveto
          3 hlineto
          17 8 -2 -4 -4 -13 -3 -26 -1 hvcurveto
          -1 hlineto
          -5 -4 3 5 -1 hvcurveto
          83 1 rmoveto
          11 hlineto
          3 -1 rlineto
          -3 -1 -3 -1 -4 hhcurveto
          -1 hlineto
          -4 -2 1 3 -1 hvcurveto
          -137 -2 rmoveto
          -2 -23 2 vlineto
          387 -38 rmoveto
          9 1 5 3 vhcurveto
          3 hlineto
          1 -7 rlineto
          -7 -1 -2 -4 -2 hhcurveto
          -3 3 rlineto
          21 -23 rmoveto
          2 3 2 3 3 2 rrcurveto
          4 -2 hlineto
          -7 -2 -4 -4 vhcurveto
          1 vlineto
          -3 3 rlineto
          -347 5 rmoveto
          5 -2 3 -5 -7 vvcurveto
          -1 vlineto
          -2 -5 rlineto
          -4 -3 3 5 -1 hvcurveto
          8 vlineto
          8 -46 rmoveto
          3 -13 -2 -3 rlineto
          -3 hlineto
          -4 4 rlineto
          7 vlineto
          38 -124 rmoveto
          1 hlineto
          4 -3 rlineto
          -2 -8 1 vlineto
          73 -6 rmoveto
          2 -3 rlineto
          -2 -2 vlineto
          -3 2 rlineto
          3 vlineto
          17 -3 rmoveto
          -2 -4 2 vlineto
          17 hmoveto
          3 -2 rlineto
          -2 -4 vlineto
          -4 4 rlineto
          -139 -66 rmoveto
          -14 vlineto
          -3 -1 rlineto
          -3 9 hlineto
          2 6 rlineto
          26 -78 rmoveto
          -3 -3 3 vlineto
          2 -70 rmoveto
          3 -1 1 -3 -6 vvcurveto
          -7 -2 -4 -5 vhcurveto
          1 vlineto
          -1 1 rlineto
          13 vlineto
          1 6 rlineto
          326 -31 rmoveto
          3 2 2 4 1 vhcurveto
          2 -3 rlineto
          -2 vlineto
          -1 -2 -2 -3 -1 vhcurveto
          -329 -45 rmoveto
          -3 -3 3 vlineto
          7 -9 rmoveto
          12 hlineto
          4 2 -1 -3 1 hvcurveto
          -2 vlineto
          -6 -2 rlineto
          -5 hlineto
          -7 -3 1 3 -1 hvcurveto
          1 vlineto
          79 -1 rmoveto
          2 -2 rlineto
          -2 vlineto
          -6 -1 rlineto
          -4 hlineto
          -2 3 rlineto
          2 vlineto
          224 hmoveto
          12 hlineto
          1 -4 rlineto
          -1 vlineto
          -2 -3 -2 -7 -1 vhcurveto
          -4 -2 1 3 -1 hvcurveto
          1 vlineto
          -169 1 rmoveto
          39 20 -2 -3 hvcurveto
          -59 hlineto
          -23 3 rlineto
          2 vlineto
          -125 -4 rmoveto
          3 hlineto
          5 2 -1 -2 hvcurveto
          -1 vlineto
          -3 -4 rlineto
          -10 hlineto
          -4 -3 2 3 -1 hvcurveto
          2 vlineto
          266 hmoveto
          15 12 -2 -3 11 hvcurveto
          -2 vlineto
          -32 1 -16 2 3 vvcurveto
          1 vlineto
          -277 -17 rmoveto
          -10 -1 vlineto
          -3 2 rlineto
          8 vlineto
          391 -1 rmoveto
          6 -2 rlineto
          -2 vlineto
          -2 -3 rlineto
          -3 hlineto
          -11 3 rlineto
          4 vlineto
          -81 -10 rmoveto
          1 5 1 9 1 vhcurveto
          11 -2 rlineto
          2 hlineto
          -3 -1 -3 -1 -4 hhcurveto
          -9 hlineto
          -87 4 rmoveto
          11 -1 rlineto
          -3 -15 vlineto
          -2 3 rlineto
          1 vlineto
          -73 -1 rmoveto
          1 hlineto
          2 -3 rlineto
          -1 vlineto
          -2 -3 rlineto
          -5 3 hlineto
          -29 829 rmoveto
          -7 -14 -5 -11 -19 hvcurveto
          -9 -7 -5 -17 -29 vvcurveto
          -5 vlineto
          -38 13 13 -19 14 hhcurveto
          14 5 rlineto
          31 25 15 26 27 vvcurveto
          14 vlineto
          6 -1 6 -3 6 vhcurveto
          -9 7 -14 6 -19 3 rrcurveto
          -34 -44 rmoveto
          9 6 6 13 4 vhcurveto
          1 -4 hlineto
          -4 -6 -3 -23 -3 -11 -2 -1 rlinecurve
          -3 -3 9 17 -2 hvcurveto
          26 -6 rmoveto
          10 1 5 5 8 hhcurveto
          2 hlineto
          2 -3 rlineto
          -5 vlineto
          -14 -4 -3 -7 -3 hhcurveto
          -2 hlineto
          -4 1 -2 3 7 vvcurveto
          31 -11 rmoveto
          5 2 2 2 1 hhcurveto
          1 -2 hlineto
          -1 -7 rlineto
          -3 hlineto
          -16 -18 rmoveto
          -1 vlineto
          -8 -6 -7 -4 -7 hhcurveto
          -11 hlineto
          -5 2 -2 3 4 vvcurveto
          202 83 rmoveto
          -7 -13 -5 -11 -18 hvcurveto
          -9 -6 -5 -18 -29 vvcurveto
          -5 vlineto
          -38 13 13 -19 15 hhcurveto
          11 5 rlineto
          31 25 16 26 27 vvcurveto
          14 vlineto
          6 -1 6 -3 6 vhcurveto
          -8 7 -14 6 -21 3 rrcurveto
          -32 -43 rmoveto
          7 6 6 13 5 vhcurveto
          2 -4 hlineto
          -4 -6 -5 -23 -3 -11 -2 -1 rlinecurve
          -3 -2 9 18 -2 hvcurveto
          27 -8 rmoveto
          11 1 4 5 7 hhcurveto
          3 hlineto
          2 -3 rlineto
          -5 vlineto
          -14 -3 -4 -7 -5 hhcurveto
          -1 hlineto
          -3 1 -1 4 6 vvcurveto
          30 -11 rmoveto
          5 1 2 2 2 hhcurveto
          1 -2 hlineto
          -1 -6 rlineto
          -5 hlineto
          -15 -19 rmoveto
          -2 vlineto
          -7 -5 -7 -4 -8 hhcurveto
          -10 hlineto
          -5 2 -2 3 4 vvcurveto
          endchar
        </CharString>
        <CharString name="Edotaccent">
          -22 189 332 69 199 endchar
        </CharString>
        <CharString name="Egrave">
          -22 121 289 69 193 endchar
        </CharString>
        <CharString name="Emacron">
          -22 82 236 69 197 endchar
        </CharString>
        <CharString name="Eogonek">
          -22 23 688 rmoveto
          -1 hlineto
          -13 -7 -10 -21 -1 hvcurveto
          1 -1 rlineto
          -30 5 -15 11 vhcurveto
          13 2 25 -7 rlineto
          21 11 -9 -18 hvcurveto
          -4 vlineto
          -9 -1 -7 -2 -4 vhcurveto
          -127 -3 -2 -64 -3 hhcurveto
          7 -12 4 -9 -5 vvcurveto
          6 -226 rlineto
          -7 -7 -5 -14 -3 vhcurveto
          -3 hlineto
          -4 -5 3 6 -6 hvcurveto
          -3 hlineto
          -3 -4 rlineto
          -10 vlineto
          -4 -22 rlineto
          -21 1 -12 3 -3 vhcurveto
          -12 7 -6 15 vhcurveto
          161 -3 107 -3 51 -2 rrcurveto
          -3 -4 -2 -1 -1 hhcurveto
          -11 2 rlineto
          -3 -2 -2 -4 -2 hvcurveto
          4 -12 rlineto
          -3 -5 -2 -5 -4 vvcurveto
          -25 6 -17 13 -8 vhcurveto
          -1 -2 -1 -4 vhcurveto
          -3 vlineto
          -1 4 -2 7 -3 vhcurveto
          -5 vlineto
          -15 -2 6 -14 9 -15 12 -15 rlinecurve
          19 -22 35 -8 49 7 rrcurveto
          7 -3 0 4 3 hhcurveto
          2 3 rlineto
          13 -7 -8 6 -11 hhcurveto
          -2 1 rlineto
          1 vlineto
          2 5 2 11 2 vhcurveto
          3 vlineto
          -37 17 -19 13 10 vvcurveto
          3 vlineto
          -10 29 6 25 22 22 12 -2 8 -2 3 -2 rrcurveto
          5 hlineto
          3 10 rlineto
          -3 27 -2 38 50 vvcurveto
          14 -4 7 -7 vhcurveto
          8 -15 -8 4 -2 hhcurveto
          -25 -3 -12 -5 -7 vvcurveto
          3 -9 5 -8 7 -5 7 4 rcurveline
          5 2 -6 -12 hvcurveto
          -1 -6 -10 9 rlineto
          -6 hlineto
          -7 -1 -3 -3 -5 hhcurveto
          -2 hlineto
          7 -58 -48 4 -37 hhcurveto
          -1 hlineto
          -29 -3 -38 -4 -45 -3 -4 2 rcurveline
          5 41 3 40 1 38 -6 102 rcurveline
          1 16 rlineto
          4 24 2 47 51 26 -3 -7 vhcurveto
          -21 5 3 -10 2 hhcurveto
          16 -3 13 -3 10 -5 rrcurveto
          3 1 2 4 6 vvcurveto
          41 vlineto
          69 -4 34 -9 vhcurveto
          -7 -5 rlineto
          -17 -3 -8 -6 -8 vvcurveto
          -19 -3 -10 -7 vhcurveto
          -81 10 -50 -3 rlineto
          -7 hlineto
          -3 -4 2 5 -5 hvcurveto
          125 -4 -4 63 -3 hhcurveto
          5 22 3 43 vhcurveto
          64 hlineto
          123 -3 8 2 rlineto
          4 vlineto
          -8 2 -4 2 2 vvcurveto
          1 27 vlineto
          1 1 -3 -5 hvcurveto
          10 5 -6 -12 -9 3 -6 7 -2 hvcurveto
          -6 -7 -3 -6 -1 -3 rrcurveto
          -2 vlineto
          -13 11 -6 21 7 8 2 4 8 vhcurveto
          19 39 rlineto
          -4 29 -2 34 37 vvcurveto
          4 -1 4 -2 5 vhcurveto
          -5 -1 -26 -3 -17 -5 -7 -7 rlinecurve
          -2 3 hlineto
          4 2 1 2 5 -76 3 -151 2 hvcurveto
          -81 -67 rmoveto
          4 7 2 15 vhcurveto
          3 hlineto
          17 8 -2 -4 -4 -13 -3 -26 -1 hvcurveto
          -1 hlineto
          -5 -4 3 5 -1 hvcurveto
          268 29 rmoveto
          26 -1 rlineto
          -3 vlineto
          -1 -3 -1 -2 -3 -1 -57 7 rcurveline
          2 vlineto
          -118 -590 rmoveto
          39 20 -2 -3 hvcurveto
          -59 hlineto
          -23 3 rlineto
          2 vlineto
          130 -5 rmoveto
          15 12 -2 -3 11 hvcurveto
          -2 vlineto
          -32 1 -16 2 3 vvcurveto
          1 vlineto
          -320 619 rmoveto
          11 10 -2 -4 7 hvcurveto
          -3 -1 -7 1 rlineto
          -3 -4 -3 -7 -5 hvcurveto
          -10 15 rlineto
          1 vlineto
          71 -11 rmoveto
          1 hlineto
          5 6 -3 -5 8 hvcurveto
          -4 -12 vlineto
          -7 -3 2 4 -1 hvcurveto
          1 vlineto
          11 -602 rmoveto
          3 hlineto
          5 2 -1 -2 hvcurveto
          -1 vlineto
          -3 -4 rlineto
          -10 hlineto
          -4 -3 2 3 -1 hvcurveto
          2 vlineto
          42 13 rmoveto
          12 hlineto
          4 2 -1 -3 1 hvcurveto
          -2 vlineto
          -6 -2 rlineto
          -5 hlineto
          -7 -3 1 3 -1 hvcurveto
          1 vlineto
          -10 497 rmoveto
          5 -2 3 -5 -7 vvcurveto
          -1 vlineto
          -2 -5 rlineto
          -4 -3 3 5 -1 hvcurveto
          8 vlineto
          14 -402 rmoveto
          3 -1 1 -3 -6 vvcurveto
          -7 -2 -4 -5 vhcurveto
          1 vlineto
          -1 1 rlineto
          13 vlineto
          1 6 rlineto
          294 -92 rmoveto
          12 hlineto
          1 -4 rlineto
          -1 vlineto
          -2 -3 -2 -7 -1 vhcurveto
          -4 -2 1 3 -1 hvcurveto
          1 vlineto
          -53 -32 rmoveto
          1 5 1 9 1 vhcurveto
          11 -2 rlineto
          2 hlineto
          -3 -1 -3 -1 -4 hhcurveto
          -9 hlineto
          68 558 rmoveto
          9 1 5 3 vhcurveto
          3 hlineto
          1 -7 rlineto
          -7 -1 -2 -4 -2 hhcurveto
          -3 3 rlineto
          -318 -69 rmoveto
          3 -13 -2 -3 rlineto
          -3 hlineto
          -4 4 rlineto
          7 vlineto
          345 51 rmoveto
          2 3 2 3 3 2 rrcurveto
          4 -2 hlineto
          -7 -2 -4 -4 vhcurveto
          1 vlineto
          -3 3 rlineto
          -248 66 rmoveto
          11 hlineto
          3 -1 rlineto
          -3 -1 -3 -1 -4 hhcurveto
          -1 hlineto
          -4 -2 1 3 -1 hvcurveto
          72 -594 rmoveto
          11 -1 rlineto
          -3 -15 vlineto
          -2 3 rlineto
          1 vlineto
          -172 276 rmoveto
          -14 vlineto
          -3 -1 rlineto
          -3 9 hlineto
          2 6 rlineto
          -34 360 rmoveto
          2 2 1 5 1 vhcurveto
          5 -4 hlineto
          -9 -3 rlineto
          -2 -1 1 2 hvcurveto
          70 -10 rmoveto
          5 3 -2 -3 1 hvcurveto
          -1 -5 vlineto
          -5 -3 2 3 -1 hvcurveto
          1 vlineto
          71 -590 rmoveto
          2 -2 rlineto
          -2 vlineto
          -6 -1 rlineto
          -4 hlineto
          -2 3 rlineto
          2 vlineto
          -119 556 rmoveto
          -2 -23 2 vlineto
          398 -495 rmoveto
          3 2 2 4 1 vhcurveto
          2 -3 rlineto
          -2 vlineto
          -1 -2 -2 -3 -1 vhcurveto
          -275 527 rmoveto
          12 6 -1 -3 hvcurveto
          -12 -6 1 3 hvcurveto
          27 -622 rmoveto
          1 hlineto
          2 -3 rlineto
          -1 vlineto
          -2 -3 rlineto
          -5 3 hlineto
          -136 15 rmoveto
          -10 -1 vlineto
          -3 2 rlineto
          8 vlineto
          92 345 rmoveto
          1 hlineto
          4 -3 rlineto
          -2 -8 1 vlineto
          100 -9 rmoveto
          3 -2 rlineto
          -2 -4 vlineto
          -4 4 rlineto
          -22 3 rmoveto
          2 -3 rlineto
          -2 -2 vlineto
          -3 2 rlineto
          3 vlineto
          -96 -296 rmoveto
          -3 -3 3 vlineto
          116 293 rmoveto
          -2 -4 2 vlineto
          -105 -144 rmoveto
          -3 -3 3 vlineto
          40 441 rmoveto
          -2 -3 2 vlineto
          endchar
        </CharString>
        <CharString name="Eth">
          103 100 317 rmoveto
          2 hlineto
          2 1 4 8 1 hvcurveto
          -8 -1 rlineto
          4 vlineto
          4 4 rlineto
          1 hlineto
          3 -3 rlineto
          -4 vlineto
          23 4 -1 -1 rlineto
          -2 5 vlineto
          16 -4 -62 -42 rlineto
          -15 5 10 -8 13 hhcurveto
          8 4 rlineto
          6 10 4 19 2 vhcurveto
          -3 0 -4 -1 -3 vhcurveto
          -14 1 -7 -1 -2 vvcurveto
          -2 vlineto
          21 -6 -2 -65 1 -5 rlineto
          7 3 -19 -37 -29 -1 -19 -2 -10 hvcurveto
          3 -14 rlineto
          -5 vlineto
          -4 -4 -44 11 rlineto
          -1 -4 -5 -1 -5 hhcurveto
          -4 hlineto
          -39 4 rlineto
          -4 -2 -2 -3 -1 hvcurveto
          -2 1 vlineto
          -3 -72 rlineto
          -12 3 -6 5 -1 vhcurveto
          1 2 vlineto
          11 3 2 5 2 hhcurveto
          4 hlineto
          -9 9 6 -5 3 hhcurveto
          3 4 6 1 7 hhcurveto
          23 19 -2 -4 13 hvcurveto
          63 -5 41 -4 17 -4 8 2 rcurveline
          12 7 24 4 36 3 31 7 25 12 19 17 41 24 40 29 39 35 rrcurveto
          7 11 14 29 13 hvcurveto
          -1 1 -5 -1 rlineto
          -25 -12 -11 -13 -10 hhcurveto
          -1 hlineto
          8 16 26 32 45 vhcurveto
          5 24 7 18 10 13 rrcurveto
          2 hlineto
          5 hlineto
          1 6 -4 64 rlineto
          27 -9 44 -17 61 vhcurveto
          -3 hlineto
          -5 -6 rlineto
          3 -3 2 -4 -3 vvcurveto
          -2 vlineto
          -4 -4 rlineto
          -5 -5 7 15 -7 hvcurveto
          -13 33 -11 27 -10 21 -41 50 rcurveline
          -20 13 -10 10 9 vvcurveto
          1 vlineto
          3 2 rlineto
          1 hlineto
          4 13 -7 -15 21 hvcurveto
          1 2 hlineto
          -2 3 -4 4 -5 5 -48 33 rcurveline
          -9 10 -31 19 -55 27 rrcurveto
          19 -55 -47 9 -39 hhcurveto
          -10 hlineto
          -5 2 -5 -2 rlineto
          -14 hlineto
          -40 -35 -4 -8 -31 hvcurveto
          -21 -14 -4 -7 -9 hvcurveto
          -7 -3 -14 -29 hvcurveto
          -47 vlineto
          3 -4 25 3 70 -3 5 1 rlineto
          4 0 2 1 vhcurveto
          34 hlineto
          11 6 -6 -13 hvcurveto
          -9 vlineto
          -9 -2 -15 -4 -21 vhcurveto
          -5 -61 -4 -62 -3 -64 rrcurveto
          -49 3 -24 -2 -8 vvcurveto
          -7 vlineto
          17 3 rlineto
          -9 vlineto
          188 10 rmoveto
          -9 hlineto
          -20 4 rlineto
          -7 -3 -1 -2 hvcurveto
          -10 2 -1 48 rlineto
          27 1 18 2 9 vhcurveto
          -1 2 -7 -2 rlineto
          -3 -2 5 9 hvcurveto
          25 vlineto
          5 1 2 3 1 vhcurveto
          1 2 -6 -12 3 hvcurveto
          5 2 20 41 hvcurveto
          -4 57 rlineto
          6 9 7 17 8 vhcurveto
          5 45 -17 -33 83 hvcurveto
          22 -9 23 -24 24 -37 42 -100 rcurveline
          8 -15 4 -40 -64 vvcurveto
          -9 vlineto
          -10 -59 -9 -38 -9 -15 -4 -15 -22 -25 -40 -35 rrcurveto
          -27 -49 -42 -13 -35 hhcurveto
          -55 6 -28 6 5 vvcurveto
          6 vlineto
          15 41 7 62 83 vvcurveto
          -1 11 43 -1 42 3 41 8 rlinecurve
          39 -11 12 30 -15 70 rrcurveto
          -233 -8 rmoveto
          1 -5 -4 0 -3 hhcurveto
          5 77 6 34 8 -11 rrcurveto
          5 -39 2 -31 -22 vvcurveto
          174 -340 rmoveto
          5 5 17 8 27 9 19 13 30 12 41 13 rrcurveto
          -1 vlineto
          -2 -2 rlineto
          -39 -61 -45 -20 -29 hhcurveto
          -2 hlineto
          -117 256 rmoveto
          15 vlineto
          26 -1 30 -3 34 -3 rrcurveto
          10 -1 hlineto
          -3 -12 -4 -25 -6 vhcurveto
          242 67 rmoveto
          6 3 -13 -25 hvcurveto
          -19 vlineto
          -6 -1 -4 -3 -3 vhcurveto
          -19 -5 -5 -9 -5 hhcurveto
          -4 hlineto
          -2 1 rlineto
          3 vlineto
          7 23 3 23 23 vvcurveto
          19 vlineto
          2 6 rlineto
          -48 -229 rmoveto
          15 31 20 21 25 12 rrcurveto
          -2 vlineto
          -3 -15 -18 -23 -35 -29 rrcurveto
          -4 hlineto
          -94 539 rmoveto
          10 -3 11 -8 13 -13 rrcurveto
          -1 vlineto
          -2 -2 rlineto
          -2 -1 -1 -1 hvcurveto
          -1 vlineto
          15 -5 7 -2 -1 vvcurveto
          -2 vlineto
          -10 2 -9 -4 rlineto
          -6 hlineto
          -7 3 -4 4 -1 3 2 3 rcurveline
          -21 10 -12 6 -1 2 rrcurveto
          4 vlineto
          7 4 2 5 hvcurveto
          -258 -614 rmoveto
          9 31 -6 -12 55 hvcurveto
          -3 vlineto
          -3 -5 -1 -9 -1 vhcurveto
          -29 3 rlineto
          -35 10 -17 7 4 vvcurveto
          42 639 rmoveto
          4 8 2 16 1 vhcurveto
          3 hlineto
          5 5 -2 -3 6 hvcurveto
          33 4 rlineto
          3 hlineto
          7 -1 rlineto
          -3 vlineto
          -2 -7 -1 -13 -3 -5 -3 -7 -7 vhcurveto
          -34 -17 3 7 hvcurveto
          338 -173 rmoveto
          11 -17 10 -29 10 -39 rrcurveto
          -2 hlineto
          -15 17 -12 24 -7 32 rrcurveto
          12 vlineto
          -164 190 rmoveto
          13 -1 rlineto
          49 -20 24 -15 -9 vvcurveto
          -3 hlineto
          -11 9 -45 19 -26 11 -7 5 rlinecurve
          1 vlineto
          239 -271 rmoveto
          1 hlineto
          5 4 -8 -15 3 hvcurveto
          -7 vlineto
          -4 -2 -7 -4 -9 vhcurveto
          -4 hlineto
          -9 30 rlineto
          3 1 5 3 6 vhcurveto
          -1 2 rlineto
          2 vlineto
          -505 -343 rmoveto
          5 hlineto
          13 6 -3 -7 hvcurveto
          -4 vlineto
          -3 -2 rlineto
          -11 hlineto
          -5 -3 -4 -7 hvcurveto
          -13 vlineto
          -4 -5 rlineto
          -2 hlineto
          -4 5 rlineto
          3 vlineto
          6 2 9 4 11 vhcurveto
          -2 7 rlineto
          452 514 rmoveto
          15 -22 8 -14 -7 vvcurveto
          -21 10 8 -10 7 hhcurveto
          2 3 hlineto
          5 -5 6 -9 9 vhcurveto
          -16 33 -12 17 -7 1 rrcurveto
          -63 -10 rmoveto
          3 2 3 2 4 hhcurveto
          4 hlineto
          1 7 -10 -19 12 hvcurveto
          -3 vlineto
          -2 -3 rlineto
          -3 hlineto
          -13 10 -10 8 -5 7 rrcurveto
          -274 -464 rmoveto
          33 1 16 3 3 2 -16 -33 3 vhcurveto
          -5 -1 -3 -2 -5 hhcurveto
          -2 hlineto
          -80 617 rmoveto
          3 10 2 19 1 vhcurveto
          3 7 -4 -7 9 hvcurveto
          -2 -4 rlineto
          -8 hlineto
          -25 3 -12 3 -1 3 rrcurveto
          78 -172 rmoveto
          22 1 1 11 3 hhcurveto
          2 hlineto
          3 -9 1 -12 -14 vvcurveto
          -15 -1 -8 -3 vhcurveto
          -2 hlineto
          -3 4 rlineto
          10 vlineto
          149 139 rmoveto
          33 -7 16 -5 -5 vvcurveto
          -4 -5 rlineto
          -3 hlineto
          -27 11 -15 7 -3 3 rrcurveto
          1 vlineto
          -40 -671 rmoveto
          6 4 -1 -3 3 hvcurveto
          -6 -1 -5 -3 -9 hhcurveto
          -5 hlineto
          -6 -9 2 4 -12 hvcurveto
          3 vlineto
          364 239 rmoveto
          -16 -34 -9 -22 -3 -10 rrcurveto
          2 hlineto
          4 3 rlineto
          17 34 8 20 5 vvcurveto
          -2 8 rlineto
          -1 hlineto
          -364 -213 rmoveto
          27 hlineto
          15 7 -2 -3 hvcurveto
          -2 vlineto
          -2 -1 rlineto
          -13 hlineto
          -25 1 -12 2 3 vvcurveto
          314 479 rmoveto
          -27 7 6 -13 5 hhcurveto
          2 3 hlineto
          11 -6 13 -12 15 vhcurveto
          -2 hlineto
          -29 -316 rmoveto
          5 5 8 11 11 vhcurveto
          1 hlineto
          3 -1 2 -3 -7 vvcurveto
          -1 vlineto
          -9 -9 -6 -4 -5 hhcurveto
          -2 hlineto
          -487 506 rmoveto
          10 hlineto
          18 -6 rlineto
          -3 vlineto
          -13 1 rlineto
          -4 -4 -2 -4 -4 hvcurveto
          -3 hlineto
          -1 -1 3 5 -1 hvcurveto
          2 vlineto
          153 35 rmoveto
          2 -2 rlineto
          -3 -8 -2 -16 vhcurveto
          -22 hlineto
          -3 3 rlineto
          127 -390 rmoveto
          4 13 11 2 7 hhcurveto
          2 -2 hlineto
          -5 -7 -11 -3 -15 hhcurveto
          -23 377 rmoveto
          5 hlineto
          7 7 -3 -6 6 hvcurveto
          -3 -2 rlineto
          -3 hlineto
          -2 -7 3 6 -12 hvcurveto
          106 -83 rmoveto
          4 7 -3 -7 11 hvcurveto
          -5 vlineto
          -7 -7 4 9 -8 hvcurveto
          -175 3 rmoveto
          2 1 1 1 vhcurveto
          13 -3 hlineto
          -5 -6 rlineto
          -2 hlineto
          -5 -3 2 4 hvcurveto
          -100 -313 rmoveto
          1 hlineto
          -3 11 -1 14 -1 17 rrcurveto
          -1 hlineto
          -18 1 -14 1 -10 vhcurveto
          372 -206 rmoveto
          6 3 3 3 3 hhcurveto
          3 1 0 -1 hvcurveto
          -4 vlineto
          -2 -3 -3 -3 -3 -1 rrcurveto
          -4 hlineto
          -7 501 rmoveto
          11 -3 5 -4 -5 vvcurveto
          -1 -3 vlineto
          -8 5 -4 4 -1 2 rrcurveto
          -368 41 rmoveto
          2 1 3 1 6 hhcurveto
          6 -2 hlineto
          -3 -1 -2 -2 -4 hhcurveto
          -6 hlineto
          142 -446 rmoveto
          -18 vlineto
          -3 -3 rlineto
          -1 hlineto
          -1 6 rlineto
          2 vlineto
          1 13 rlineto
          -72 162 rmoveto
          4 2 -15 6 16 3 rlineto
          -5 0 -4 -1 -3 vhcurveto
          -32 -289 rmoveto
          5 3 -2 -3 1 hvcurveto
          -3 -2 rlineto
          -6 hlineto
          -3 3 rlineto
          2 vlineto
          208 281 rmoveto
          3 3 1 5 vhcurveto
          5 hlineto
          -4 -1 -4 -2 -6 hhcurveto
          -2 hlineto
          36 -316 rmoveto
          3 4 1 9 1 vhcurveto
          4 -1 hlineto
          -4 -4 rlineto
          -198 472 rmoveto
          -5 vlineto
          -2 -10 rlineto
          -3 3 hlineto
          3 12 rlineto
          -117 152 rmoveto
          3 hlineto
          4 3 -2 -3 2 hvcurveto
          -1 -1 vlineto
          -14 3 rlineto
          392 -542 rmoveto
          4 -3 hlineto
          -3 -3 rlineto
          -3 hlineto
          -2 3 rlineto
          -207 381 rmoveto
          -5 3 vlineto
          2 3 rlineto
          3 -2 vlineto
          -169 188 rmoveto
          3 hlineto
          2 -3 -2 -3 rlineto
          -3 hlineto
          -3 3 rlineto
          31 -335 rmoveto
          -2 2 vlineto
          3 2 rlineto
          3 -3 vlineto
          -17 -295 rmoveto
          3 -2 hlineto
          -3 -4 -3 3 rlineto
          300 315 rmoveto
          2 4 0 7 -2 vhcurveto
          -90 343 rmoveto
          -3 -4 3 vlineto
          75 -365 rmoveto
          2 -2 rlineto
          -5 2 hlineto
          -238 33 rmoveto
          6 -2 -7 -1 rlineto
          114 -341 rmoveto
          -2 -4 2 vlineto
          119 281 rmoveto
          1 -1 rlineto
          -1 hlineto
          endchar
        </CharString>
        <CharString name="Euro">
          77 406 733 rmoveto
          -40 -60 -26 -52 -79 hvcurveto
          -13 -18 -28 -30 -42 -43 -13 -14 -15 -37 -15 -59 rrcurveto
          -21 -2 -5 -10 -9 hhcurveto
          -11 hlineto
          -16 -12 3 7 -8 hvcurveto
          -2 -3 -1 -7 -4 -4 2 3 -5 vhcurveto
          -5 hlineto
          -9 -7 -5 -10 -13 vvcurveto
          -12 vlineto
          -9 23 -4 45 vhcurveto
          6 -2 rlineto
          -2 vlineto
          -25 -2 rlineto
          -23 hlineto
          -16 -8 -1 -2 hvcurveto
          -2 vlineto
          71 -11 rlineto
          5 2 -21 -42 1 hvcurveto
          -3 vlineto
          -3 -17 -3 -35 -1 vhcurveto
          -10 1 -2 -3 rlineto
          -19 -3 -3 -10 -3 hhcurveto
          -6 1 1 -3 2 hhcurveto
          -16 4 -8 8 vhcurveto
          20 hlineto
          -7 15 -3 30 vhcurveto
          11 -41 12 -33 13 -27 9 -29 25 -34 40 -41 41 -39 43 -29 47 -21 rrcurveto
          -37 96 58 -19 20 hhcurveto
          41 4 rlineto
          21 7 10 8 8 vvcurveto
          -1 26 -2 14 -2 3 rrcurveto
          4 -5 2 -9 -7 -4 4 9 -1 vhcurveto
          -66 5 -94 30 -45 12 -33 15 -20 18 rlinecurve
          -45 48 -23 31 -2 13 -3 41 -4 26 -4 13 rrcurveto
          1 vlineto
          5 5 rlineto
          13 hlineto
          123 -19 -10 9 60 -9 rlineto
          3 14 12 1 9 hhcurveto
          45 hlineto
          29 15 9 18 6 -2 8 -4 10 hvcurveto
          -1 hlineto
          -12 -10 rlineto
          -10 hlineto
          -5 -5 1 3 -3 hvcurveto
          -103 16 rlineto
          -18 -55 7 14 -91 hvcurveto
          -19 2 -10 5 8 vvcurveto
          38 3 3 19 3 hhcurveto
          1 hlineto
          -7 49 43 -4 35 hhcurveto
          -8 78 59 -4 39 hhcurveto
          12 hlineto
          9 1 rlineto
          4 vlineto
          3 -5 2 -9 3 vhcurveto
          18 14 rlineto
          6 -4 6 -7 5 vhcurveto
          -45 9 -28 8 -13 5 rrcurveto
          -33 -45 6 12 -57 hvcurveto
          -29 -6 rlineto
          -18 -25 5 9 -33 hvcurveto
          5 vlineto
          3 3 1 4 5 vvcurveto
          8 9 24 18 41 vhcurveto
          11 13 21 26 31 vhcurveto
          4 9 22 12 39 15 rrcurveto
          29 60 49 14 39 hhcurveto
          46 -8 rlineto
          8 hlineto
          7 6 2 3 5 hvcurveto
          5 2 -1 -2 1 hvcurveto
          14 7 19 39 hvcurveto
          -1 7 rlineto
          13 -42 8 -84 3 vhcurveto
          -6 -7 -4 -7 -8 hvcurveto
          -7 1 hlineto
          3 1 3 3 3 vhcurveto
          3 -6 vlineto
          126 -40 rmoveto
          5 2 3 4 1 vhcurveto
          5 hlineto
          3 -1 2 -3 -3 vvcurveto
          -5 -2 -3 -3 -1 vhcurveto
          -2 hlineto
          -5 -3 1 3 -1 hvcurveto
          -194 hmoveto
          5 3 4 7 1 vhcurveto
          2 -2 rlineto
          -5 -3 -4 -3 -5 hhcurveto
          49 7 rmoveto
          2 3 1 5 3 3 -1 -2 1 vhcurveto
          -2 -2 rlineto
          -10 hlineto
          41 5 rmoveto
          4 hlineto
          4 -4 rlineto
          -1 vlineto
          -2 -3 -2 -5 -1 vhcurveto
          -21 3 rlineto
          4 vlineto
          -139 -27 rmoveto
          1 3 7 4 13 3 rrcurveto
          8 hlineto
          -5 -7 -5 -15 -3 vhcurveto
          -5 1 -2 1 1 vvcurveto
          255 hmoveto
          -2 -1 2 vlineto
          -71 -2 rmoveto
          2 hlineto
          3 -3 rlineto
          -1 -8 1 vlineto
          -192 -4 rmoveto
          1 2 1 1 3 1 2 -1 rcurveline
          -5 -3 rlineto
          85 -7 rmoveto
          6 6 12 3 17 hhcurveto
          16 hlineto
          3 -2 rlineto
          -4 -16 -3 -32 -2 vhcurveto
          -6 hlineto
          -75 1 rmoveto
          5 -3 hlineto
          -3 -4 rlineto
          -2 hlineto
          -2 4 rlineto
          -30 -24 rmoveto
          6 6 5 12 3 vhcurveto
          2 hlineto
          -9 -9 -6 -5 -5 hhcurveto
          66 3 rmoveto
          4 hlineto
          2 -3 rlineto
          -1 vlineto
          -4 -5 rlineto
          -2 hlineto
          -2 3 rlineto
          3 vlineto
          -115 -40 rmoveto
          6 8 9 17 13 vhcurveto
          1 hlineto
          -19 -7 -8 -9 -7 hhcurveto
          86 17 rmoveto
          3 2 2 4 3 vhcurveto
          2 -4 hlineto
          -1 -3 -3 -2 -3 -1 rrcurveto
          -123 -50 rmoveto
          13 9 9 18 3 vhcurveto
          4 -1 2 -1 -2 vvcurveto
          -5 vlineto
          -15 -12 -9 -8 -6 hhcurveto
          -2 hlineto
          -4 5 rlineto
          -76 vmoveto
          5 1 4 2 1 vhcurveto
          1 hlineto
          9 6 -2 -4 2 hvcurveto
          -2 vlineto
          -4 -2 -3 -3 -2 vhcurveto
          -9 hlineto
          -5 -2 1 3 hvcurveto
          -8 -52 rmoveto
          21 3 3 11 5 hhcurveto
          3 hlineto
          3 -4 rlineto
          -9 vlineto
          -13 -2 -3 -6 -4 hhcurveto
          -6 -18 rmoveto
          8 -2 hlineto
          -3 -1 -3 -2 -4 hhcurveto
          -2 3 rlineto
          2 vlineto
          29 hmoveto
          6 hlineto
          63 -10 rlineto
          -4 -18 vlineto
          -6 -18 3 7 -30 hvcurveto
          -126 2 rmoveto
          4 hlineto
          9 -1 4 -2 -2 vvcurveto
          -21 2 hlineto
          306 -17 rmoveto
          18 -1 9 -1 -2 vvcurveto
          -9 hlineto
          -18 2 rlineto
          -12 -28 rmoveto
          3 5 1 11 vhcurveto
          27 hlineto
          27 -1 13 -2 -3 vvcurveto
          -3 -27 vlineto
          -37 1 -19 1 3 vvcurveto
          -238 -29 rmoveto
          13 11 rlineto
          2 hlineto
          3 1 -5 -9 hvcurveto
          -12 vlineto
          -9 -2 -6 -5 -1 vhcurveto
          -7 hlineto
          -5 4 -2 4 5 vvcurveto
          10 vlineto
          58 -12 rmoveto
          10 1 1 5 2 hhcurveto
          3 -20 hlineto
          -1 -6 rlineto
          -2 hlineto
          -2 -1 4 7 -1 hvcurveto
          -81 -32 rmoveto
          -2 -3 rlineto
          -40 hlineto
          -4 -2 1 3 -1 hvcurveto
          10 vlineto
          1 1 rlineto
          189 -26 rmoveto
          4 1 1 2 1 hhcurveto
          35 -2 rlineto
          1 hlineto
          1 -1 rlineto
          -4 -9 -2 -18 vhcurveto
          -5 hlineto
          -196 -10 rmoveto
          6 4 8 3 13 hhcurveto
          14 hlineto
          2 -4 rlineto
          -3 -13 -2 -26 vhcurveto
          37 -9 rmoveto
          4 4 3 2 3 hhcurveto
          4 -2 rlineto
          2 hlineto
          -3 -2 -2 -5 -2 vhcurveto
          -8 hlineto
          257 16 rmoveto
          2 hlineto
          15 -3 rlineto
          -3 -12 vlineto
          -4 -2 1 2 -1 hvcurveto
          -153 -8 rmoveto
          4 hlineto
          5 -5 -4 -5 rlineto
          -3 hlineto
          -4 5 rlineto
          3 vlineto
          201 9 rmoveto
          -1 vlineto
          -2 -3 rlineto
          -5 hlineto
          -8 2 rlineto
          2 vlineto
          -155 -11 rmoveto
          19 16 -2 -4 12 hvcurveto
          47 -1 24 -3 -6 vvcurveto
          -2 vlineto
          -4 -1 1 -5 -11 1 -21 7 rlinecurve
          -53 7 -28 4 -2 3 rrcurveto
          1 vlineto
          -97 -15 rmoveto
          6 hlineto
          4 -1 rlineto
          9 4 -9 -19 hvcurveto
          -3 -2 vlineto
          -15 12 -8 8 5 vvcurveto
          4 vlineto
          311 5 rmoveto
          4 -2 hlineto
          -2 -3 -2 -2 -3 -1 -4 2 rcurveline
          -248 -11 rmoveto
          2 6 -16 -32 10 hvcurveto
          -2 -4 rlineto
          -6 hlineto
          -4 -4 17 35 -4 hvcurveto
          35 -12 rmoveto
          4 -1 2 -5 -7 vvcurveto
          -5 -1 vlineto
          -4 4 -2 5 7 vvcurveto
          2 vlineto
          -73 -11 rmoveto
          4 3 -2 -4 1 hvcurveto
          -1 -2 vlineto
          -3 -3 2 3 -2 hvcurveto
          2 vlineto
          7 -25 rmoveto
          7 6 -8 -16 4 hvcurveto
          -5 -3 vlineto
          -9 11 -5 9 9 vvcurveto
          24 -49 rmoveto
          5 5 -5 -9 6 hvcurveto
          -4 vlineto
          -11 4 -5 4 5 vvcurveto
          35 -22 rmoveto
          2 -4 rlineto
          -2 hlineto
          -1 -1 -3 3 rlineto
          2 vlineto
          35 -23 rmoveto
          26 -19 13 -11 -3 vvcurveto
          -1 -2 vlineto
          -7 -6 3 7 -6 hvcurveto
          -19 11 -10 8 5 vvcurveto
          3 vlineto
          -11 -11 rmoveto
          3 -1 -4 -5 -5 5 rlineto
          1 vlineto
          25 -17 rmoveto
          7 7 -5 -11 8 hvcurveto
          -9 -1 vlineto
          -6 -9 8 15 -11 hvcurveto
          2 vlineto
          69 -16 rmoveto
          3 hlineto
          2 -3 rlineto
          -1 vlineto
          -3 -4 rlineto
          -2 hlineto
          -2 3 rlineto
          2 vlineto
          19 -24 rmoveto
          9 -1 12 -5 16 -10 -4 -3 rcurveline
          -2 hlineto
          -11 -11 6 11 -12 hvcurveto
          2 vlineto
          76 -23 rmoveto
          11 8 -3 -6 5 hvcurveto
          -3 vlineto
          -4 -2 rlineto
          -14 5 -7 3 3 vvcurveto
          1 vlineto
          -55 -10 rmoveto
          14 -3 12 -5 9 -7 rrcurveto
          -2 vlineto
          -10 2 -12 5 -13 8 rrcurveto
          94 hmoveto
          5 5 -3 -7 3 hvcurveto
          -1 -3 rlineto
          -14 1 -7 4 8 vvcurveto
          51 -7 rmoveto
          2 hlineto
          1 -4 -8 -2 rlineto
          -3 3 hlineto
          117 -7 rmoveto
          3 -4 rlineto
          -2 -1 vlineto
          -4 3 rlineto
          3 vlineto
          -68 -4 rmoveto
          21 hlineto
          22 11 -2 -4 hvcurveto
          -3 -27 vlineto
          -19 -10 2 3 hvcurveto
          2 vlineto
          60 -20 rmoveto
          3 2 3 1 4 hhcurveto
          6 hlineto
          4 -3 rlineto
          -5 vlineto
          -2 -3 rlineto
          -5 hlineto
          -8 2 -4 2 3 vvcurveto
          -94 hmoveto
          5 hlineto
          4 2 -1 -3 1 hvcurveto
          -5 vlineto
          -3 -4 rlineto
          -8 hlineto
          -8 -6 3 6 -5 hvcurveto
          2 vlineto
          45 -15 rmoveto
          3 1 3 2 5 hhcurveto
          12 12 -2 -3 11 hvcurveto
          -4 vlineto
          -21 -2 rlineto
          -7 hlineto
          -5 -6 2 4 -5 hvcurveto
          endchar
        </CharString>
        <CharString name="F">
          -83 93 643 rmoveto
          -37 -18 -4 -7 hvcurveto
          2 -2 hlineto
          -2 -3 rlineto
          -2 hlineto
          8 -2 -2 4 -1 hhcurveto
          -3 hlineto
          -3 -3 -5 -9 -1 hvcurveto
          2 -13 rlineto
          -24 24 -12 48 vhcurveto
          14 hlineto
          10 -1 5 -4 -7 vvcurveto
          -2 -16 -1 -18 -20 vvcurveto
          -53 vlineto
          -79 1 -46 3 -13 vhcurveto
          -4 -15 4 -37 14 -11 rlineto
          -26 vlineto
          -2 -6 rlineto
          -3 hlineto
          -7 3 -9 -151 rlineto
          -11 -6 -7 -13 -2 vhcurveto
          -52 -5 -26 -5 -4 vvcurveto
          -1 -11 -1 -8 -3 -4 2 -10 rcurveline
          -1 -14 9 -3 rlineto
          1 hlineto
          1 2 65 2 56 3 47 5 rlinecurve
          20 hlineto
          22 -2 rlineto
          2 1 vlineto
          15 8 16 32 3 hvcurveto
          3 -2 1 -4 1 vhcurveto
          -2 1 -41 3 -23 3 -4 3 rlinecurve
          -9 91 -5 60 29 vvcurveto
          2 20 rlineto
          34 vlineto
          5 3 3 7 3 vhcurveto
          96 -6 rlineto
          -5 vlineto
          -8 -11 rlineto
          -3 vlineto
          5 -1 43 -17 rlineto
          8 9 27 55 11 hvcurveto
          -5 14 -2 10 5 vvcurveto
          15 vlineto
          -4 5 rlineto
          -23 hlineto
          -19 -10 -10 -21 hvcurveto
          -64 3 rlineto
          -29 -14 2 4 hvcurveto
          -4 170 rlineto
          5 vlineto
          13 3 7 7 vhcurveto
          209 10 rlineto
          27 hlineto
          13 -2 rlineto
          7 5 -13 -25 3 hvcurveto
          -14 -51 rlineto
          -2 vlineto
          -12 22 -6 43 4 4 5 9 3 vhcurveto
          5 27 4 22 5 19 rrcurveto
          17 -3 27 -7 37 vhcurveto
          5 -126 3 -252 vhcurveto
          151 -21 rmoveto
          2 3 1 5 1 vhcurveto
          3 -2 hlineto
          -3 -1 -2 -1 -5 hhcurveto
          -3 hlineto
          -235 hmoveto
          3 8 1 17 1 vhcurveto
          15 14 -2 -3 12 hvcurveto
          -3 vlineto
          -9 -2 -4 -2 -2 vvcurveto
          -3 vlineto
          10 -6 rlineto
          -1 vlineto
          -3 -15 -3 -29 -2 vhcurveto
          -1 4 hlineto
          4 3 4 7 3 vhcurveto
          2 -5 vlineto
          -12 -8 3 7 -3 hvcurveto
          453 -22 rmoveto
          -11 vlineto
          -6 -1 -5 -1 -3 vhcurveto
          1 -2 rlineto
          -10 vlineto
          -2 -3 rlineto
          -2 hlineto
          -5 3 -2 5 5 vvcurveto
          3 vlineto
          5 3 9 6 14 vhcurveto
          -301 -13 rmoveto
          -2 -3 2 vlineto
          300 -68 rmoveto
          1 -1 2 -1 2 -3 rrcurveto
          -2 -3 vlineto
          -2 1 -1 2 -1 3 rrcurveto
          1 vlineto
          -357 -27 rmoveto
          -4 -3 4 vlineto
          189 -107 rmoveto
          2 -3 rlineto
          -2 -3 vlineto
          -4 3 rlineto
          2 vlineto
          -141 -54 rmoveto
          2 hlineto
          13 -1 6 -1 -3 vvcurveto
          -21 hlineto
          -3 1 rlineto
          -50 -178 rmoveto
          5 -5 rlineto
          -7 vlineto
          -3 -3 rlineto
          -2 hlineto
          -2 12 rlineto
          19 -20 rmoveto
          -7 vlineto
          -6 -1 -3 -3 -1 vhcurveto
          -2 hlineto
          -1 3 rlineto
          6 1 5 3 5 vhcurveto
          -12 -2 rmoveto
          -4 -2 4 vlineto
          endchar
        </CharString>
        <CharString name="G">
          4 452 638 rmoveto
          -27 -16 -6 -12 -6 hvcurveto
          2 -7 rlineto
          -5 vlineto
          -5 -2 -4 -3 -3 vhcurveto
          -2 hlineto
          19 -68 -47 10 -26 hhcurveto
          -1 hlineto
          -35 -5 -21 -5 -9 -4 -50 -27 -29 -18 -9 -10 -3 -9 -4 -6 -4 -3 -26 -41 -22 -32 -19 -24 -12 -30 -7 -30 -1 -30 rrcurveto
          1 hlineto
          3 5 3 1 2 hhcurveto
          3 2 -4 -8 1 hvcurveto
          -8 -1 -1 -4 -2 hhcurveto
          -9 9 rlineto
          -1 hlineto
          -2 -93 8 -43 11 -33 13 -22 rlinecurve
          -8 12 -22 25 -37 vhcurveto
          12 -19 16 -17 19 -15 18 -8 15 -10 11 -11 rrcurveto
          -22 48 45 -11 43 hhcurveto
          7 hlineto
          14 17 4 8 21 hvcurveto
          17 22 12 8 3 hhcurveto
          7 3 -7 -15 -21 6 -10 11 hvcurveto
          3 7 6 2 5 hhcurveto
          44 hlineto
          4 1 rlineto
          2 hlineto
          -6 6 -3 48 91 vvcurveto
          81 -2 40 -5 vhcurveto
          4 vlineto
          29 -2 rlineto
          12 8 9 18 5 hvcurveto
          8 vlineto
          3 33 rlineto
          4 -4 3 -8 2 vhcurveto
          -95 -9 -78 1 rlineto
          -11 -8 -13 -27 -4 hvcurveto
          1 -8 rlineto
          -7 22 -5 45 -3 vhcurveto
          14 7 -3 -7 hvcurveto
          -12 vlineto
          -61 -5 -33 -10 -6 vhcurveto
          -30 -33 -29 -15 -27 hhcurveto
          -84 -52 9 17 -19 hvcurveto
          -12 11 -7 12 -2 11 rrcurveto
          -21 25 -11 14 5 vvcurveto
          -24 57 -12 38 18 vvcurveto
          -11 53 rlineto
          1 vlineto
          50 31 55 61 60 vhcurveto
          43 37 36 21 36 hhcurveto
          41 33 -8 -16 24 hvcurveto
          31 -26 15 -15 -4 vvcurveto
          -3 -12 rlineto
          -13 8 -6 17 vhcurveto
          4 hlineto
          24 3 12 6 9 vvcurveto
          5 4 45 89 3 hvcurveto
          13 -8 7 -15 vhcurveto
          -355 -175 rmoveto
          2 13 13 17 23 21 rrcurveto
          3 hlineto
          -4 -13 -17 -25 -30 vhcurveto
          -15 39 rmoveto
          4 3 3 6 3 vhcurveto
          1 -3 hlineto
          -2 -3 -3 -2 -3 -2 rrcurveto
          -28 -52 rmoveto
          3 -3 hlineto
          -4 -3 rlineto
          -2 2 hlineto
          460 -157 rmoveto
          1 hlineto
          2 -3 rlineto
          -1 vlineto
          -3 -4 -3 2 rlineto
          3 vlineto
          -104 -195 rmoveto
          3 hlineto
          3 -3 -4 -3 rlineto
          -3 hlineto
          -2 3 rlineto
          -79 -35 rmoveto
          5 3 5 2 7 hhcurveto
          2 -1 hlineto
          -6 -5 -4 -3 -5 hhcurveto
          -2 -1 1 2 hvcurveto
          -160 3 rmoveto
          7 12 -3 -6 16 hvcurveto
          -2 -3 rlineto
          -12 hlineto
          -17 3 -8 4 3 vvcurveto
          2 vlineto
          260 -50 rmoveto
          4 -2 rlineto
          -2 vlineto
          -2 -2 -1 -4 -1 vhcurveto
          -2 2 rlineto
          3 vlineto
          -80 -16 rmoveto
          7 5 6 4 8 hhcurveto
          5 hlineto
          1 -4 rlineto
          -7 -9 -8 -3 -7 hhcurveto
          -1 hlineto
          endchar
        </CharString>
        <CharString name="Gbreve">
          4 153 185 71 198 endchar
        </CharString>
        <CharString name="Gcircumflex">
          4 109 251 71 195 endchar
        </CharString>
        <CharString name="Gcommaaccent">
          4 452 638 rmoveto
          -27 -16 -6 -12 -6 hvcurveto
          2 -7 rlineto
          -5 vlineto
          -5 -2 -4 -3 -3 vhcurveto
          -2 hlineto
          19 -68 -47 10 -26 hhcurveto
          -1 hlineto
          -35 -5 -21 -5 -9 -4 -50 -27 -29 -18 -9 -10 -3 -9 -4 -6 -4 -3 -26 -41 -22 -32 -19 -24 -12 -30 -7 -30 -1 -30 rrcurveto
          1 hlineto
          3 5 3 1 2 hhcurveto
          3 2 -4 -8 1 hvcurveto
          -8 -1 -1 -4 -2 hhcurveto
          -9 9 rlineto
          -1 hlineto
          -2 -93 8 -43 11 -33 13 -22 rlinecurve
          -8 12 -22 25 -37 vhcurveto
          12 -19 16 -17 19 -15 18 -8 15 -10 11 -11 rrcurveto
          -22 48 45 -11 43 hhcurveto
          7 hlineto
          14 17 4 8 21 hvcurveto
          17 22 12 8 3 hhcurveto
          7 3 -7 -15 -21 6 -10 11 hvcurveto
          3 7 6 2 5 hhcurveto
          44 hlineto
          4 1 rlineto
          2 hlineto
          -6 6 -3 48 91 vvcurveto
          81 -2 40 -5 vhcurveto
          4 vlineto
          29 -2 rlineto
          12 8 9 18 5 hvcurveto
          8 vlineto
          3 33 rlineto
          4 -4 3 -8 2 vhcurveto
          -95 -9 -78 1 rlineto
          -11 -8 -13 -27 -4 hvcurveto
          1 -8 rlineto
          -7 22 -5 45 -3 vhcurveto
          14 7 -3 -7 hvcurveto
          -12 vlineto
          -61 -5 -33 -10 -6 vhcurveto
          -30 -33 -29 -15 -27 hhcurveto
          -84 -52 9 17 -19 hvcurveto
          -12 11 -7 12 -2 11 rrcurveto
          -21 25 -11 14 5 vvcurveto
          -24 57 -12 38 18 vvcurveto
          -11 53 rlineto
          1 vlineto
          50 31 55 61 60 vhcurveto
          43 37 36 21 36 hhcurveto
          41 33 -8 -16 24 hvcurveto
          31 -26 15 -15 -4 vvcurveto
          -3 -12 rlineto
          -13 8 -6 17 vhcurveto
          4 hlineto
          24 3 12 6 9 vvcurveto
          5 4 45 89 3 hvcurveto
          13 -8 7 -15 vhcurveto
          -355 -175 rmoveto
          2 13 13 17 23 21 rrcurveto
          3 hlineto
          -4 -13 -17 -25 -30 vhcurveto
          -15 39 rmoveto
          4 3 3 6 3 vhcurveto
          1 -3 hlineto
          -2 -3 -3 -2 -3 -2 rrcurveto
          -28 -52 rmoveto
          3 -3 hlineto
          -4 -3 rlineto
          -2 2 hlineto
          460 -157 rmoveto
          1 hlineto
          2 -3 rlineto
          -1 vlineto
          -3 -4 -3 2 rlineto
          3 vlineto
          -104 -195 rmoveto
          3 hlineto
          3 -3 -4 -3 rlineto
          -3 hlineto
          -2 3 rlineto
          -79 -35 rmoveto
          5 3 5 2 7 hhcurveto
          2 -1 hlineto
          -6 -5 -4 -3 -5 hhcurveto
          -2 -1 1 2 hvcurveto
          -160 3 rmoveto
          7 12 -3 -6 16 hvcurveto
          -2 -3 rlineto
          -12 hlineto
          -17 3 -8 4 3 vvcurveto
          2 vlineto
          260 -50 rmoveto
          4 -2 rlineto
          -2 vlineto
          -2 -2 -1 -4 -1 vhcurveto
          -2 2 rlineto
          3 vlineto
          -80 -16 rmoveto
          7 5 6 4 8 hhcurveto
          5 hlineto
          1 -4 rlineto
          -7 -9 -8 -3 -7 hhcurveto
          -1 hlineto
          -99 -77 rmoveto
          -8 -6 -2 -4 -3 hvcurveto
          -2 vlineto
          2 -1 rlineto
          15 hlineto
          2 -4 rlineto
          -2 -4 -2 -7 -3 vhcurveto
          -21 -10 -16 -31 hvcurveto
          -8 vlineto
          -24 9 -20 19 -15 vhcurveto
          19 -2 10 -2 -1 vvcurveto
          -4 vlineto
          -9 -3 -19 -7 -29 vhcurveto
          -3 vlineto
          10 -3 5 -2 -1 vvcurveto
          -1 vlineto
          -2 -1 rlineto
          -10 -8 -7 -14 -7 hvcurveto
          2 -3 rlineto
          3 4 1 2 3 hvcurveto
          8 -8 rlineto
          7 13 12 23 19 hvcurveto
          12 15 8 15 5 15 -14 3 rcurveline
          4 vlineto
          7 3 4 3 1 vvcurveto
          2 vlineto
          -3 -2 1 2 hvcurveto
          12 9 6 17 26 vvcurveto
          4 -2 5 -3 6 vhcurveto
          4 12 rlineto
          5 -2 -2 2 -2 hhcurveto
          -11 -3 rlineto
          -3 -9 9 18 -13 hvcurveto
          2 5 2 10 2 vhcurveto
          1 vlineto
          16 -29 -20 8 -12 hhcurveto
          15 -18 rmoveto
          10 -5 -13 2 hlineto
          -21 -29 rmoveto
          8 10 4 19 vhcurveto
          8 -2 rlineto
          -2 vlineto
          -14 -21 -14 -7 -5 hhcurveto
          3 vlineto
          12 -25 rmoveto
          9 5 6 10 2 vhcurveto
          1 hlineto
          4 -4 rlineto
          -5 vlineto
          -1 -6 rlineto
          -9 hlineto
          -8 -7 -2 1 rlineto
          endchar
        </CharString>
        <CharString name="Gdotaccent">
          4 210 275 71 199 endchar
        </CharString>
        <CharString name="H">
          58 499 668 rmoveto
          -31 -5 -42 -4 -51 -3 rrcurveto
          -1 -2 -8 -16 -2 hvcurveto
          -41 8 7 -20 6 hhcurveto
          3 -4 4 -21 5 -37 rrcurveto
          -32 vlineto
          4 -28 rlineto
          -2 vlineto
          -2 -4 rlineto
          -2 vlineto
          4 -5 rlineto
          -4 -7 -2 -5 -4 vvcurveto
          4 -51 -2 -4 -209 7 rlineto
          -5 -3 6 11 hvcurveto
          -17 205 rlineto
          6 vlineto
          4 2 5 5 5 vhcurveto
          -3 7 5 13 -13 3 rlineto
          -26 -28 -1 -2 -31 hvcurveto
          -53 -27 -8 -16 hvcurveto
          10 -23 rlineto
          -6 27 -3 53 vhcurveto
          1 hlineto
          8 -3 rlineto
          -99 4 3 -49 3 hhcurveto
          -1 -44 rlineto
          5 -61 2 -82 -105 vvcurveto
          -49 vlineto
          -1 -10 rlineto
          -4 -8 -2 -16 vhcurveto
          -26 hlineto
          -7 -4 -1 -2 -3 hvcurveto
          -8 -43 rlineto
          -13 12 -10 25 -7 vhcurveto
          -8 12 28 -4 45 hhcurveto
          26 13 10 19 4 -2 6 -4 8 hvcurveto
          6 19 rlineto
          -4 17 -2 17 17 vvcurveto
          34 vlineto
          1 113 -1 40 4 5 207 -5 rlineto
          2 hlineto
          -31 2 -46 3 -59 vhcurveto
          -7 vlineto
          -6 2 -11 4 -16 vhcurveto
          -2 vlineto
          -4 -22 rlineto
          -15 vlineto
          -15 3 -23 6 -32 vhcurveto
          -6 17 -3 34 vhcurveto
          11 hlineto
          5 -1 5 1 rlineto
          19 hlineto
          44 22 6 13 9 -3 21 -6 34 hvcurveto
          13 -29 6 -57 vhcurveto
          -2 hlineto
          123 -7 111 -15 98 vhcurveto
          3 44 rlineto
          16 vlineto
          -14 59 -7 33 7 vvcurveto
          4 vlineto
          3 4 rlineto
          55 7 27 5 4 vvcurveto
          -2 26 rlineto
          17 -11 11 -21 5 vhcurveto
          -104 -25 rmoveto
          12 hlineto
          4 3 -1 -3 1 hvcurveto
          -3 -1 -4 -1 -5 hhcurveto
          -5 hlineto
          -4 -2 1 3 -1 hvcurveto
          2 vlineto
          12 -17 rmoveto
          4 -5 hlineto
          -4 -2 -2 2 rlineto
          2 vlineto
          -376 -11 rmoveto
          -4 2 hlineto
          2 2 rlineto
          128 -55 rmoveto
          4 -3 rlineto
          -3 -4 vlineto
          -2 3 rlineto
          3 vlineto
          -23 -7 rmoveto
          -7 vlineto
          -1 vlineto
          -9 -5 vlineto
          -1 5 1 12 rlineto
          328 -79 rmoveto
          3 -2 rlineto
          -3 vlineto
          -3 -2 -3 2 rlineto
          3 vlineto
          2 -22 rmoveto
          7 1 3 3 vhcurveto
          1 -2 rlineto
          -9 vlineto
          -1 -3 rlineto
          -3 hlineto
          -321 -79 rmoveto
          4 -2 2 -3 -5 vvcurveto
          -3 -2 rlineto
          -1 hlineto
          -3 1 -1 2 5 vvcurveto
          4 vlineto
          67 -14 rmoveto
          4 -4 rlineto
          -1 -3 vlineto
          -3 3 rlineto
          2 vlineto
          146 hmoveto
          2 -2 -2 -3 rlineto
          -6 hlineto
          -27 3 rlineto
          2 vlineto
          -174 -6 rmoveto
          3 -1 hlineto
          -3 -3 rlineto
          -2 2 hlineto
          220 -27 rmoveto
          3 1 3 1 6 hhcurveto
          8 hlineto
          1 -2 -4 -3 rlineto
          -14 hlineto
          68 -60 rmoveto
          3 -3 rlineto
          -6 -2 vlineto
          -3 3 rlineto
          3 vlineto
          2 -12 rmoveto
          3 -2 rlineto
          -9 vlineto
          -3 -2 rlineto
          -2 11 hlineto
          33 -122 rmoveto
          -3 vlineto
          -3 -2 -2 2 rlineto
          7 vlineto
          -265 -3 rmoveto
          3 -8 rlineto
          -3 hlineto
          -2 -1 2 5 -1 hvcurveto
          1 vlineto
          -68 -76 rmoveto
          -2 -4 2 vlineto
          82 -16 rmoveto
          3 hlineto
          3 -3 rlineto
          -2 vlineto
          -6 -5 rlineto
          -1 hlineto
          -3 4 rlineto
          1 vlineto
          380 -7 rmoveto
          1 hlineto
          3 -1 rlineto
          -4 -6 4 vlineto
          -27 hmoveto
          9 hlineto
          2 -4 rlineto
          -3 -1 -2 -1 -5 hhcurveto
          -5 hlineto
          -2 4 rlineto
          endchar
        </CharString>
        <CharString name="Hbar">
          58 499 668 rmoveto
          -31 -5 -42 -4 -51 -3 rrcurveto
          -1 -2 -8 -16 -2 hvcurveto
          -41 8 7 -20 6 hhcurveto
          2 -3 3 -12 3 -21 -157 -22 rcurveline
          -10 hlineto
          -20 4 rlineto
          -7 -1 -3 -1 -2 vvcurveto
          -9 -1 -8 -1 -7 -2 -7 85 rcurveline
          6 vlineto
          4 2 5 5 5 vhcurveto
          -3 7 5 13 -13 3 rlineto
          -26 -28 -1 -2 -31 hvcurveto
          -53 -27 -8 -16 hvcurveto
          10 -23 rlineto
          -6 27 -3 53 vhcurveto
          1 hlineto
          8 -3 rlineto
          -99 4 3 -49 3 hhcurveto
          -1 -44 rlineto
          5 -61 2 -82 -105 vvcurveto
          -49 vlineto
          -1 -10 rlineto
          -4 -8 -2 -16 vhcurveto
          -26 hlineto
          -7 -4 -1 -2 -3 hvcurveto
          -8 -43 rlineto
          -13 12 -10 25 -7 vhcurveto
          -8 12 28 -4 45 hhcurveto
          26 13 10 19 4 -2 6 -4 8 hvcurveto
          6 19 rlineto
          -4 17 -2 17 17 vvcurveto
          34 vlineto
          1 113 -1 40 4 5 207 -5 rlineto
          2 hlineto
          -31 2 -46 3 -59 vhcurveto
          -7 vlineto
          -6 2 -11 4 -16 vhcurveto
          -2 vlineto
          -4 -22 rlineto
          -15 vlineto
          -15 3 -23 6 -32 vhcurveto
          -6 17 -3 34 vhcurveto
          11 hlineto
          5 -1 5 1 rlineto
          19 hlineto
          44 22 6 13 9 -3 21 -6 34 hvcurveto
          13 -29 6 -57 vhcurveto
          -2 hlineto
          123 -7 111 -15 98 vhcurveto
          3 44 rlineto
          16 vlineto
          -14 59 -7 33 7 vvcurveto
          4 vlineto
          3 4 rlineto
          55 7 27 5 4 vvcurveto
          -2 26 rlineto
          17 -11 11 -21 5 vhcurveto
          -314 -251 rmoveto
          26 2 45 8 65 14 41 3 28 3 17 3 rrcurveto
          -3 vlineto
          -2 -4 rlineto
          -2 vlineto
          4 -5 rlineto
          -4 -7 -2 -5 -4 vvcurveto
          4 -51 -2 -4 -209 7 rlineto
          -5 -3 6 11 hvcurveto
          69 48 rmoveto
          -35 -4 -24 -4 -13 -3 -1 10 rcurveline
          19 7 33 6 48 3 rrcurveto
          10 -1 hlineto
          -3 -12 -5 -25 -6 vhcurveto
          58 18 rmoveto
          11 33 28 5 22 hhcurveto
          1 hlineto
          3 -1 2 -2 1 -2 rrcurveto
          -3 vlineto
          -5 -4 -29 -3 -55 -2 rrcurveto
          -1 hlineto
          31 34 rmoveto
          2 17 4 35 5 vhcurveto
          5 -3 hlineto
          -5 -2 -12 -3 -21 hhcurveto
          -134 2 rmoveto
          4 13 11 2 7 hhcurveto
          3 -1 hlineto
          -6 -8 -11 -3 -13 hhcurveto
          -2 hlineto
          161 157 rmoveto
          12 hlineto
          4 3 -1 -3 1 hvcurveto
          -3 -1 -4 -1 -5 hhcurveto
          -5 hlineto
          -4 -2 1 3 -1 hvcurveto
          2 vlineto
          -54 -289 rmoveto
          2 -2 -2 -3 rlineto
          -6 hlineto
          -27 3 rlineto
          2 vlineto
          29 156 rmoveto
          2 7 2 14 1 vhcurveto
          2 hlineto
          -3 -1 -3 -2 -7 hhcurveto
          -219 44 rmoveto
          -7 vlineto
          -1 vlineto
          -9 -5 vlineto
          -1 5 1 12 rlineto
          227 -235 rmoveto
          3 1 3 1 6 hhcurveto
          8 hlineto
          1 -2 -4 -3 rlineto
          -14 hlineto
          -221 50 rmoveto
          4 -2 2 -3 -5 vvcurveto
          -3 -2 rlineto
          -1 hlineto
          -3 1 -1 2 5 vvcurveto
          4 vlineto
          405 -353 rmoveto
          9 hlineto
          2 -4 rlineto
          -3 -1 -2 -1 -5 hhcurveto
          -5 hlineto
          -2 4 rlineto
          -79 440 rmoveto
          7 1 3 3 vhcurveto
          1 -2 rlineto
          -9 vlineto
          -1 -3 rlineto
          -3 hlineto
          -265 -419 rmoveto
          3 hlineto
          3 -3 rlineto
          -2 vlineto
          -6 -5 rlineto
          -1 hlineto
          -3 4 rlineto
          1 vlineto
          237 220 rmoveto
          3 -2 rlineto
          -9 vlineto
          -3 -2 rlineto
          -2 11 hlineto
          -134 260 rmoveto
          1 2 1 5 1 vhcurveto
          4 -1 hlineto
          -3 -1 -3 -2 -7 hhcurveto
          102 24 rmoveto
          9 -3 -6 hlineto
          -9 1 hlineto
          -199 -400 rmoveto
          3 -8 rlineto
          -3 hlineto
          -2 -1 2 5 -1 hvcurveto
          1 vlineto
          243 138 rmoveto
          3 -3 rlineto
          -6 -2 vlineto
          -3 3 rlineto
          3 vlineto
          -12 371 rmoveto
          4 -5 hlineto
          -4 -2 -2 2 rlineto
          2 vlineto
          47 -504 rmoveto
          -3 vlineto
          -3 -2 -2 2 rlineto
          7 vlineto
          117 -107 rmoveto
          1 hlineto
          3 -1 rlineto
          -4 -6 4 vlineto
          -109 460 rmoveto
          3 -2 rlineto
          -3 vlineto
          -3 -2 -3 2 rlineto
          3 vlineto
          -295 88 rmoveto
          4 -3 rlineto
          -3 -4 vlineto
          -2 3 rlineto
          3 vlineto
          44 -207 rmoveto
          4 -4 rlineto
          -1 -3 vlineto
          -3 3 rlineto
          2 vlineto
          -61 -6 rmoveto
          3 -1 hlineto
          -3 -3 rlineto
          -2 2 hlineto
          198 142 rmoveto
          1 -3 rlineto
          -4 3 hlineto
          -217 -444 rmoveto
          -2 -4 2 vlineto
          -77 568 rmoveto
          -4 2 hlineto
          2 2 rlineto
          endchar
        </CharString>
        <CharString name="Hcircumflex">
          58 125 297 72 195 endchar
        </CharString>
        <CharString name="I">
          40 650 rmoveto
          -1 -1 rlineto
          -1 vlineto
          -1 -20 -15 0 -9 hhcurveto
          -5 hlineto
          -4 5 rlineto
          1 -16 0 -11 -7 vvcurveto
          -1 -20 rlineto
          -17 vlineto
          -7 5 -8 10 -10 vhcurveto
          88 -5 rlineto
          7 8 -122 -245 9 hvcurveto
          -5 -61 4 -38 rlineto
          -5 -1 -3 -3 -5 hhcurveto
          -4 hlineto
          4 -29 -20 2 -11 hhcurveto
          -5 -2 1 -9 rlineto
          -12 -3 vlineto
          9 -3 -3 4 -1 hhcurveto
          -2 hlineto
          -1 -1 -2 -5 -1 hvcurveto
          -21 vlineto
          -30 5 -15 9 vhcurveto
          213 6 10 -6 15 4 rlineto
          25 hlineto
          7 4 17 33 hvcurveto
          9 vlineto
          19 -8 9 -16 -31 -29 -4 -8 -27 vhcurveto
          -4 hlineto
          -7 -4 2 4 hvcurveto
          5 5 3 15 3 26 rrcurveto
          -5 79 -3 56 31 vvcurveto
          -8 48 rlineto
          1 vlineto
          7 14 -9 10 rlineto
          10 vlineto
          1 2 rlineto
          7 3 7 14 hvcurveto
          135 vlineto
          16 14 8 27 vhcurveto
          32 3 16 8 13 vvcurveto
          3 vlineto
          26 -6 20 -12 14 vhcurveto
          -9 -8 2 4 -6 hvcurveto
          4 7 rlineto
          2 vlineto
          -6 1 rlineto
          -11 -45 -45 -5 -44 hhcurveto
          -15 1 -39 -2 rlineto
          1 vlineto
          -29 -78 rmoveto
          2 hlineto
          7 4 -1 -3 1 hvcurveto
          -1 vlineto
          -3 -1 -3 -1 -4 hhcurveto
          -6 -3 1 3 -1 hvcurveto
          2 vlineto
          128 -35 rmoveto
          6 2 4 4 1 vhcurveto
          2 -5 hlineto
          -10 -1 -2 -5 -3 hhcurveto
          -2 hlineto
          136 -493 rmoveto
          4 3 3 5 2 vhcurveto
          3 -2 rlineto
          -1 vlineto
          -2 -4 -3 -3 -3 -1 rrcurveto
          -3 hlineto
          -172 589 rmoveto
          -1 vlineto
          -2 -2 rlineto
          -7 hlineto
          -2 2 rlineto
          1 vlineto
          100 -566 rmoveto
          1 hlineto
          3 -3 -4 -4 -5 2 rlineto
          1 vlineto
          -3 325 rmoveto
          2 -3 3 3 -3 2 rlineto
          -59 156 rmoveto
          1 hlineto
          -4 -5 rlineto
          1 vlineto
          endchar
        </CharString>
        <CharString name="Iacute">
          40 650 rmoveto
          -1 -1 rlineto
          -1 vlineto
          -1 -20 -15 0 -9 hhcurveto
          -5 hlineto
          -4 5 rlineto
          1 -16 0 -11 -7 vvcurveto
          -1 -20 rlineto
          -17 vlineto
          -7 5 -8 10 -10 vhcurveto
          88 -5 rlineto
          7 8 -122 -245 9 hvcurveto
          -5 -61 4 -38 rlineto
          -5 -1 -3 -3 -5 hhcurveto
          -4 hlineto
          4 -29 -20 2 -11 hhcurveto
          -5 -2 1 -9 rlineto
          -12 -3 vlineto
          9 -3 -3 4 -1 hhcurveto
          -2 hlineto
          -1 -1 -2 -5 -1 hvcurveto
          -21 vlineto
          -30 5 -15 9 vhcurveto
          213 6 10 -6 15 4 rlineto
          25 hlineto
          7 4 17 33 hvcurveto
          9 vlineto
          19 -8 9 -16 -31 -29 -4 -8 -27 vhcurveto
          -4 hlineto
          -7 -4 2 4 hvcurveto
          5 5 3 15 3 26 rrcurveto
          -5 79 -3 56 31 vvcurveto
          -8 48 rlineto
          1 vlineto
          7 14 -9 10 rlineto
          10 vlineto
          1 2 rlineto
          7 3 7 14 hvcurveto
          135 vlineto
          16 14 8 27 vhcurveto
          32 3 16 8 13 vvcurveto
          3 vlineto
          26 -6 20 -12 14 vhcurveto
          -9 -8 2 4 -6 hvcurveto
          4 7 rlineto
          2 vlineto
          -6 1 rlineto
          -11 -45 -45 -5 -44 hhcurveto
          -15 1 -39 -2 rlineto
          1 vlineto
          -29 -78 rmoveto
          2 hlineto
          7 4 -1 -3 1 hvcurveto
          -1 vlineto
          -3 -1 -3 -1 -4 hhcurveto
          -6 -3 1 3 -1 hvcurveto
          2 vlineto
          128 -35 rmoveto
          6 2 4 4 1 vhcurveto
          2 -5 hlineto
          -10 -1 -2 -5 -3 hhcurveto
          -2 hlineto
          136 -493 rmoveto
          4 3 3 5 2 vhcurveto
          3 -2 rlineto
          -1 vlineto
          -2 -4 -3 -3 -3 -1 rrcurveto
          -3 hlineto
          -172 589 rmoveto
          -1 vlineto
          -2 -2 rlineto
          -7 hlineto
          -2 2 rlineto
          1 vlineto
          100 -566 rmoveto
          1 hlineto
          3 -3 -4 -4 -5 2 rlineto
          1 vlineto
          -3 325 rmoveto
          2 -3 3 3 -3 2 rlineto
          -59 156 rmoveto
          1 hlineto
          -4 -5 rlineto
          1 vlineto
          39 215 rmoveto
          -2 -7 8 8 rlineto
          3 vlineto
          27 18 19 29 13 39 -7 9 -10 7 -13 5 -13 -11 -10 -12 -7 -11 -6 -11 -13 -13 -19 -17 -4 -1 0 -3 -1 -3 -39 -54 rcurveline
          39 -22 9 10 26 29 -3 4 -5 8 rlineto
          1 vlineto
          8 2 rlineto
          7 -1 hlineto
          -2 -1 -3 -4 -4 -5 1 1 2 1 1 2 rrcurveto
          30 54 rmoveto
          -7 3 -4 0 -3 vvcurveto
          -3 4 -3 4 -5 3 rrcurveto
          2 vlineto
          1 vlineto
          2 2 rlineto
          8 hlineto
          4 2 -5 7 rlineto
          2 2 vlineto
          9 1 0 -4 -10 -11 rrcurveto
          -14 -28 rmoveto
          -3 -1 -5 -1 -2 3 2 6 rlinecurve
          3 2 rlineto
          2 hlineto
          3 -1 1 -2 -1 -5 rrcurveto
          -26 -57 rmoveto
          2 -8 rlineto
          -1 hlineto
          -5 5 1 3 rlineto
          18 13 rmoveto
          -3 vlineto
          -3 -3 -1 4 rlineto
          1 vlineto
          3 4 rlineto
          5 52 rmoveto
          -2 -3 vlineto
          -1 0 2 3 hvcurveto
          2 1 rlineto
          -8 -34 rmoveto
          -3 -2 vlineto
          -2 2 rlineto
          2 3 vlineto
          endchar
        </CharString>
        <CharString name="Ibreve">
          44 185 73 198 endchar
        </CharString>
        <CharString name="Icircumflex">
          -5 297 73 195 endchar
        </CharString>
        <CharString name="Idieresis">
          40 650 rmoveto
          -1 -1 rlineto
          -1 vlineto
          -1 -20 -15 0 -9 hhcurveto
          -5 hlineto
          -4 5 rlineto
          1 -16 0 -11 -7 vvcurveto
          -1 -20 rlineto
          -17 vlineto
          -7 5 -8 10 -10 vhcurveto
          88 -5 rlineto
          7 8 -122 -245 9 hvcurveto
          -5 -61 4 -38 rlineto
          -5 -1 -3 -3 -5 hhcurveto
          -4 hlineto
          4 -29 -20 2 -11 hhcurveto
          -5 -2 1 -9 rlineto
          -12 -3 vlineto
          9 -3 -3 4 -1 hhcurveto
          -2 hlineto
          -1 -1 -2 -5 -1 hvcurveto
          -21 vlineto
          -30 5 -15 9 vhcurveto
          213 6 10 -6 15 4 rlineto
          25 hlineto
          7 4 17 33 hvcurveto
          9 vlineto
          19 -8 9 -16 -31 -29 -4 -8 -27 vhcurveto
          -4 hlineto
          -7 -4 2 4 hvcurveto
          5 5 3 15 3 26 rrcurveto
          -5 79 -3 56 31 vvcurveto
          -8 48 rlineto
          1 vlineto
          7 14 -9 10 rlineto
          10 vlineto
          1 2 rlineto
          7 3 7 14 hvcurveto
          135 vlineto
          16 14 8 27 vhcurveto
          32 3 16 8 13 vvcurveto
          3 vlineto
          26 -6 20 -12 14 vhcurveto
          -9 -8 2 4 -6 hvcurveto
          4 7 rlineto
          2 vlineto
          -6 1 rlineto
          -11 -45 -45 -5 -44 hhcurveto
          -15 1 -39 -2 rlineto
          1 vlineto
          -29 -78 rmoveto
          2 hlineto
          7 4 -1 -3 1 hvcurveto
          -1 vlineto
          -3 -1 -3 -1 -4 hhcurveto
          -6 -3 1 3 -1 hvcurveto
          2 vlineto
          128 -35 rmoveto
          6 2 4 4 1 vhcurveto
          2 -5 hlineto
          -10 -1 -2 -5 -3 hhcurveto
          -2 hlineto
          136 -493 rmoveto
          4 3 3 5 2 vhcurveto
          3 -2 rlineto
          -1 vlineto
          -2 -4 -3 -3 -3 -1 rrcurveto
          -3 hlineto
          -172 589 rmoveto
          -1 vlineto
          -2 -2 rlineto
          -7 hlineto
          -2 2 rlineto
          1 vlineto
          100 -566 rmoveto
          1 hlineto
          3 -3 -4 -4 -5 2 rlineto
          1 vlineto
          -3 325 rmoveto
          2 -3 3 3 -3 2 rlineto
          -59 156 rmoveto
          1 hlineto
          -4 -5 rlineto
          1 vlineto
          -59 333 rmoveto
          -7 -14 -5 -11 -19 hvcurveto
          -9 -7 -5 -17 -29 vvcurveto
          -5 vlineto
          -38 13 13 -19 14 hhcurveto
          14 5 rlineto
          31 25 15 26 27 vvcurveto
          14 vlineto
          6 -1 6 -3 6 vhcurveto
          -9 7 -14 6 -19 3 rrcurveto
          -34 -44 rmoveto
          9 6 6 13 4 vhcurveto
          1 -4 hlineto
          -4 -6 -3 -23 -3 -11 -2 -1 rlinecurve
          -3 -3 9 17 -2 hvcurveto
          26 -6 rmoveto
          10 1 5 5 8 hhcurveto
          2 hlineto
          2 -3 rlineto
          -5 vlineto
          -14 -4 -3 -7 -3 hhcurveto
          -2 hlineto
          -4 1 -2 3 7 vvcurveto
          31 -11 rmoveto
          5 2 2 2 1 hhcurveto
          1 -2 hlineto
          -1 -7 rlineto
          -3 hlineto
          -16 -18 rmoveto
          -1 vlineto
          -8 -6 -7 -4 -7 hhcurveto
          -11 hlineto
          -5 2 -2 3 4 vvcurveto
          202 83 rmoveto
          -7 -13 -5 -11 -18 hvcurveto
          -9 -6 -5 -18 -29 vvcurveto
          -5 vlineto
          -38 13 13 -19 15 hhcurveto
          11 5 rlineto
          31 25 16 26 27 vvcurveto
          14 vlineto
          6 -1 6 -3 6 vhcurveto
          -8 7 -14 6 -21 3 rrcurveto
          -32 -43 rmoveto
          7 6 6 13 5 vhcurveto
          2 -4 hlineto
          -4 -6 -5 -23 -3 -11 -2 -1 rlinecurve
          -3 -2 9 18 -2 hvcurveto
          27 -8 rmoveto
          11 1 4 5 7 hhcurveto
          3 hlineto
          2 -3 rlineto
          -5 vlineto
          -14 -3 -4 -7 -5 hhcurveto
          -1 hlineto
          -3 1 -1 4 6 vvcurveto
          30 -11 rmoveto
          5 1 2 2 2 hhcurveto
          1 -2 hlineto
          -1 -6 rlineto
          -5 hlineto
          -15 -19 rmoveto
          -2 vlineto
          -7 -5 -7 -4 -8 hhcurveto
          -10 hlineto
          -5 2 -2 3 4 vvcurveto
          endchar
        </CharString>
        <CharString name="Idotaccent">
          40 650 rmoveto
          -1 -1 rlineto
          -1 vlineto
          -1 -20 -15 0 -9 hhcurveto
          -5 hlineto
          -4 5 rlineto
          1 -16 0 -11 -7 vvcurveto
          -1 -20 rlineto
          -17 vlineto
          -7 5 -8 10 -10 vhcurveto
          88 -5 rlineto
          7 8 -122 -245 9 hvcurveto
          -5 -61 4 -38 rlineto
          -5 -1 -3 -3 -5 hhcurveto
          -4 hlineto
          4 -29 -20 2 -11 hhcurveto
          -5 -2 1 -9 rlineto
          -12 -3 vlineto
          9 -3 -3 4 -1 hhcurveto
          -2 hlineto
          -1 -1 -2 -5 -1 hvcurveto
          -21 vlineto
          -30 5 -15 9 vhcurveto
          213 6 10 -6 15 4 rlineto
          25 hlineto
          7 4 17 33 hvcurveto
          9 vlineto
          19 -8 9 -16 -31 -29 -4 -8 -27 vhcurveto
          -4 hlineto
          -7 -4 2 4 hvcurveto
          5 5 3 15 3 26 rrcurveto
          -5 79 -3 56 31 vvcurveto
          -8 48 rlineto
          1 vlineto
          7 14 -9 10 rlineto
          10 vlineto
          1 2 rlineto
          7 3 7 14 hvcurveto
          135 vlineto
          16 14 8 27 vhcurveto
          32 3 16 8 13 vvcurveto
          3 vlineto
          26 -6 20 -12 14 vhcurveto
          -9 -8 2 4 -6 hvcurveto
          4 7 rlineto
          2 vlineto
          -6 1 rlineto
          -11 -45 -45 -5 -44 hhcurveto
          -15 1 -39 -2 rlineto
          1 vlineto
          -29 -78 rmoveto
          2 hlineto
          7 4 -1 -3 1 hvcurveto
          -1 vlineto
          -3 -1 -3 -1 -4 hhcurveto
          -6 -3 1 3 -1 hvcurveto
          2 vlineto
          128 -35 rmoveto
          6 2 4 4 1 vhcurveto
          2 -5 hlineto
          -10 -1 -2 -5 -3 hhcurveto
          -2 hlineto
          136 -493 rmoveto
          4 3 3 5 2 vhcurveto
          3 -2 rlineto
          -1 vlineto
          -2 -4 -3 -3 -3 -1 rrcurveto
          -3 hlineto
          -172 589 rmoveto
          -1 vlineto
          -2 -2 rlineto
          -7 hlineto
          -2 2 rlineto
          1 vlineto
          100 -566 rmoveto
          1 hlineto
          3 -3 -4 -4 -5 2 rlineto
          1 vlineto
          -3 325 rmoveto
          2 -3 3 3 -3 2 rlineto
          -59 156 rmoveto
          1 hlineto
          -4 -5 rlineto
          1 vlineto
          23 293 rmoveto
          -7 -13 -5 -10 -19 hvcurveto
          -9 -7 -4 -18 -29 vvcurveto
          -5 vlineto
          -37 13 13 -19 14 hhcurveto
          12 4 rlineto
          31 25 16 27 27 vvcurveto
          14 vlineto
          6 -1 6 -3 6 vhcurveto
          -9 7 -14 5 -20 3 rrcurveto
          -33 -44 rmoveto
          9 6 6 13 4 vhcurveto
          2 -4 hlineto
          -4 -6 -4 -23 -3 -11 -2 -1 rlinecurve
          -3 -2 9 17 -3 hvcurveto
          27 -6 rmoveto
          10 1 4 5 8 hhcurveto
          3 hlineto
          1 -2 rlineto
          -5 vlineto
          -15 -3 -4 -7 -4 hhcurveto
          -4 1 -2 4 7 vvcurveto
          31 -12 rmoveto
          5 1 2 3 1 hhcurveto
          1 -2 hlineto
          -1 -7 rlineto
          -4 hlineto
          -14 -18 rmoveto
          -2 vlineto
          -7 -6 -7 -4 -8 hhcurveto
          -11 hlineto
          -4 1 -2 3 5 vvcurveto
          endchar
        </CharString>
        <CharString name="Igrave">
          1 310 73 193 endchar
        </CharString>
        <CharString name="Imacron">
          -19 185 73 197 endchar
        </CharString>
        <CharString name="Iogonek">
          40 650 rmoveto
          -1 -1 rlineto
          -1 vlineto
          -1 -20 -15 0 -9 hhcurveto
          -5 hlineto
          -4 5 rlineto
          1 -16 0 -11 -7 vvcurveto
          -1 -20 rlineto
          -17 vlineto
          -7 5 -8 10 -10 vhcurveto
          88 -5 rlineto
          7 8 -122 -245 9 hvcurveto
          -5 -61 4 -38 rlineto
          -5 -1 -3 -3 -5 hhcurveto
          -4 hlineto
          4 -29 -20 2 -11 hhcurveto
          -5 -2 1 -9 rlineto
          -12 -3 vlineto
          9 -3 -3 4 -1 hhcurveto
          -2 hlineto
          -1 -1 -2 -5 -1 hvcurveto
          -21 vlineto
          -30 5 -15 9 vhcurveto
          176 5 rlineto
          -15 -13 -8 -7 -3 hhcurveto
          -11 3 rlineto
          -3 -2 -2 -5 -2 hvcurveto
          4 -11 rlineto
          -3 -6 -2 -5 -4 vvcurveto
          -25 6 -17 13 -7 vhcurveto
          -2 -2 -1 -3 vhcurveto
          -3 vlineto
          -1 4 -2 7 -3 vhcurveto
          -5 vlineto
          -15 -1 5 -15 9 -14 12 -15 rlinecurve
          19 -23 35 -8 50 7 rrcurveto
          7 -4 0 4 4 hhcurveto
          1 4 rlineto
          12 -6 -8 6 -11 hhcurveto
          -2 1 rlineto
          1 vlineto
          2 5 2 11 3 vhcurveto
          2 vlineto
          -37 17 -19 13 10 vvcurveto
          3 vlineto
          -11 31 7 27 25 23 8 7 6 6 3 5 rrcurveto
          18 hlineto
          7 4 17 33 hvcurveto
          9 vlineto
          19 -8 9 -16 -31 -29 -4 -8 -27 vhcurveto
          -4 hlineto
          -7 -4 2 4 hvcurveto
          5 5 3 15 3 26 rrcurveto
          -5 79 -3 56 31 vvcurveto
          -8 48 rlineto
          1 vlineto
          7 14 -9 10 rlineto
          10 vlineto
          1 2 rlineto
          7 3 7 14 hvcurveto
          135 vlineto
          16 14 8 27 vhcurveto
          32 3 16 8 13 vvcurveto
          3 vlineto
          26 -6 20 -12 14 vhcurveto
          -9 -8 2 4 -6 hvcurveto
          4 7 rlineto
          2 vlineto
          -6 1 rlineto
          -11 -45 -45 -5 -44 hhcurveto
          -15 1 -39 -2 rlineto
          1 vlineto
          -29 -78 rmoveto
          2 hlineto
          7 4 -1 -3 1 hvcurveto
          -1 vlineto
          -3 -1 -3 -1 -4 hhcurveto
          -6 -3 1 3 -1 hvcurveto
          2 vlineto
          128 -35 rmoveto
          6 2 4 4 1 vhcurveto
          2 -5 hlineto
          -10 -1 -2 -5 -3 hhcurveto
          -2 hlineto
          137 -493 rmoveto
          1 -1 vlineto
          1 4 3 3 4 1 3 -2 rcurveline
          -1 vlineto
          -2 -4 -3 -3 -3 -1 rrcurveto
          -3 2 hlineto
          -172 587 rmoveto
          -1 vlineto
          -2 -2 rlineto
          -7 hlineto
          -2 2 rlineto
          1 vlineto
          100 -566 rmoveto
          1 hlineto
          3 -3 -4 -4 -5 2 rlineto
          1 vlineto
          -3 325 rmoveto
          2 -3 3 3 -3 2 rlineto
          -59 156 rmoveto
          1 hlineto
          -4 -5 rlineto
          1 vlineto
          107 -529 rmoveto
          2 vlineto
          7 2 rlineto
          endchar
        </CharString>
        <CharString name="Itilde">
          6 275 73 196 endchar
        </CharString>
        <CharString name="J">
          -78 52 240 rmoveto
          -32 -2 -3 -30 -4 -21 -4 -12 rlinecurve
          -3 3 -1 5 vhcurveto
          5 17 13 2 11 hhcurveto
          5 hlineto
          7 -8 8 -30 7 -52 12 -38 20 -28 28 -17 rrcurveto
          -17 39 28 -8 18 hhcurveto
          2 hlineto
          39 40 24 48 39 hvcurveto
          17 32 10 23 2 14 -6 9 rcurveline
          3 7 rlineto
          6 3 15 29 hvcurveto
          14 134 rlineto
          81 5 61 10 42 vhcurveto
          48 3 7 24 10 hhcurveto
          11 hlineto
          2 5 5 1 4 hhcurveto
          21 15 2 4 9 hvcurveto
          -1 vlineto
          -5 -16 18 2 rlineto
          8 4 14 28 hvcurveto
          5 vlineto
          11 -2 11 -4 12 vhcurveto
          7 -5 -35 4 -66 hhcurveto
          -13 hlineto
          -5 -65 -50 -2 -39 hhcurveto
          -1 hlineto
          -9 -4 -1 -3 hvcurveto
          -17 vlineto
          -3 -4 -6 -7 -10 vhcurveto
          5 -11 9 -34 40 2 44 13 2 -25 rlineto
          9 -29 4 -62 -97 vvcurveto
          -87 vlineto
          -42 -3 -26 -7 -10 vhcurveto
          -3 -23 -6 -18 -8 -15 rrcurveto
          -12 -11 -15 -21 -19 vhcurveto
          -5 -13 -10 -10 -17 -9 rrcurveto
          -1 vlineto
          -1 3 -1 7 -2 vhcurveto
          -3 -4 -3 -9 -2 vhcurveto
          -5 8 -43 -11 -9 1 rlineto
          -37 15 -19 40 67 vvcurveto
          8 6 6 12 4 vhcurveto
          2 hlineto
          -12 3 5 -6 7 hhcurveto
          2 2 vlineto
          5 3 20 41 1 hvcurveto
          -4 15 -11 -2 -2 3 rlineto
          -6 hlineto
          -2 -3 rlineto
          -1 vlineto
          -87 -8 2 -1 27 2 rlineto
          5 -4 hlineto
          -3 -10 -2 -19 -1 vhcurveto
          -5 -4 0 1 -2 hvcurveto
          1 -1 0 -2 -2 vvcurveto
          -3 vlineto
          -2 -2 rlineto
          -2 hlineto
          -5 3 -3 4 5 vvcurveto
          3 4 vlineto
          205 -222 rmoveto
          2 10 3 20 5 vhcurveto
          34 16 rlineto
          2 -7 hlineto
          -29 -29 -32 -15 -33 hhcurveto
          -17 -14 4 8 -12 hvcurveto
          1 3 vlineto
          23 -2 rlineto
          5 hlineto
          27 15 3 5 3 hvcurveto
          96 622 rmoveto
          1 3 2 5 1 vhcurveto
          47 -1 30 -2 14 -1 rrcurveto
          2 hlineto
          -3 -4 -4 -8 -5 vhcurveto
          -2 vlineto
          12 -3 rlineto
          -5 -2 -3 -2 -5 hhcurveto
          -11 1 rlineto
          10 -9 -8 5 -7 hhcurveto
          -37 2 -19 2 3 vvcurveto
          -232 -554 rmoveto
          1 hlineto
          3 3 -1 -3 4 hvcurveto
          18 -23 21 -11 13 -9 4 -5 rlinecurve
          -2 -3 vlineto
          -14 4 rlineto
          -37 21 -18 14 7 vvcurveto
          4 vlineto
          -36 83 rmoveto
          6 1 3 2 1 vhcurveto
          4 hlineto
          6 5 -18 -36 3 hvcurveto
          -1 vlineto
          -6 -1 -3 -3 vhcurveto
          -3 hlineto
          -2 -1 2 3 -1 hvcurveto
          1 13 rlineto
          -7 18 -4 12 6 vvcurveto
          265 -10 rmoveto
          3 -3 rlineto
          -1 vlineto
          -2 -12 rlineto
          -25 -9 -10 -12 -10 hhcurveto
          -1 hlineto
          5 4 9 8 13 vhcurveto
          10 8 5 9 9 vvcurveto
          12 53 rmoveto
          29 2 14 4 vhcurveto
          3 hlineto
          4 -4 rlineto
          -7 vlineto
          -17 -4 -14 -7 -12 vhcurveto
          -2 8 rlineto
          -77 426 rmoveto
          28 -1 14 -2 -3 vvcurveto
          -3 -7 -1 -15 -1 vhcurveto
          -19 -10 2 3 hvcurveto
          6 vlineto
          -32 -36 rmoveto
          3 6 2 13 vhcurveto
          10 hlineto
          2 -3 rlineto
          -1 vlineto
          -7 -7 -7 -5 -7 -1 rrcurveto
          -2 hlineto
          -3 3 -3 3 -2 4 rrcurveto
          5 42 rmoveto
          8 1 1 4 3 hhcurveto
          4 hlineto
          1 -11 2 -8 3 -3 rrcurveto
          -1 vlineto
          -5 -4 rlineto
          -4 hlineto
          -4 3 -2 3 4 vvcurveto
          116 -198 rmoveto
          1 19 2 10 4 1 3 -2 rcurveline
          -9 vlineto
          -6 -3 -11 -5 -16 vhcurveto
          -2 2 rlineto
          136 194 rmoveto
          3 1 3 2 1 vhcurveto
          2 hlineto
          3 1 -6 -13 1 hvcurveto
          -6 -1 -1 -3 -1 hhcurveto
          -2 hlineto
          -3 -2 7 14 hvcurveto
          -282 -561 rmoveto
          3 6 2 11 1 vhcurveto
          8 -2 hlineto
          -5 -4 -7 -3 -9 hhcurveto
          -5 1 rlineto
          172 552 rmoveto
          1 3 2 5 1 vhcurveto
          7 hlineto
          6 -1 rlineto
          -3 vlineto
          -3 -6 -2 -13 -1 vhcurveto
          -2 2 rlineto
          -9 32 rmoveto
          9 -1 5 -1 -3 vvcurveto
          -3 -1 rlineto
          -18 hlineto
          -1 1 rlineto
          4 vlineto
          -261 -442 rmoveto
          2 hlineto
          5 -4 rlineto
          -6 vlineto
          -4 -3 -3 1 -2 3 -3 4 rlinecurve
          1 vlineto
          -3 34 rmoveto
          1 hlineto
          7 3 -3 -6 hvcurveto
          -3 vlineto
          -5 -5 3 6 -3 hvcurveto
          -20 -31 rmoveto
          4 3 2 5 vhcurveto
          2 hlineto
          2 -1 1 -3 -3 vvcurveto
          -2 -9 vlineto
          259 385 rmoveto
          4 -3 2 -3 -4 vvcurveto
          -5 vlineto
          -6 1 -3 3 7 vvcurveto
          2 vlineto
          24 -164 rmoveto
          3 -2 rlineto
          -10 vlineto
          -3 -3 rlineto
          -2 hlineto
          -1 6 rlineto
          3 vlineto
          1 6 rlineto
          -75 183 rmoveto
          4 1 3 2 5 hhcurveto
          7 -2 hlineto
          -3 -4 -1 -8 -1 vhcurveto
          -4 hlineto
          -225 -330 rmoveto
          4 4 rlineto
          3 vlineto
          -6 -5 -3 -7 -3 hvcurveto
          10 2 rlineto
          85 -14 rmoveto
          3 2 2 3 2 vhcurveto
          2 -9 hlineto
          -3 -2 rlineto
          -3 hlineto
          245 335 rmoveto
          4 -4 rlineto
          -5 vlineto
          -3 -3 rlineto
          -1 -2 3 5 -1 hvcurveto
          1 vlineto
          -260 -518 rmoveto
          4 -4 rlineto
          -1 vlineto
          -4 -2 -5 5 rlineto
          2 vlineto
          297 560 rmoveto
          5 hlineto
          2 -2 -3 -4 rlineto
          -3 hlineto
          -4 4 rlineto
          -55 -62 rmoveto
          3 -3 rlineto
          -4 vlineto
          -3 -2 -2 2 rlineto
          7 vlineto
          -154 -514 rmoveto
          -3 vlineto
          -2 -3 rlineto
          -2 hlineto
          -3 4 rlineto
          2 vlineto
          1 vlineto
          300 623 rmoveto
          2 hlineto
          2 -1 -2 -5 -5 1 rlineto
          4 vlineto
          -448 -405 rmoveto
          -2 3 -1 5 -1 vhcurveto
          -1 3 -2 1 -4 1 rrcurveto
          -16 -17 rmoveto
          -4 -5 4 vlineto
          83 -31 rmoveto
          -6 -2 6 vlineto
          256 161 rmoveto
          -4 -3 4 vlineto
          -264 -126 rmoveto
          -2 -5 2 vlineto
          250 368 rmoveto
          -2 -3 2 vlineto
          endchar
        </CharString>
        <CharString name="Jcircumflex">
          -78 194 270 74 195 endchar
        </CharString>
        <CharString name="K">
          66 109 675 rmoveto
          -29 -20 -1 -1 -11 hvcurveto
          -14 -9 -12 -25 -5 hvcurveto
          5 -11 rlineto
          -5 -5 -3 -10 -1 vhcurveto
          -4 11 -5 21 -6 vhcurveto
          44 25 -4 -9 6 hvcurveto
          -1 -10 1 -15 -2 -189 -3 -100 -4 -10 rlinecurve
          -7 -43 -4 -33 -22 vvcurveto
          -56 -4 -8 -28 -12 hhcurveto
          -29 -1 -15 -2 -3 vvcurveto
          -2 vlineto
          25 -4 13 -2 -1 vvcurveto
          -3 vlineto
          -3 -2 -1 -1 hvcurveto
          -27 -2 -13 -3 -3 vvcurveto
          -10 -18 -5 -15 -12 vvcurveto
          -4 vlineto
          3 -7 rlineto
          3 10 7 2 5 hhcurveto
          45 hlineto
          10 8 -2 -3 7 hvcurveto
          4 9 12 2 15 hhcurveto
          10 hlineto
          70 35 -2 -4 hvcurveto
          5 3 1 3 3 hvcurveto
          9 25 6 16 4 6 -2 3 rcurveline
          -5 -5 4 8 -3 hvcurveto
          -1 2 -66 8 -36 10 -7 11 rlinecurve
          15 3 8 6 2 vhcurveto
          5 3 24 49 1 hvcurveto
          -5 6 -3 5 3 vvcurveto
          1 vlineto
          10 29 -2 11 rlineto
          8 37 4 26 15 vvcurveto
          1 16 18 33 35 vhcurveto
          3 hlineto
          4 -3 12 -16 19 -27 41 -85 22 -45 5 -4 16 -52 rcurveline
          15 -33 7 -24 -17 vvcurveto
          -12 -1 -12 -2 -13 vhcurveto
          2 -4 rlineto
          2 hlineto
          -5 -5 -5 -9 -5 vhcurveto
          -3 vlineto
          -5 22 -4 43 -3 vhcurveto
          91 -4 46 -3 -2 vvcurveto
          7 4 3 5 5 vvcurveto
          -6 32 rlineto
          3 vlineto
          10 20 -3 4 rlineto
          -5 1 -2 2 2 vvcurveto
          2 vlineto
          3 4 rlineto
          5 -20 2 -41 vhcurveto
          -36 hlineto
          -8 2 rlineto
          2 2 3 3 3 vhcurveto
          4 vlineto
          -12 2 rlineto
          -5 -13 20 40 -21 hvcurveto
          -6 15 -7 14 -9 12 -23 49 -25 50 -27 50 -25 30 -13 25 -2 21 rrcurveto
          1 vlineto
          3 13 14 27 25 vhcurveto
          17 9 38 29 60 50 rrcurveto
          21 19 21 10 21 hhcurveto
          15 hlineto
          14 -4 rlineto
          7 3 10 21 hvcurveto
          2 vlineto
          5 -1 4 -2 3 vhcurveto
          5 vlineto
          13 3 7 2 3 vvcurveto
          -2 2 -20 5 rlineto
          9 -7 5 -15 vhcurveto
          -99 hlineto
          -32 -16 -2 -5 hvcurveto
          -2 vlineto
          18 -2 rlineto
          2 hlineto
          -4 -10 -16 -20 -28 vhcurveto
          -9 -29 -30 -57 -49 vhcurveto
          -73 -69 rlineto
          -1 hlineto
          7 64 4 50 36 vvcurveto
          31 5 20 11 9 vhcurveto
          3 -7 vlineto
          9 -7 -21 5 -36 hhcurveto
          -123 -14 rmoveto
          31 -3 20 -2 8 -3 -3 -3 rcurveline
          -48 hlineto
          -5 -3 2 3 -1 hvcurveto
          4 vlineto
          169 -16 rmoveto
          9 2 2 5 3 hhcurveto
          1 hlineto
          1 -2 rlineto
          -3 -3 -4 -5 -5 vhcurveto
          -66 9 rmoveto
          2 -2 -4 -2 -14 1 rlineto
          3 vlineto
          -65 -22 rmoveto
          19 hlineto
          29 20 -2 -3 11 hvcurveto
          -2 vlineto
          -8 -2 rlineto
          -14 hlineto
          -41 -24 1 3 -7 hvcurveto
          3 vlineto
          368 -13 rmoveto
          7 2 3 4 5 hhcurveto
          1 hlineto
          -7 -3 -3 -4 -4 hhcurveto
          110 8 rmoveto
          1 hlineto
          3 -3 rlineto
          -3 -7 1 vlineto
          -361 -29 rmoveto
          4 3 -2 -4 1 hvcurveto
          -1 vlineto
          -6 -5 vlineto
          -1 -2 3 6 -2 hvcurveto
          222 -7 rmoveto
          5 -4 hlineto
          -8 -2 rlineto
          -2 1 hlineto
          -61 -49 rmoveto
          2 vlineto
          21 25 18 13 15 3 rrcurveto
          3 -4 hlineto
          -2 -1 -52 -43 rlineto
          -3 4 hlineto
          66 15 rmoveto
          7 5 5 4 5 hhcurveto
          1 -2 hlineto
          -1 -4 -4 -4 -8 -4 rrcurveto
          -3 hlineto
          -138 -75 rmoveto
          9 6 5 4 5 hhcurveto
          3 -3 rlineto
          -9 -7 -6 -4 -5 hhcurveto
          -1 hlineto
          30 -50 rmoveto
          5 -6 3 -6 -7 vvcurveto
          -1 -5 rlineto
          -1 vlineto
          -5 -4 6 13 -1 hvcurveto
          6 vlineto
          -69 -38 rmoveto
          16 11 8 8 7 hhcurveto
          2 -3 hlineto
          -7 -11 -9 -9 -9 -6 rrcurveto
          -3 hlineto
          -81 -270 rmoveto
          4 -5 rlineto
          -2 -1 vlineto
          -5 4 rlineto
          3 vlineto
          61 -2 rmoveto
          3 2 -3 hlineto
          -20 -31 rmoveto
          -1 -2 1 vlineto
          95 -10 rmoveto
          8 hlineto
          7 3 -1 -3 hvcurveto
          -4 -4 -2 -3 -2 vvcurveto
          -10 -4 -12 -5 -21 hhcurveto
          -28 hlineto
          -79 6 -42 6 -6 7 rrcurveto
          1 21 vlineto
          91 -9 45 -5 -2 vvcurveto
          1 hlineto
          -3 6 rlineto
          3 1 1 2 vhcurveto
          10 hlineto
          10 6 2 4 3 hvcurveto
          2 -3 2 -7 1 vhcurveto
          -224 -16 rmoveto
          1 4 3 3 4 2 rrcurveto
          4 -6 hlineto
          -4 -2 -3 -2 -5 hhcurveto
          -2 hlineto
          533 2 rmoveto
          3 hlineto
          3 -2 rlineto
          -2 vlineto
          -3 -2 rlineto
          -3 hlineto
          -7 1 rlineto
          3 vlineto
          endchar
        </CharString>
        <CharString name="Kcommaaccent">
          66 109 675 rmoveto
          -29 -20 -1 -1 -11 hvcurveto
          -14 -9 -12 -25 -5 hvcurveto
          5 -11 rlineto
          -5 -5 -3 -10 -1 vhcurveto
          -4 11 -5 21 -6 vhcurveto
          44 25 -4 -9 6 hvcurveto
          -1 -10 1 -15 -2 -189 -3 -100 -4 -10 rlinecurve
          -7 -43 -4 -33 -22 vvcurveto
          -56 -4 -8 -28 -12 hhcurveto
          -29 -1 -15 -2 -3 vvcurveto
          -2 vlineto
          25 -4 13 -2 -1 vvcurveto
          -3 vlineto
          -3 -2 -1 -1 hvcurveto
          -27 -2 -13 -3 -3 vvcurveto
          -10 -18 -5 -15 -12 vvcurveto
          -4 vlineto
          3 -7 rlineto
          3 10 7 2 5 hhcurveto
          45 hlineto
          10 8 -2 -3 7 hvcurveto
          4 9 12 2 15 hhcurveto
          10 hlineto
          70 35 -2 -4 hvcurveto
          5 3 1 3 3 hvcurveto
          9 25 6 16 4 6 -2 3 rcurveline
          -5 -5 4 8 -3 hvcurveto
          -1 2 -66 8 -36 10 -7 11 rlinecurve
          15 3 8 6 2 vhcurveto
          5 3 24 49 1 hvcurveto
          -5 6 -3 5 3 vvcurveto
          1 vlineto
          10 29 -2 11 rlineto
          8 37 4 26 15 vvcurveto
          1 16 18 33 35 vhcurveto
          3 hlineto
          4 -3 12 -16 19 -27 41 -85 22 -45 5 -4 16 -52 rcurveline
          15 -33 7 -24 -17 vvcurveto
          -12 -1 -12 -2 -13 vhcurveto
          2 -4 rlineto
          2 hlineto
          -5 -5 -5 -9 -5 vhcurveto
          -3 vlineto
          -5 22 -4 43 -3 vhcurveto
          91 -4 46 -3 -2 vvcurveto
          7 4 3 5 5 vvcurveto
          -6 32 rlineto
          3 vlineto
          10 20 -3 4 rlineto
          -5 1 -2 2 2 vvcurveto
          2 vlineto
          3 4 rlineto
          5 -20 2 -41 vhcurveto
          -36 hlineto
          -8 2 rlineto
          2 2 3 3 3 vhcurveto
          4 vlineto
          -12 2 rlineto
          -5 -13 20 40 -21 hvcurveto
          -6 15 -7 14 -9 12 -23 49 -25 50 -27 50 -25 30 -13 25 -2 21 rrcurveto
          1 vlineto
          3 13 14 27 25 vhcurveto
          17 9 38 29 60 50 rrcurveto
          21 19 21 10 21 hhcurveto
          15 hlineto
          14 -4 rlineto
          7 3 10 21 hvcurveto
          2 vlineto
          5 -1 4 -2 3 vhcurveto
          5 vlineto
          13 3 7 2 3 vvcurveto
          -2 2 -20 5 rlineto
          9 -7 5 -15 vhcurveto
          -99 hlineto
          -32 -16 -2 -5 hvcurveto
          -2 vlineto
          18 -2 rlineto
          2 hlineto
          -4 -10 -16 -20 -28 vhcurveto
          -9 -29 -30 -57 -49 vhcurveto
          -73 -69 rlineto
          -1 hlineto
          7 64 4 50 36 vvcurveto
          31 5 20 11 9 vhcurveto
          3 -7 vlineto
          9 -7 -21 5 -36 hhcurveto
          -123 -14 rmoveto
          31 -3 20 -2 8 -3 -3 -3 rcurveline
          -48 hlineto
          -5 -3 2 3 -1 hvcurveto
          4 vlineto
          169 -16 rmoveto
          9 2 2 5 3 hhcurveto
          1 hlineto
          1 -2 rlineto
          -3 -3 -4 -5 -5 vhcurveto
          -66 9 rmoveto
          2 -2 -4 -2 -14 1 rlineto
          3 vlineto
          -65 -22 rmoveto
          19 hlineto
          29 20 -2 -3 11 hvcurveto
          -2 vlineto
          -8 -2 rlineto
          -14 hlineto
          -41 -24 1 3 -7 hvcurveto
          3 vlineto
          368 -13 rmoveto
          7 2 3 4 5 hhcurveto
          1 hlineto
          -7 -3 -3 -4 -4 hhcurveto
          110 8 rmoveto
          1 hlineto
          3 -3 rlineto
          -3 -7 1 vlineto
          -361 -29 rmoveto
          4 3 -2 -4 1 hvcurveto
          -1 vlineto
          -6 -5 vlineto
          -1 -2 3 6 -2 hvcurveto
          222 -7 rmoveto
          5 -4 hlineto
          -8 -2 rlineto
          -2 1 hlineto
          -61 -49 rmoveto
          2 vlineto
          21 25 18 13 15 3 rrcurveto
          3 -4 hlineto
          -2 -1 -52 -43 rlineto
          -3 4 hlineto
          66 15 rmoveto
          7 5 5 4 5 hhcurveto
          1 -2 hlineto
          -1 -4 -4 -4 -8 -4 rrcurveto
          -3 hlineto
          -138 -75 rmoveto
          9 6 5 4 5 hhcurveto
          3 -3 rlineto
          -9 -7 -6 -4 -5 hhcurveto
          -1 hlineto
          30 -50 rmoveto
          5 -6 3 -6 -7 vvcurveto
          -1 -5 rlineto
          -1 vlineto
          -5 -4 6 13 -1 hvcurveto
          6 vlineto
          -69 -38 rmoveto
          16 11 8 8 7 hhcurveto
          2 -3 hlineto
          -7 -11 -9 -9 -9 -6 rrcurveto
          -3 hlineto
          -81 -270 rmoveto
          4 -5 rlineto
          -2 -1 vlineto
          -5 4 rlineto
          3 vlineto
          61 -2 rmoveto
          3 2 -3 hlineto
          -20 -31 rmoveto
          -1 -2 1 vlineto
          95 -10 rmoveto
          8 hlineto
          7 3 -1 -3 hvcurveto
          -4 -4 -2 -3 -2 vvcurveto
          -10 -4 -12 -5 -21 hhcurveto
          -28 hlineto
          -79 6 -42 6 -6 7 rrcurveto
          1 21 vlineto
          91 -9 45 -5 -2 vvcurveto
          1 hlineto
          -3 6 rlineto
          3 1 1 2 vhcurveto
          10 hlineto
          10 6 2 4 3 hvcurveto
          2 -3 2 -7 1 vhcurveto
          -224 -16 rmoveto
          1 4 3 3 4 2 rrcurveto
          4 -6 hlineto
          -4 -2 -3 -2 -5 hhcurveto
          -2 hlineto
          533 2 rmoveto
          3 hlineto
          3 -2 rlineto
          -2 vlineto
          -3 -2 rlineto
          -3 hlineto
          -7 1 rlineto
          3 vlineto
          -271 -63 rmoveto
          -8 -6 -2 -4 -3 hvcurveto
          -2 vlineto
          2 -1 rlineto
          15 hlineto
          2 -4 rlineto
          -2 -4 -2 -7 -3 vhcurveto
          -21 -10 -16 -31 hvcurveto
          -8 vlineto
          -24 9 -20 19 -15 vhcurveto
          19 -2 10 -2 -1 vvcurveto
          -4 vlineto
          -9 -3 -19 -7 -29 vhcurveto
          -3 vlineto
          10 -3 5 -2 -1 vvcurveto
          -1 vlineto
          -2 -1 rlineto
          -10 -8 -7 -14 -7 hvcurveto
          2 -3 rlineto
          3 4 1 2 3 hvcurveto
          8 -8 rlineto
          7 13 12 23 19 hvcurveto
          12 15 8 15 5 15 -14 3 rcurveline
          4 vlineto
          7 3 4 3 1 vvcurveto
          2 vlineto
          -3 -2 1 2 hvcurveto
          12 9 6 17 26 vvcurveto
          4 -2 5 -3 6 vhcurveto
          4 12 rlineto
          5 -2 -2 2 -2 hhcurveto
          -11 -3 rlineto
          -3 -9 9 18 -13 hvcurveto
          2 5 2 10 2 vhcurveto
          1 vlineto
          16 -29 -20 8 -12 hhcurveto
          15 -18 rmoveto
          10 -5 -13 2 hlineto
          -21 -29 rmoveto
          8 10 4 19 vhcurveto
          8 -2 rlineto
          -2 vlineto
          -14 -21 -14 -7 -5 hhcurveto
          3 vlineto
          12 -25 rmoveto
          9 5 6 10 2 vhcurveto
          1 hlineto
          4 -4 rlineto
          -5 vlineto
          -1 -6 rlineto
          -9 hlineto
          -8 -7 -2 1 rlineto
          endchar
        </CharString>
</ttFont>
